<?xml version="1.0" encoding="UTF-8" standalone="no"?>
<!-- Created with Inkscape (http://www.inkscape.org/) -->

<svg
   xmlns:dc="http://purl.org/dc/elements/1.1/"
   xmlns:cc="http://creativecommons.org/ns#"
   xmlns:rdf="http://www.w3.org/1999/02/22-rdf-syntax-ns#"
   xmlns:svg="http://www.w3.org/2000/svg"
   xmlns="http://www.w3.org/2000/svg"
   xmlns:sodipodi="http://sodipodi.sourceforge.net/DTD/sodipodi-0.dtd"
   xmlns:inkscape="http://www.inkscape.org/namespaces/inkscape"
   width="681.37457"
   height="693.79468"
   id="svg3135"
   version="1.1"
   inkscape:version="0.48.4 r9939"
   sodipodi:docname="Artist.svg"
   inkscape:export-filename="/home/hazzl/Projects/chirrup/qml/chirrup/icons/Artist.png"
   inkscape:export-xdpi="8.321414"
   inkscape:export-ydpi="8.321414">
  <defs
     id="defs3137" />
  <sodipodi:namedview
     id="base"
     pagecolor="#000000"
     bordercolor="#666666"
     borderopacity="1.0"
     inkscape:pageopacity="0"
     inkscape:pageshadow="2"
     inkscape:zoom="0.35"
     inkscape:cx="-414.08854"
     inkscape:cy="452.47921"
     inkscape:document-units="px"
     inkscape:current-layer="layer1"
     showgrid="false"
     fit-margin-top="0"
     fit-margin-left="0"
     fit-margin-right="0"
     fit-margin-bottom="0"
     inkscape:window-width="1366"
     inkscape:window-height="744"
     inkscape:window-x="0"
     inkscape:window-y="24"
     inkscape:window-maximized="1"
     inkscape:showpageshadow="true" />
  <g
     inkscape:label="Layer 1"
     inkscape:groupmode="layer"
     id="layer1"
     transform="translate(-50.741289,23.106596)">
    <path
       style="fill:#666666;fill-opacity:1;stroke:#666666;stroke-width:4.98490572;stroke-linecap:round;stroke-linejoin:round;stroke-miterlimit:4;stroke-opacity:1;stroke-dashoffset:0"
       d="m 55.019455,616.39484 109.289485,-62.85714 226.43235,62.85714 249.28948,-57.14286 86.43235,57.14286 0,51.44366 -671.443665,0 z"
       id="rect3803"
       inkscape:connector-curvature="0"
       sodipodi:nodetypes="cccccccc" />
    <path
       style="fill:#1a1a1a;stroke:#1a1a1a;stroke-opacity:1"
       d="m 493.03288,668.80316 c -1.2627,-1.26266 -2.1646,-7.31829 -2.1646,-14.53354 0,-6.80294 -0.9213,-16.02797 -2.0474,-20.50006 -1.5274,-6.06576 -1.5274,-8.65115 0,-10.17851 1.1261,-1.1261 2.0474,-5.13194 2.0474,-8.90188 0,-7.04586 2.648,-8.8964 6.7953,-4.74901 1.6047,1.6047 2.4112,1.30867 3.391,-1.24468 0.7717,-2.01105 0.4349,-3.63368 -0.8428,-4.05954 -1.1705,-0.3902 -2.1283,-2.64251 -2.1283,-5.00516 0,-4.81402 -4.6346,-8.03025 -11.5717,-8.03025 -3.4931,0 -4.9058,1.18849 -5.896,4.96045 -0.7162,2.72825 -1.0987,6.30902 -0.85,7.9573 0.837,5.54537 -2.8768,5.12104 -3.9922,-0.45615 -1.4333,-7.16635 -7.1854,-6.63801 -8.0338,0.7379 -0.6541,5.68657 -4.5505,8.06477 -8.2216,5.01805 -1.8431,-1.52964 -2.9835,-1.37706 -4.6418,0.62108 -2.7445,3.30693 -0.9859,6.41457 3.63,6.41457 1.9256,0 3.5011,1.21756 3.5011,2.7057 0,1.93987 1.9797,2.7057 6.9944,2.7057 7.9178,0 12.2815,3.45204 8.7843,6.94917 -1.1954,1.19541 -2.2904,6.64661 -2.4334,12.11378 -0.143,5.46717 -0.6015,10.28193 -1.019,10.69944 -0.4175,0.4175 -2.55,0.29079 -4.7389,-0.28161 -4.1678,-1.08991 -5.6727,-8.37981 -2.176,-10.54089 0.9921,-0.61314 1.8038,-3.09618 1.8038,-5.51786 0,-3.2005 -0.9853,-4.40304 -3.6076,-4.40304 -3.0675,0 -3.6076,1.20254 -3.6076,8.03224 0,10.41465 -2.3177,15.01291 -11.1803,22.18141 -9.1579,7.40738 -13.2821,7.56158 -14.6846,0.54904 -1.5914,-7.95701 -6.854,-9.98544 -16.9668,-6.53967 -13.303,4.53278 -19.5219,3.8122 -23.3559,-2.70628 -1.958,-3.32891 -5.2386,-5.93883 -8.2191,-6.53878 -2.7283,-0.54918 -5.0541,-1.91168 -5.1685,-3.02778 -0.1144,-1.1161 -0.3967,-2.84099 -0.6272,-3.83308 -0.2305,-0.99209 -0.5427,-2.66538 -0.6938,-3.71842 -0.7581,-5.28272 -7.8544,-9.81007 -15.3767,-9.81007 -8.7483,0 -11.0083,-1.30336 -8.1765,-4.71548 1.0689,-1.28793 1.4417,-3.15351 0.8285,-4.14573 -1.5211,-2.46114 -6.4108,-0.37057 -6.4108,2.74089 0,1.38199 -1.233,2.51272 -2.7401,2.51272 -1.9788,0 -2.4432,-1.1829 -1.6715,-4.25757 0.8997,-3.58453 0.2636,-4.41999 -4.0242,-5.28508 -2.801,-0.56513 -6.5132,-1.57706 -8.2494,-2.24872 -2.676,-1.03529 -3.1566,-0.14827 -3.1566,5.82622 0,3.87609 -0.952,7.99945 -2.1156,9.16305 -1.6184,1.61831 -1.613,3.21897 0.023,6.80923 1.1762,2.58148 1.6266,5.52189 1.0009,6.53423 -0.6256,1.01235 -0.1223,3.73775 1.1187,6.05644 4.6858,8.75541 -2.0488,12.64882 -12.5162,7.23593 -4.0432,-2.09082 -6.2159,-2.21152 -10.526,-0.58467 -4.5211,1.70654 -7.2347,1.39241 -16.1953,-1.87482 -5.9204,-2.15867 -13.8613,-3.92485 -17.6466,-3.92485 -9.665,0 -29.3544,-3.39082 -37.4279,-6.4457 -3.7404,-1.41531 -8.4853,-2.5733 -10.5443,-2.5733 -2.059,0 -6.2679,-1.79743 -9.3531,-3.99429 -3.0852,-2.19687 -6.8632,-4.02322 -8.3955,-4.05855 -5.01,-0.11563 -17.2868,-7.75829 -19.3988,-12.07642 -10.9716,-22.43246 -20.3652,-43.39856 -20.3652,-45.45435 0,-1.38548 -1.2545,-3.5602 -2.7878,-4.83271 -1.5333,-1.27251 -2.3752,-3.3888 -1.871,-4.70285 0.5043,-1.31405 -0.6763,-3.24184 -2.6236,-4.28397 -1.9472,-1.04212 -3.5204,-1.25742 -3.496,-0.47845 0.1084,3.46365 7.1747,22.29291 9.9632,26.54872 2.3826,3.63619 2.7905,6.63358 1.8011,13.23367 -0.7034,4.69298 -1.2458,10.76491 -1.2051,13.49316 0.048,3.23901 -0.8647,4.96045 -2.631,4.96045 -1.4877,0 -6.0712,1.71734 -10.1855,3.81631 -5.9994,3.06066 -9.3568,3.59581 -16.95592,2.70267 -5.21143,-0.61249 -9.91759,-0.39802 -10.45814,0.4766 -2.2148,3.58363 -18.21324,7.2494 -24.97889,5.7235 -5.272971,-1.18925 -6.723341,-0.97366 -6.723341,0.99937 0,1.88575 -2.84766,2.51574 -11.37155,2.51574 -9.44528,0 -12.7667,-0.88478 -19.60771,-5.2232 -4.52988,-2.87277 -9.42894,-6.92616 -10.88679,-9.00753 -1.45784,-2.08137 -3.18661,-3.24834 -3.84169,-2.59325 -0.65508,0.65508 -1.19106,-16.70907 -1.19106,-38.58699 0,-30.22087 0.59561,-40.92606 2.47897,-44.55626 2.31478,-4.46173 2.54254,-4.53513 3.43873,-1.10809 0.52787,2.01858 1.84746,3.67014 2.93243,3.67014 2.46943,0 2.58244,-3.01783 0.16887,-4.5095 -0.99209,-0.61315 -1.8038,-2.63562 -1.8038,-4.4944 0,-1.85878 -1.62342,-3.89484 -3.6076,-4.5246 -2.80192,-0.88929 -3.6076,-2.7292 -3.6076,-8.23866 0,-6.9993 0.09,-7.09328 6.76425,-7.06698 3.72034,0.0144 11.91844,1.2417 18.21801,2.72675 14.54931,3.42984 18.70128,2.34844 46.495311,-12.11003 11.77997,-6.12794 27.91182,-14.32803 35.84852,-18.22241 16.0241,-7.86271 44.2843,-26.78531 56.9168,-38.11065 4.5178,-4.05031 12.6349,-10.47632 18.038,-14.28001 5.4031,-3.8037 12.0792,-9.89152 14.8359,-13.5285 2.7566,-3.63699 7.424,-9.77728 10.3718,-13.64512 5.6744,-7.44516 6.5783,-10.10368 3.4356,-10.10368 -1.0583,0 -4.5869,-2.03102 -7.8415,-4.51341 l -5.9174,-4.51339 -12.2198,4.43229 c -6.7209,2.43777 -12.699,4.91157 -13.2848,5.49733 -0.5858,0.58579 -0.025,2.7306 1.2464,4.76628 3.2652,5.2284 1.0048,6.46261 -3.808,2.07925 -5.4248,-4.94082 -11.1187,-7.74835 -15.7141,-7.74835 -2.0806,0 -4.2847,-1.30782 -4.8981,-2.90628 -0.6134,-1.59845 -3.6318,-4.00182 -6.7076,-5.3408 l -5.5924,-2.43451 4.8129,-0.0705 c 10.7617,-0.15783 14.3125,-5.63489 6.0838,-9.38414 -3.5691,-1.62618 -5.3586,-1.41622 -9.1605,1.07485 -2.5986,1.70271 -4.3565,4.05005 -3.9063,5.21631 0.5889,1.52544 -2.4084,1.95074 -10.6813,1.51561 -14.1846,-0.74607 -14.75,-3.14884 -2.5286,-10.74606 5.6934,-3.53919 9.8836,-7.75696 11.468,-11.54339 1.3732,-3.28156 2.3189,-6.19212 2.1016,-6.4679 -0.2172,-0.27578 -2.3892,0.25677 -4.8265,1.18346 -3.5537,1.35112 -4.8569,1.00381 -6.5788,-1.75333 -1.1809,-1.89109 -3.5712,-3.43828 -5.3118,-3.43828 -1.7405,0 -3.9658,-1.72851 -4.9451,-3.84114 -1.0111,-2.18108 -5.5282,-5.24096 -10.452,-7.08011 -4.7693,-1.78141 -9.8335,-4.20343 -11.25388,-5.38223 -3.85698,-3.20101 -1.34387,-5.4526 3.87238,-3.46939 5.1469,1.95687 14.0527,2.22165 20.1114,0.59796 2.7329,-0.73236 4.0586,-2.45716 4.0586,-5.2803 0,-2.30598 0.7411,-4.65069 1.6468,-5.21048 2.5016,-1.54607 4.4013,-15.51417 2.3842,-17.53118 -0.9657,-0.96574 -1.3452,-5.3993 -0.8433,-9.85236 0.8053,-7.14434 0.4594,-8.21497 -2.9413,-9.10428 -2.1197,-0.55432 -3.8662,-2.33366 -3.8812,-3.95411 -0.063,-6.85281 -5.1698,-17.16353 -9.668,-19.52038 -5.6859,-2.97913 -5.7155,-3.18926 -1.1001,-7.80466 3.905,-3.90505 3.5426,-9.97222 -1.0352,-17.33001 -1.3102,-2.10593 -1.9186,-5.60197 -1.3519,-7.76896 0.7495,-2.86602 -0.5094,-5.44535 -4.6183,-9.46261 -3.1068,-3.03744 -5.64869,-6.72716 -5.64869,-8.19939 0,-1.47222 -2.17419,-6.54456 -4.83154,-11.27185 l -4.83153,-8.59509 3.1091,-9.70875 c 4.20809,-13.1405 6.91657,-17.67672 12.09556,-20.25783 3.4821,-1.73542 4.4375,-3.70271 4.6633,-9.60285 0.1562,-4.08115 1.1709,-9.07735 2.2548,-11.10265 1.0839,-2.0253 1.9883,-5.96792 2.0097,-8.76139 0.082,-10.68288 12.0049,-28.343857 35.586,-52.712706 6.2006,-6.40768 11.2738,-12.72846 11.2738,-14.04618 0,-1.31772 9.5376,-12.04447 21.1946,-23.83722 l 21.1947,-21.44137 14.0144,-3.0783696 c 7.708,-1.69311 20.6953,-6.32303 28.8608,-10.28871 14.0961,-6.84595 30.2641,-11.2561994 75.728,-20.6568394 3.0729,-0.63538 6.6562,0.0825 9.4065,1.88455 2.4434,1.60101 6.7968,2.91093 9.6742,2.91093 2.8774,0 7.1674,1.48732 9.5334,3.30516 2.366,1.817839 8.9387,5.2014094 14.6059,7.5190394 12.5098,5.1159 27.2762,16.90743 34.3207,27.4063696 2.866,4.27148 6.7277,9.38975 8.5815,11.37393 1.8537,1.98418 4.9553,7.26029 6.8924,11.7247 1.9371,4.4644 6.0503,10.50116 9.1405,13.41502 3.5855,3.38089 5.6185,7.05503 5.6185,10.15387 0,7.75084 8.7888,25.135469 13.6396,26.979739 4.1562,1.5802 11.6136,13.526867 11.6136,18.604927 0,1.40619 1.2176,3.56719 2.7057,4.80223 3.7409,3.10468 3.3831,10.2028 -0.8604,17.06896 -3.058,4.94795 -3.2618,6.57617 -1.4307,11.42747 1.6564,4.38823 1.6343,8.08367 -0.099,16.47268 -1.7862,8.64831 -1.7797,11.54246 0.033,14.44455 1.7885,2.86386 1.8006,4.0953 0.057,5.83887 -1.2152,1.21527 -2.2095,4.3877 -2.2095,7.04984 0,6.05877 -3.853,7.24305 -18.9715,5.83127 -7.0773,-0.66089 -11.6234,-0.33855 -12.375,0.87744 -0.6533,1.05716 0.1461,5.25613 1.7766,9.33104 5.7407,14.34739 1.2008,8.8364 -8.9089,-10.81452 -9.7068,-18.86794 -12.427,-29.05427 -8.42,-31.53071 0.9921,-0.61314 1.8038,-2.56451 1.8038,-4.33639 0,-5.31624 6.1129,-9.21308 17.3459,-11.05765 20.1631,-3.31095 21.4709,-3.98548 21.1494,-10.90835 -0.5717,-12.31017 -9.0742,-38.849287 -16.544,-51.639447 -8.0131,-13.720209 -21.6636,-28.678329 -28.5664,-31.302789 -2.5987,-0.988 -6.1046,-0.87654 -9.1682,0.29147 -6.0563,2.30903 -46.9117,3.14738 -49.0525,1.00654 -0.8451,-0.84507 -4.6633,-1.81968 -8.4849,-2.16579 -10.0285,-0.90824 -17.5035,-1.9238 -19.575,-2.65948 -2.2039,-0.78267 -22.7454,3.7279 -25.2532,5.54516 -0.9921,0.71891 -3.8331,1.30455 -6.3133,1.30141 -2.4802,-0.003 -8.9739,1.3343 -14.4304,2.97209 -8.3575,2.50855 -10.7026,4.21204 -14.8813,10.81023 -2.7283,4.30784 -4.9605,8.636029 -4.9605,9.618189 0,0.98216 -1.5386,6.6022 -3.4192,12.48897 -4.64,14.524287 -4.0285,35.261397 1.3436,45.568087 2.1337,4.09351 3.8794,9.47249 3.8794,11.95331 0,2.48081 1.2418,4.98708 2.7595,5.56947 3.429,1.31582 2.2924,5.28376 -4.7655,16.63758 -4.4512,7.16053 -5.3096,10.49819 -5.5115,21.43089 -0.1331,7.21078 0.6489,14.0195 1.7648,15.36403 2.604,3.13762 3.0692,24.29441 0.6681,30.38804 -1.0236,2.59796 -4.049,6.44447 -6.7229,8.54781 -5.7352,4.51134 -11.4433,3.74831 -20.0896,-2.68543 -7.1095,-5.29027 -9.0058,-5.34819 -10.6005,-0.32383 -0.9837,3.09941 0.1667,5.25016 5.3483,9.99868 7.7785,7.1285 6.9714,10.20519 -2.2684,8.6468 -4.3535,-0.73427 -7.752,-0.25107 -10.0463,1.42837 -3.3969,2.48663 -3.3877,2.60594 0.451,5.89275 5.3977,4.62164 4.9049,6.26775 -1.4934,4.9881 -10.0691,-2.01384 -4.967,6.26391 6.9231,11.23188 8.0204,3.35115 13.2149,2.23179 19.1011,-4.11613 4.9387,-5.32618 4.7549,-5.52695 8.0876,8.83493 2.8421,12.24816 2.5455,19.49398 -0.7981,19.49398 -4.6026,0 -4.9279,4.61358 -1.1682,16.56926 1.97,6.26431 4.4615,20.23373 5.5368,31.04314 1.3795,13.86916 3.0451,21.50122 5.659,25.93148 4.2506,7.20423 3.4012,9.67719 -1.7292,5.03428 -3.9138,-3.54201 -7.3399,-2.443 -7.3399,2.35453 0,1.73602 -1.1917,4.73202 -2.6483,6.65779 -1.4566,1.92578 -2.6741,6.30181 -2.7057,9.72452 -0.045,4.84019 -0.5384,5.74209 -2.2219,4.05855 -4.1292,-4.12917 -5.0507,-2.09692 -5.0507,11.13875 0,11.29581 0.9283,15.34026 6.1515,26.80193 3.3834,7.42424 7.4419,13.99378 9.019,14.59898 3.9562,1.51811 3.5927,4.21079 -0.7207,5.33876 -3.3899,0.88649 -3.4398,1.29365 -0.9019,7.36764 1.4775,3.53611 2.6863,8.0788 2.6863,10.09483 0,2.01606 0.8117,3.66554 1.8038,3.66554 0.9921,0 1.8038,1.62342 1.8038,3.6076 0,1.98418 0.4461,3.6076 0.9913,3.6076 1.6644,0 12.5,-11.42009 15.771,-16.62169 3.7638,-5.98515 3.815,-8.08061 0.3591,-14.70703 -2.6325,-5.04766 -2.5224,-5.01474 4.5258,1.35285 7.8393,7.08233 11.6287,7.9873 16.1838,3.86493 1.6175,-1.46384 8.3227,-4.07305 14.9003,-5.79822 l 11.9593,-3.13668 14.7461,4.9776 c 13.4026,4.52411 15.1186,4.73344 18.8361,2.29768 3.5932,-2.35436 5.4434,-2.36422 15.2294,-0.0813 12.2072,2.84776 15.7938,1.88948 28.1913,-7.53231 6.1852,-4.70068 24.6431,-9.45171 25.5974,-6.58876 2.0277,6.08326 5.3784,8.16653 10.4279,6.48336 5.2827,-1.76088 6.8098,-4.74702 8.9526,-17.5065 0.7064,-4.20668 1.8305,-6.34404 2.8175,-5.35709 0.9869,0.98693 0.9058,4.30874 -0.2033,8.32576 -1.3034,4.72035 -1.257,7.78331 0.158,10.42716 2.7702,5.17629 6.3502,3.37142 5.8813,-2.96513 -1.5939,-21.53774 -2.8912,-26.95264 -5.9977,-25.03275 -0.8944,0.55279 -2.1292,-0.99866 -2.7438,-3.44766 -1.4917,-5.94327 -4.8091,-6.91611 -12.5519,-3.68094 -3.5403,1.47922 -7.1358,2.25758 -7.99,1.72966 -0.8542,-0.52791 -5.0235,1.93965 -9.2652,5.48348 -4.2417,3.54382 -11.0154,8.12273 -15.0527,10.17535 -4.0373,2.05261 -11.8049,6.694 -17.2614,10.31418 -16.4449,10.91051 -18.6275,11.45735 -25.5792,6.40872 -3.293,-2.3915 -11.2634,-7.13154 -17.712,-10.53342 -6.4486,-3.40187 -16.1891,-9.19797 -21.6456,-12.88019 -5.4565,-3.68223 -13.1677,-8.34308 -17.1361,-10.35746 -3.9683,-2.01435 -9.7861,-5.78545 -12.9284,-8.38018 -3.1422,-2.59473 -7.7957,-6.1656 -10.341,-7.93528 -2.5452,-1.76969 -5.5471,-4.93537 -6.6707,-7.03489 -1.9683,-3.67776 -1.7551,-3.65496 5.8315,0.62368 14.3623,8.09999 16.6695,9.57809 25.3558,16.24383 4.7411,3.63829 11.2703,7.17839 14.5093,7.86692 3.239,0.68851 7.1067,2.24834 8.5948,3.46627 1.4882,1.21792 8.155,5.20925 14.8153,8.86959 l 12.1096,6.65517 11.2935,-2.60907 c 13.8992,-3.21101 18.4727,-7.89622 17.1723,-17.59172 -0.5004,-3.73071 0,-7.51645 1.1508,-8.66486 1.5167,-1.51674 0.6579,-3.12997 -3.3507,-6.29432 -2.9646,-2.34018 -7.8252,-6.40169 -10.8015,-9.02556 -3.9419,-3.47513 -6.636,-4.48835 -9.9209,-3.73098 -17.7887,4.10135 -28.9901,4.01453 -35.25,-0.27319 -18.4867,-12.66239 -28.3293,-18.65354 -30.6453,-18.65354 -1.457,0 -2.6491,-0.67001 -2.6491,-1.48891 0,-0.81889 -5.682,-7.28465 -12.6266,-14.36835 -6.9446,-7.0837 -12.6266,-14.37142 -12.6266,-16.19493 0,-1.82352 -2.0989,-7.52744 -4.6642,-12.67537 -2.5654,-5.14796 -4.2952,-10.38051 -3.8441,-11.62793 0.4774,-1.32024 1.7937,-0.19508 3.15,2.69244 1.2814,2.72825 3.107,4.96045 4.0569,4.96045 0.9499,0 4.5005,2.43513 7.8903,5.4114 3.3898,2.97627 7.0328,5.4114 8.0957,5.4114 1.0628,0 5.007,2.43513 8.7648,5.4114 7.3551,5.8253 10.1148,6.6334 11.2299,3.28824 0.4588,-1.3763 1.6221,-1.55006 3.307,-0.49399 1.4296,0.89605 5.0343,1.81415 8.0106,2.04024 9.2312,0.70125 16.1015,1.85039 19.4138,3.24724 1.8283,0.77099 4.3293,0.38675 5.8846,-0.90409 2.2312,-1.85169 3.476,-1.41307 7.1061,2.50389 2.4206,2.61189 5.057,4.74887 5.8585,4.74887 0.8016,0 3.4784,1.82849 5.9485,4.06333 8.3536,7.55799 25.4565,14.62261 38.4512,15.88285 18.4371,1.78804 42.7014,-4.44476 42.7014,-10.96876 0,-3.19516 5.246,-1.83414 7.2316,1.87619 1.9094,3.56768 2.0739,3.54183 8.4601,-1.32917 6.9673,-5.31421 13.0647,-16.50246 13.1294,-24.09137 0.023,-2.64592 -1.8758,-6.44554 -4.4099,-8.82612 -3.972,-3.73148 -6.7724,-4.29762 -26.093,-5.27489 -24.0969,-1.21886 -29.5569,-3.46661 -24.6665,-10.15458 2.105,-2.87875 5.7245,-3.69771 20.8274,-4.71241 18.6634,-1.25391 23.5589,-3.09802 23.5589,-8.87458 0,-4.74005 -6.1524,-5.95435 -12.7865,-2.52372 -4.5128,2.33367 -6.6873,2.54794 -10.0959,0.99485 -6.2255,-2.83649 -11.04,-2.46195 -19.3884,1.50829 -4.0335,1.91823 -11.7981,4.66661 -17.2546,6.1075 -5.4565,1.44089 -11.3414,3.20512 -13.0776,3.92049 -4.6607,1.92045 -4.0376,-3.17285 1.4522,-11.86924 4.1856,-6.63046 5.1154,-7.1896 10.1258,-6.08914 4.2213,0.92715 8.7517,-0.27827 19.2915,-5.13291 19.5637,-9.01114 21.8917,-9.54032 21.8917,-4.97636 0,5.48866 3.2563,4.56612 10.0455,-2.846 5.7159,-6.24032 6.2335,-6.43518 10.1642,-3.82669 2.2779,1.51168 6.4641,4.92129 9.3027,7.57697 2.8387,2.65566 5.6797,4.31272 6.3133,3.68233 0.6337,-0.63037 1.6877,-8.18364 2.3424,-16.78504 20.10798,-33.78916 -7.90592,-84.6758 -5.02232,-85.63701 2.9163,-0.97211 23.52816,49.29161 10.86992,72.7038 -3.61806,6.69182 -3.1989,22.05145 -3.5899,32.4684 -1.0496,27.95658 -4.2874,58.66036 -7.2314,68.57383 -2.7268,9.18215 -10.1952,17.09553 -19.0461,20.18098 -8.9899,3.13389 -8.1144,10.40617 2.1312,17.70168 3.0053,2.13992 9.7998,9.32471 15.0989,15.96619 14.7255,18.45572 27.2384,29.90817 47.9888,43.92187 10.4169,7.03506 25.8394,17.85454 34.2721,24.0433 8.4328,6.18877 20.6085,13.68215 27.057,16.65194 6.4486,2.9698 17.4067,8.12543 24.3513,11.45696 11.5882,5.55915 14.0359,6.0581 29.7627,6.06681 14.9859,0.009 18.381,0.62358 27.057,4.90336 23.3051,11.4961 42.4719,40.78485 48.3345,73.85983 1.7576,9.91605 2.1955,16.64272 1.1513,17.68525 -0.9268,0.92536 -9.2214,2.07422 -18.4325,2.55302 -15.1291,0.78644 -16.9576,0.53396 -18.9228,-2.61286 -2.5799,-4.13091 -4.6927,-4.40195 -7.4221,-0.95209 -1.6909,2.13725 -3.3986,2.16488 -10.9701,0.17749 -7.3302,-1.9241 -9.5745,-1.92866 -12.2923,-0.0249 -1.8287,1.28087 -4.8129,1.93975 -6.6314,1.4642 -1.8186,-0.47558 -4.9909,0.0368 -7.0496,1.13854 -2.9295,1.56782 -5.2238,1.30218 -10.5562,-1.22228 -6.273,-2.9697 -6.7972,-3.79517 -6.6102,-10.40911 0.1117,-3.95099 0.8152,-9.00996 1.5632,-11.24217 0.8707,-2.59783 0.6353,-4.05855 -0.654,-4.05855 -1.1078,0 -2.0142,1.10496 -2.0142,2.45548 0,4.47752 -15.0588,22.12797 -23.8319,27.93332 -4.7501,3.14321 -8.6365,6.94634 -8.6365,8.45141 0,3.12962 -7.4942,6.44504 -15.0653,6.66488 -4.2954,0.12464 -5.6978,1.44017 -8.4967,7.96988 -4.6538,10.85687 -11.0844,14.25088 -30.1425,15.90909 -8.658,0.75333 -18.1451,1.29768 -21.0824,1.20969 -3.1677,-0.0949 -7.0305,1.42752 -9.4939,3.74169 -6.5086,6.11456 -8.5201,2.17681 -9.2222,-18.05389 -0.6499,-18.72786 -1.952,-22.26576 -6.734,-18.29704 -2.3973,1.98954 -2.7599,4.39081 -1.8422,12.1987 0.6284,5.34686 1.9618,11.25228 2.9631,13.12319 1.3213,2.46889 1.0508,4.8899 -0.9863,8.82931 -3.2123,6.21189 -3.083,6.14111 -5.961,3.26312 z m -87.8451,-30.32855 c 0,-1.47453 -1.8263,-2.94037 -4.0585,-3.25739 -3.9482,-0.56073 -5.6341,2.90906 -2.7937,5.74952 2.1015,2.10148 6.8522,0.37368 6.8522,-2.49213 z m -127.4865,-11.39852 c 0.3888,-2.00477 -0.6279,-3.00716 -3.0502,-3.00716 -4.6102,0 -6.894,3.51636 -3.6265,5.58375 3.3296,2.10664 5.9657,1.08935 6.6767,-2.57659 z m 138.6392,-9.52954 c 1.3798,-3.59582 -7.4385,-22.06466 -11.2299,-23.51957 -2.3199,-0.89019 -8.0399,-11.35499 -8.0399,-14.70892 0,-0.56049 2.3549,1.23703 5.2331,3.9945 6.6395,6.36111 10.9435,5.52805 15.5106,-3.00219 5.7003,-10.64675 7.9229,-7.62766 4.3278,5.87876 -1.035,3.88838 7.4307,3.09574 22.1851,-2.07718 9.5927,-3.36321 12.3137,-5.14875 13.2048,-8.66495 0.6174,-2.43587 2.6886,-5.5258 4.6027,-6.86654 2.6398,-1.84895 3.4803,-4.59123 3.4803,-11.3544 l 0,-8.91672 -7.3655,0 c -8.5948,0 -8.9911,-3.6632 -0.6167,-5.70032 2.9021,-0.70595 8.8623,-2.18197 13.2449,-3.28001 11.5955,-2.90522 12.9816,-1.86221 9.7995,7.3739 -1.4506,4.21057 -4.8243,10.556 -7.497,14.10095 -6.5603,8.70133 -9.3683,13.96184 -8.1194,15.21081 1.596,1.59595 8.7263,-4.66053 15.334,-13.45463 12.5346,-16.6823 15.3552,-22.18557 15.1665,-29.5913 l -0.1836,-7.2069 -9.326,0.60387 c -5.693,0.36863 -11.6659,-0.45733 -15.3323,-2.12024 -11.1559,-5.05971 -17.213,-5.44307 -20.7491,-1.31323 -4.2439,4.95648 -6.6424,4.72918 -5.3287,-0.50496 0.9642,-3.84157 -0.068,-4.67505 -11.0782,-8.94149 -15.688,-6.07936 -19.5136,-6.73414 -40.623,-6.95276 -17.3304,-0.17948 -17.7132,-0.0906 -27.4662,6.38516 -13.7788,9.14864 -13.4528,12.47578 3.1145,31.78355 3.8307,4.4644 9.777,11.1013 13.214,14.74864 3.4369,3.64735 6.2489,7.49105 6.2489,8.54155 0,3.89045 -11.3282,-5.14689 -17.0785,-13.6248 -5.9227,-8.73214 -25.1697,-27.70339 -28.106,-27.70339 -3.1665,0 -10.7408,4.25657 -10.9469,6.15189 -0.5268,4.8434 1.1781,7.75791 12.0966,20.68006 6.3915,7.56445 13.0292,15.46427 14.7503,17.55514 4.7407,5.75888 26.6939,24.04153 39.8475,33.18497 11.4248,7.94163 17.3099,14.86869 9.9759,11.74216 -1.8715,-0.79785 -7.0555,-2.75355 -11.5199,-4.34598 -4.7258,-1.68571 -8.1171,-4.02578 -8.1171,-5.60105 0,-1.48814 -1.8337,-3.51014 -4.075,-4.49338 -2.2412,-0.98321 -4.5025,-3.13471 -5.0251,-4.78111 -0.5225,-1.6464 -2.9268,-3.4896 -5.3428,-4.09598 -2.4161,-0.6064 -5.2774,-2.75538 -6.3586,-4.77552 -1.2979,-2.42534 -3.0778,-3.31999 -5.2398,-2.6338 -2.2959,0.72866 -3.564,-0.0693 -4.2443,-2.6708 -0.5336,-2.04048 -1.8065,-3.48373 -2.8286,-3.20723 -1.0222,0.27649 -5.4274,-3.3529 -9.7894,-8.06533 -9.1585,-9.89431 -15.039,-11.5167 -13.0759,-3.6076 0.6771,2.72825 2.7944,6.63618 4.705,8.68431 4.1765,4.47705 4.3897,6.19704 0.7682,6.19704 -1.5032,0 -2.7057,1.60338 -2.7057,3.6076 0,4.92313 -3.9144,4.53169 -9.019,-0.9019 -2.3301,-2.48022 -5.7184,-4.5095 -7.5296,-4.5095 -1.8113,0 -3.2932,-0.74533 -3.2932,-1.65627 0,-0.91095 -0.4927,-2.94023 -1.0949,-4.5095 -0.7078,-1.84451 -0.1077,-2.85323 1.6973,-2.85323 5.136,0 5.2503,-3.85147 0.2687,-9.05114 l -4.9344,-5.15037 -5.0989,3.76983 c -4.0194,2.97164 -4.735,4.44998 -3.3798,6.98217 0.9456,1.76678 1.7192,5.19559 1.7192,7.61955 0,5.47712 0.6854,6.03005 21.4015,17.26452 11.83,6.41552 19.6678,9.44395 26.1551,10.10605 5.0947,0.51997 8.2484,0.46795 7.0083,-0.11562 -1.2401,-0.58357 -2.2547,-2.1241 -2.2547,-3.42341 0,-1.29933 -1.2176,-2.82962 -2.7057,-3.40069 -1.4882,-0.57105 -2.7057,-1.87545 -2.7057,-2.89869 0,-1.02322 1.2175,-1.8604 2.7057,-1.8604 1.4881,0 2.7057,0.85309 2.7057,1.89576 0,2.79618 12.7846,14.01648 18.0228,15.81754 2.4886,0.85563 10.6125,3.65799 18.0531,6.22747 15.9388,5.5041 21.3526,5.97862 22.8774,2.00525 z m 18.61,-66.03854 c 0,-3.28822 3.1978,-6.01352 4.9731,-4.23826 0.619,0.61901 -0.2467,2.49765 -1.9238,4.17477 -2.812,2.81202 -3.0493,2.81696 -3.0493,0.0635 z m 2.2837,46.10289 c 8.9371,-5.64176 6.6931,-7.2255 -5.9429,-4.19418 -8.3873,2.01209 -12.3154,5.39901 -6.2617,5.39901 1.4882,0 2.7057,0.81171 2.7057,1.8038 0,2.64664 1.0845,2.30316 9.4989,-3.00863 z m 60.7588,-12.21459 c 2.927,-3.52687 1.694,-11.93257 -2.0986,-14.30693 -5.6003,-3.50601 -17.5006,11.043 -12.8425,15.70101 2.216,2.21599 12.7616,1.23203 14.9411,-1.39408 z m 138.9831,-15.74202 c 0,-4.13369 -0.4674,-7.04843 -1.0386,-6.47719 -1.7297,1.72966 -2.1801,13.99303 -0.514,13.99303 0.854,0 1.5526,-3.38212 1.5526,-7.51584 z m -308.4497,-11.82408 c 0.496,-0.46959 -1.7362,-3.06592 -4.9605,-5.76964 -7.1158,-5.96695 -7.7397,-9.70257 -1.3528,-8.09955 2.4802,0.62249 4.5095,0.37359 4.5095,-0.55311 0,-4.01537 -15.1305,-13.98795 -26.6061,-17.53618 -7.103,-2.19624 -4.9023,5.51787 4.0586,14.22691 4.4644,4.33889 8.1171,8.77303 8.1171,9.8536 0,1.08058 0.8318,1.96469 1.8484,1.96469 1.0167,0 2.6407,2.08377 3.609,4.63061 1.4191,3.7323 2.5477,4.38868 5.8177,3.38351 2.2315,-0.68589 4.463,-1.63128 4.9591,-2.10084 z m 308.4185,-1.05929 c -0.016,-1.18156 -1.9506,-3.9676 -4.2965,-6.19121 -2.346,-2.22362 -5.5875,-6.82912 -7.2035,-10.23446 -4.9009,-10.32785 -17.0746,-24.50431 -21.0426,-24.50431 -4.8649,0 -2.9616,3.43057 11.2613,20.29661 6.0636,7.19052 12.6073,15.71053 14.5414,18.93335 3.3235,5.53772 6.8084,6.41673 6.7399,1.70002 z m -468.5273,-18.82306 c 1.5348,-3.72604 3.7634,-10.42732 4.9524,-14.89172 1.1891,-4.46441 3.7114,-11.58859 5.6053,-15.8315 5.95,-13.33032 3.2661,-14.78409 -4.5208,-2.44879 -9.2344,14.62819 -18.086,47.63065 -11.2544,41.96093 1.3349,-1.10786 3.6828,-5.06287 5.2175,-8.78892 z m 30.2352,-11.32824 c 0,-8.23045 -1.5029,-9.80632 -5.716,-5.99354 -3.747,3.39098 -4.2745,9.871 -1.2618,15.50032 1.9768,3.69353 2.1193,3.7074 4.5095,0.43856 1.3576,-1.85655 2.4683,-6.33195 2.4683,-9.94534 z m 37.7893,10.07409 c 1.1852,-1.42814 1.8934,-4.61579 1.5737,-7.08368 l -0.5813,-4.48708 -5.1305,4.43774 c -3.0194,2.61169 -4.7127,5.52652 -4.1152,7.08371 1.2959,3.37702 5.4708,3.40198 8.2533,0.0492 z m 344.6162,-4.39772 c 0,-0.8706 -1.1453,-2.53343 -2.5451,-3.69517 -2.8267,-2.34595 -5.7178,0.31972 -3.7682,3.47432 1.3737,2.22268 6.3133,2.3955 6.3133,0.22085 z m -314.9228,-8.7889 c -0.7962,-1.73616 -1.559,-6.87008 -1.6951,-11.40873 -0.2823,-9.41915 -1.6751,-12.49162 -5.6623,-12.49162 -1.9844,0 -2.5123,1.17676 -1.8205,4.05855 0.5359,2.2322 1.4988,7.30539 2.1399,11.27375 1.7013,10.53138 2.2642,11.7247 5.5304,11.7247 2.1635,0 2.5674,-0.84571 1.5076,-3.15665 z m 30.8946,-5.97601 c 1.4317,-2.31649 -4.1655,-8.90534 -7.565,-8.90534 -3.5273,0 -2.9745,6.71656 0.7305,8.87451 4.0743,2.37305 5.3833,2.37895 6.8345,0.0308 z M 252.72668,425.2 l -0.04,-5.86235 -3.5274,4.5095 c -4.4878,5.73729 -4.4878,7.2152 0,7.2152 2.8758,0 3.5995,-1.18916 3.5675,-5.86235 z m 3.6477,-52.76114 c 0,-1.48814 -0.3065,-2.7057 -0.681,-2.7057 -0.3746,0 -1.6916,1.21756 -2.9266,2.7057 -1.8391,2.21598 -1.7158,2.7057 0.681,2.7057 1.6096,0 2.9266,-1.21757 2.9266,-2.7057 z m -48.7026,-51.85003 c 0,-1.00621 -1.1964,-0.81088 -2.7057,0.44173 -1.4881,1.23505 -2.7057,3.05725 -2.7057,4.04934 0,1.00621 1.1964,0.81088 2.7057,-0.44174 1.4881,-1.23504 2.7057,-3.05724 2.7057,-4.04933 z m -10.8194,-2.26748 c 4.7183,-4.86808 5.6324,-6.80695 3.9853,-8.45396 -1.647,-1.64702 -3.0734,-1.28422 -6.2196,1.58189 -2.2453,2.04549 -6.055,4.73905 -8.466,5.98572 -4.2059,2.17473 -4.2468,2.36676 -1.0081,4.73492 4.6053,3.36746 4.7654,3.31482 11.7084,-3.84857 z m 42.727,-52.14997 c 0.1876,-0.13077 -1.987,-5.0546 -4.8325,-10.94199 -5.463,-11.3032 -6.5702,-10.73355 -6.9388,3.57008 -0.2232,8.65846 0.8624,10.14576 6.4301,8.80956 2.7501,-0.65997 5.1536,-1.30692 5.3412,-1.43765 z m 8.5967,-12.33236 c -1.8124,-5.99904 -4.1303,-7.8359 -5.4729,-4.3372 -1.1934,3.10999 1.9511,8.39575 4.9946,8.39575 0.9375,0 1.1527,-1.82635 0.4783,-4.05855 z m -44.7554,-29.33471 c 0.5759,-1.50078 0.011,-3.97664 -1.2545,-5.50193 -2.0459,-2.46513 -2.6022,-2.47263 -5.0073,-0.0676 -2.2241,2.2241 -2.2926,3.20342 -0.385,5.50193 2.9354,3.53704 5.3062,3.56113 6.6468,0.0676 z m -6.3845,-17.64742 c -2.3151,-2.31516 -4.6629,-0.52581 -2.9489,2.2475 0.664,1.07427 2.0335,1.44252 3.0435,0.81831 1.232,-0.76142 1.2009,-1.77036 -0.095,-3.06581 z m 64.3888,-19.66827 c 3.6396,-3.63953 2.4554,-5.05064 -4.2383,-5.05064 -3.5216,0 -8.8731,-1.27741 -11.8923,-2.83871 -7.3326,-3.79184 -8.7721,-1.82786 -2.3927,3.26441 8.6979,6.94289 14.7054,8.44286 18.5233,4.62494 z m 219.4963,-17.90086 c 7.9124,-4.66841 7.1459,-5.94588 -2.5815,-4.30244 -8.073,1.36391 -14.2985,8.13366 -7.4798,8.13366 1.9623,0 6.49,-1.72405 10.0613,-3.83122 z m -195.6034,-26.98787 c 2.3292,-4.3521 1.2705,-6.16215 -2.7106,-4.63445 -3.008,1.15427 -3.9078,8.39654 -1.0432,8.39654 0.9572,0 2.6464,-1.69293 3.7538,-3.76209 z m -28.0316,-8.87556 c 1.8012,-1.99026 2.7437,-4.14985 2.0944,-4.79908 -1.3153,-1.31538 -8.4177,4.50092 -8.4177,6.8935 0,2.63331 2.9201,1.66612 6.3233,-2.09442 z m -16.3799,-19.61112 c 1.1336,-1.83419 -9.3437,-4.31301 -11.8037,-2.79264 -0.9064,0.56017 -1.1809,1.77412 -0.6102,2.69766 1.3163,2.12972 11.11,2.20465 12.4139,0.095 z m -35.5521,-6.31985 c 1.3405,-1.34053 -1.3575,-8.330167 -3.2155,-8.330167 -0.9252,0 -1.6822,1.466727 -1.6822,3.259387 0,1.83945 -2.161,4.18256 -4.9604,5.37847 -4.7748,2.03972 -4.6989,2.08942 2.0273,1.32724 3.8432,-0.4355 7.3671,-1.17122 7.8308,-1.63493 z m 32.9821,-8.223707 c 0,-2.59123 -2.9536,-3.85181 -6.1505,-2.62503 -4.4042,1.69005 -3.4048,4.322367 1.641,4.322367 2.4802,0 4.5095,-0.7638 4.5095,-1.697337 z m 19.8418,-0.10646 c 0,-0.99209 -1.6234,-1.8038 -3.6076,-1.8038 -1.9842,0 -3.6076,0.81171 -3.6076,1.8038 0,0.992087 1.6234,1.803797 3.6076,1.803797 1.9842,0 3.6076,-0.81171 3.6076,-1.803797 z m -10.8228,-7.32165 c 0,-0.93354 -1.7228,-1.69735 -3.8285,-1.69735 -3.1859,0 -3.4544,0.45074 -1.5994,2.68584 2.253,2.71471 5.4279,2.13652 5.4279,-0.98849 z m -5.4114,-25.146749 c -4.5595,-3.56647 -10.8228,-4.81913 -10.8228,-2.16456 0,3.0974 4.5841,5.7703 9.8307,5.73205 l 5.5016,-0.0401 z m 53.9526,-24.59435 c 0.4073,-0.3502 -0.6073,-2.12611 -2.2547,-3.94647 -6.9359,-7.66399 0.024,-7.94848 7.8275,-0.31997 5.7162,5.58776 9.3269,7.42358 5.477,2.78471 -5.2153,-6.28406 3.4243,-8.52059 10.7572,-2.78471 5.5182,4.31641 7.2152,4.48314 7.2152,0.70891 0,-1.7808 1.0009,-2.51459 2.5954,-1.90272 1.7715,0.67977 2.7736,-0.46195 3.1567,-3.59626 l 0.5612,-4.59222 4.6518,3.67743 c 2.5586,2.02258 6.7542,4.20507 9.3237,4.84998 3.8312,0.96156 4.7793,0.48512 5.2691,-2.64773 0.5685,-3.63679 0.9344,-3.54131 7.6184,1.98809 l 7.0212,5.80838 4.1768,-5.23821 4.1768,-5.23821 4.5852,4.30761 c 2.5219,2.36918 4.5852,5.54602 4.5852,7.05964 0,4.27119 3.2105,0.01 3.9058,-5.18469 0.5527,-4.12834 1.2606,-4.4601 8.3752,-3.92505 4.2742,0.32145 8.9408,-0.38611 10.3702,-1.57236 2.0187,-1.67539 3.7992,-1.65958 7.9768,0.0708 6.6321,2.74711 13.8761,1.10505 18.2526,-4.13748 4.3452,-5.20501 4.2607,-6.14191 -1.2,-13.30125 -5.8506,-7.6705396 -11.7504,-11.5457796 -20.2462,-13.2986096 -3.6798,-0.75921 -9.4132,-2.23515 -12.7407,-3.27986 -5.3603,-1.68289 -6.1555,-1.49634 -6.9747,1.63605 -1.2483,4.77357 -3.1166,4.44787 -5.587,-0.97398 -1.7399,-3.81881 -3.2742,-4.5095 -10.0174,-4.5095 -5.5696,0 -8.2892,0.85058 -9.0488,2.83008 -0.6541,1.70453 -2.345,2.43829 -4.2515,1.84497 -3.6681,-1.14148 -5.9974,0.2334 -8.7058,5.13849 -2.8987,5.2498 -5.9139,5.42072 -7.1724,0.40656 -1.7473,-6.96176 -8.6085,-12.41408 -14.6074,-11.60793 l -5.1483,0.69184 4.5095,1.94478 c 7.7172,3.32815 15.4735,14.9854096 9.9707,14.9854096 -1.3984,0 -3.0443,-0.8117096 -3.6574,-1.8037996 -0.6132,-0.99209 -3.2991,-1.80684 -5.9688,-1.81055 -2.6697,-0.004 -7.6634,-1.71941 -11.0972,-3.81269 -6.036,-3.67965 -6.4367,-3.70174 -12.0746,-0.66555 -3.5099,1.89024 -7.8386,2.75668 -10.8737,2.1765 -5.7495,-1.09909 -10.5466,0.99227 -16.2683,7.0923596 -2.1849,2.32932 -5.2288,4.23513 -6.7643,4.23513 -3.7551,0 -3.5142,2.20275 0.8475,7.74776 2.2293,2.83408 2.9282,5.06622 1.8038,5.76112 -3.2131,1.98585 -1.9883,4.55852 3.1249,6.56332 l 4.9605,1.94492 -4.1744,1.60278 c -6.8925,2.64638 -2.7061,5.24511 6.5076,4.03962 4.6693,-0.61092 8.8228,-1.39728 9.2301,-1.74748 z m -4.7991,-20.55685 c -2.2322,-0.89724 -4.0585,-2.46921 -4.0585,-3.49327 0,-2.99692 4.6683,-2.14805 9.2701,1.68567 4.6279,3.8554 2.0809,4.7388 -5.2116,1.8076 z m -26.1039,11.16425 c 1.6706,-1.06013 1.0356,-2.04215 -2.3047,-3.56407 -3.5535,-1.61909 -5.4263,-1.59134 -8.1683,0.12104 -1.9567,1.22198 -3.5576,2.83824 -3.5576,3.59169 0,1.82482 11.1062,1.70715 14.0306,-0.14866 z m 96.4617,624.612146 c -3.0372,-2.19849 -2.4683,-8.2326 0.8812,-9.34787 1.234,-0.41087 3.0403,1.34822 4.0139,3.90909 1.0745,2.82616 3.1638,4.65611 5.316,4.65611 1.9502,0 4.0124,0.75489 4.5826,1.67755 1.4155,2.29036 -11.4702,1.5109 -14.7937,-0.89488 z m 93.02,-383.20657 c -3.2485,-7.73463 -5.295,-8.43945 -15.7762,-5.43349 -7.6329,2.18911 -14.0929,0.69724 -16.5062,-3.81194 -2.3764,-4.44041 -0.4498,-7.8942 2.8677,-5.14088 1.803,1.49633 3.8825,1.24614 8.2,-0.98653 4.7186,-2.44009 8.6531,-2.76422 21.3526,-1.75909 14.1828,1.12253 15.8601,0.90953 18.8493,-2.39346 1.8046,-1.99412 3.7286,-6.96142 4.2754,-11.03848 0.9524,-7.1006 1.1359,-7.28468 4.3567,-4.36994 4.0778,3.69036 4.3559,11.91706 0.5969,17.65408 -2.1421,3.26921 -2.3931,5.87781 -1.1136,11.57233 0.9085,4.04344 1.2059,7.79758 0.661,8.34254 -1.9401,1.94006 -8.6699,0.94597 -12.6985,-1.87577 -4.9687,-3.48022 -9.3367,-2.16563 -9.3367,2.80998 0,5.78321 -2.4384,4.26384 -5.7284,-3.56935 z m 20.305,-42.99977 c -1.0725,-2.00393 -1.9175,-4.71151 -1.8777,-6.01684 0.04,-1.30534 1.3207,-0.0695 2.8468,2.74659 1.5261,2.81595 2.371,5.52352 1.8777,6.01683 -0.4933,0.49332 -1.7744,-0.74265 -2.8468,-2.74658 z m -91.6521,-26.79443 c -2.2119,-0.42729 -5.7869,-3.25604 -7.9445,-6.28614 -3.865,-5.42785 -3.9655,-5.45582 -6.8012,-1.89429 -4.1141,5.16707 -10.9703,8.39129 -13.1689,6.19276 -1.179,-1.17908 0.5618,-3.38172 5.1219,-6.4804 3.7994,-2.58179 7.4907,-4.69417 8.2027,-4.69417 0.7121,0 5.0507,-2.53488 9.6413,-5.63307 5.48,-3.69837 7.7364,-6.24333 6.5698,-7.40988 -2.7399,-2.7399 -12.5412,1.24567 -23.4905,9.55211 -5.3112,4.02927 -10.1088,6.87387 -10.6614,6.32134 -1.5686,-1.5686 5.0204,-8.11419 14.8828,-14.7847 6.0126,-4.06672 7.8492,-6.0838 5.5394,-6.0838 -5.1239,0 -15.2266,3.41138 -24.9062,8.41004 -6.5998,3.40826 -8.568,3.82914 -8.568,1.83221 0,-3.25747 14.9321,-15.65365 18.856,-15.65365 1.6041,0 4.9503,-1.33261 7.4361,-2.96135 5.4443,-3.56725 14.4212,-5.57688 35.7384,-8.00059 15.2747,-1.7367 16.2312,-1.63744 20.2061,2.09681 2.5051,2.3534 5.5689,3.55462 7.667,3.00596 1.922,-0.50261 4.4818,-0.30374 5.6883,0.44195 3.1612,1.95376 -3.1506,11.13105 -7.1859,10.44809 -4.1979,-0.71048 -12.6465,4.02257 -12.6465,7.08477 0,1.36786 -2.1029,4.43592 -4.6731,6.81791 -2.5702,2.38199 -4.1401,5.19319 -3.4888,6.24714 0.6514,1.05392 -1.2418,4.34237 -4.2071,7.30768 -5.2046,5.20459 -8.3909,5.94234 -17.8077,4.12327 z"
       id="path2996"
       inkscape:connector-curvature="0"
       sodipodi:nodetypes="csssssscsssccsssssscsssssssssssssscsscsssscsccccssssssscsssccccccsssssssssssssssssscsssssccsscsccssssccsccssccscscssscsccsscsscsssscsssscssscssscsssscsssssssccccsscssssssssscscscscsscssssccssssscssssssscscssccsscssssssssssscssssssccccsccssssssssscccssscscsscsssssssscccsssssssccssssscsccssssscsscsssssscccssssssssssscsscscsscscsscsssscssscsssssccsscsssssccsssssccscssscscsscsssscssscssscscssssscsccscscssssssssscscssssscssscscscsssssssssssscsscsssssssccccccsscccccsscssccscscscccsscsscscssscssccccssccsscssscssssccssscssccssssscccsccsccssssscsscssssccsccccccssscsssssssssssssssssscscscsssscccscscccsscscsssssccsscssscssccssscsscscssccssssssssssscscscsccssccssscssccccscssscssscscssssssssscssscss"
       inkscape:export-xdpi="8.2904501"
       inkscape:export-ydpi="8.2904501" />
    <path
       style="fill:#333333;fill-opacity:1;stroke:none;stroke-opacity:1"
       d="m 228.50024,66.645543 c -2.62277,-0.874254 -1.93305,-2.891307 1.34435,-3.931512 2.81398,-0.893122 2.71935,-1.1242 -1.51485,-3.699169 -3.37177,-2.050496 -4.29478,-3.444543 -3.64215,-5.500813 0.4808,-1.51485 -0.12323,-4.683048 -1.34229,-7.040441 -2.69188,-5.205529 -2.80581,-7.285199 -0.3991,-7.285199 0.99955,0 4.05312,-1.8299 6.78572,-4.066443 7.23265,-5.919705 10.53257,-7.362128 16.84282,-7.362128 3.09856,0 7.94346,-0.965061 10.76644,-2.14458 4.71857,-1.971544 5.62595,-1.921646 11.24589,0.61843 8.51705,3.849491 21.25382,7.575995 22.30412,6.5257 1.66042,-1.660423 -3.43762,-8.579776 -8.94629,-12.142407 l -5.52228,-3.571429 3.87402,-0.460942 c 5.29518,-0.630037 10.21077,2.928091 13.82063,10.00401 l 3.02519,5.929855 4.9403,-5.236462 c 2.71716,-2.880053 6.34624,-5.256906 8.06462,-5.281894 1.71837,-0.02499 4.37218,-0.989274 5.89736,-2.142858 6.05405,-4.579054 17.03169,-1.682724 19.79997,5.224005 0.59081,1.474052 1.4596,1.134931 3.48107,-1.358798 l 2.69377,-3.323085 9.1975,2.382549 c 17.04331,4.414952 25.71473,9.94112 30.78299,19.617561 1.81044,3.456528 1.78755,4.335066 -0.19153,7.355532 -3.18285,4.85765 -9.33057,7.003433 -17.39423,6.07123 -3.77128,-0.435982 -11.28993,-0.339996 -16.70811,0.213301 -10.0479,1.026079 -10.39661,1.256393 -13.4192,8.863139 l -1.41912,3.571428 -1.43222,-3.571428 c -0.78773,-1.964286 -3.02914,-5.056232 -4.98093,-6.87099 l -3.5487,-3.299563 -4.21826,5.117487 -4.21827,5.117486 -6.31317,-5.018344 c -7.01984,-5.580069 -8.45604,-6.065545 -8.45604,-2.858383 0,1.20323 -0.90196,2.533807 -2.00435,2.956835 -2.11556,0.811815 -12.88694,-4.085731 -14.4116,-6.552685 -1.63762,-2.649725 -3.58405,-1.497067 -3.58405,2.122443 0,2.167838 -0.81425,3.571428 -2.07187,3.571428 -1.13953,0 -2.69425,1.112126 -3.45493,2.471392 -1.28628,2.298454 -1.79187,2.241625 -7.22531,-0.812142 -6.71212,-3.77242 -12.47243,-3.710831 -11.82812,0.126457 0.52122,3.104243 -1.59767,3.241159 -4.06937,0.262947 -2.41267,-2.907085 -9.31509,-6.464914 -10.41278,-5.367227 -0.46926,0.46926 0.44326,2.673909 2.02782,4.899222 l 2.88102,4.046023 -3.28037,0.680642 c -5.75025,1.193119 -12.05611,1.719815 -13.76611,1.149813 l 0,7e-6 z m 16.4775,-23.93085 c -4.39975,-3.870731 -8.13462,-4.606138 -8.13462,-1.601732 0,2.214922 5.09601,5.000894 9.28572,5.076474 2.53402,0.04571 2.40384,-0.347254 -1.1511,-3.474742 z"
       id="path2984"
       inkscape:connector-curvature="0"
       transform="translate(50.741289,-23.106596)" />
    <path
       style="fill:#999999;fill-opacity:1;stroke:none"
       d="m 351.84312,641.31674 c -23.84025,-6.57296 -41.94869,-16.19358 -44.27469,-23.52218 -0.50482,-1.59052 -2.16024,-2.89187 -3.67872,-2.89187 -3.63473,0 -3.4915,0.8648 1.03056,6.22235 l 3.79144,4.49194 -3.37151,0.49508 c -5.17433,0.7598 -13.47884,-2.1912 -30.27015,-10.75646 -16.972,-8.65744 -20.24598,-11.7811 -21.66786,-20.67304 -0.86198,-5.39056 -0.52653,-6.47174 3.148,-10.14627 l 4.11279,-4.11279 4.51864,5.14645 c 5.25396,5.98392 5.60842,7.88667 1.6615,8.91882 -1.57143,0.41093 -2.85714,1.91198 -2.85714,3.33564 0,2.78407 3.58644,7.07828 5.91164,7.07828 0.78202,0 3.52892,1.60715 6.10423,3.57143 5.52569,4.21465 7.73394,4.47719 9.01186,1.07143 0.51594,-1.375 1.87383,-3.20176 3.01754,-4.05948 1.77209,-1.32894 1.5212,-2.38106 -1.69718,-7.11733 -4.00932,-5.90025 -4.99627,-12.03747 -1.93578,-12.03747 1.68437,0 19.80559,15.03995 23.1646,19.22576 0.78873,0.98288 3.03873,2.2888 5,2.90205 1.96127,0.61325 5.10004,2.63537 6.97504,4.49359 1.875,1.85823 3.99227,3.3786 4.70506,3.3786 0.71278,0 4.86594,3.59862 9.22925,7.99693 7.4364,7.49607 20.18689,14.86021 25.72939,14.86021 3.56216,0 0.47145,-2.99678 -16.52259,-16.02042 -23.5233,-18.02747 -32.18234,-26.05637 -44.92964,-41.66006 -19.0132,-23.27364 -19.71401,-24.93218 -12.18099,-28.82766 7.83316,-4.05068 8.9344,-3.20851 40.0337,30.6157 7.55358,8.21543 11.24101,10.61994 11.24101,7.33008 0,-0.78073 -4.37511,-6.40573 -9.72246,-12.5 -25.17229,-28.68836 -26.10293,-31.41658 -13.86472,-40.64523 9.33881,-7.04226 18.00953,-8.80824 36.8489,-7.50505 14.77736,1.0222 28.75766,4.43439 38.524,9.40262 4.01751,2.04375 5.35714,3.61106 5.35714,6.26762 0,4.286 0.64186,4.3686 5.32447,0.68526 4.55694,-3.58449 7.70513,-3.58449 17.90364,0 4.93543,1.73466 11.79116,2.85714 17.45049,2.85714 l 9.3214,0 0,6.80687 c 0,8.07438 -2.97226,14.21159 -13.76359,28.41947 -7.46918,9.83394 -14.19135,15.86634 -15.8416,14.21608 -0.43223,-0.43222 1.8382,-4.82287 5.0454,-9.757 9.77119,-15.0325 13.6763,-25.43987 10.3233,-27.51214 -1.81727,-1.12313 -26.91443,4.79315 -28.03684,6.60926 -1.33953,2.1674 0.13657,2.91717 7.34219,3.72935 l 6.63857,0.74826 -0.99659,7.97634 c -0.64638,5.17357 -2.16663,9.36688 -4.32641,11.93365 -1.83143,2.17651 -3.735,5.23378 -4.23017,6.79392 -1.05633,3.32822 -10.86179,7.98061 -22.64408,10.74395 -11.06364,2.59479 -12.16397,2.03013 -11.28253,-5.78997 0.39345,-3.49064 0.14961,-6.32222 -0.54186,-6.2924 -0.69147,0.0298 -3.03644,2.62579 -5.21103,5.76881 -5.21702,7.54035 -7.31605,8.11159 -13.53835,3.68436 -2.86647,-2.03953 -5.42493,-3.49505 -5.68548,-3.2345 -1.11923,1.11923 2.54268,7.83649 7.50047,13.75856 5.55923,6.6405 10.67717,16.8804 10.67717,21.36272 0,1.42223 -1.01686,2.97608 -2.2597,3.453 -2.80864,1.07777 -2.66231,1.09446 -11.31173,-1.29026 z m 35.62538,-67.2435 c 2.7641,-2.76411 1.44821,-5.76999 -1.46685,-3.35071 -1.83897,1.52621 -2.86051,5.60874 -1.40343,5.60874 0.33674,0 1.62836,-1.01612 2.87028,-2.25803 z"
       id="path2986"
       inkscape:connector-curvature="0"
       transform="translate(50.741289,-23.106596)" />
    <path
       style="fill:#4d4d4d;fill-opacity:1;stroke:none"
       d="m 232.60467,515.50888 c -1.22233,-1.29016 -1.6415,-2.19336 -1.6415,-3.53703 0,-0.99244 -1.04987,-4.97428 -2.33305,-8.84852 -1.28318,-3.87424 -2.18252,-7.19461 -1.99853,-7.37859 0.18399,-0.18399 1.51796,-0.91188 2.9644,-1.61753 3.46115,-1.68855 3.72398,-3.01192 0.94643,-4.76531 -2.4027,-1.51676 -5.46639,-6.24877 -9.36075,-14.45813 -5.39541,-11.37359 -6.59288,-17.0579 -6.29425,-29.87841 0.18332,-7.87046 0.66469,-10.51747 1.91263,-10.51747 0.24671,0 1.1512,0.59124 2.01,1.31387 2.21602,1.86466 3.06008,1.33407 3.06921,-1.92936 0.0104,-3.70843 1.25043,-8.59339 2.80764,-11.06016 1.58866,-2.51661 2.74074,-5.65594 2.74074,-7.46836 0,-0.73664 0.35381,-1.84449 0.78625,-2.46188 1.20719,-1.72351 3.24107,-1.43581 6.34678,0.89777 2.91459,2.18998 4.48372,2.57486 4.48372,1.09976 0,-0.5063 -0.98186,-2.9496 -2.18191,-5.42957 -3.36203,-6.94778 -4.344,-11.35336 -6.40876,-28.75269 -1.39607,-11.76445 -3.09189,-20.92895 -5.5747,-30.12671 -1.95098,-7.22753 -2.53291,-12.44042 -1.56004,-13.97466 0.23186,-0.36564 1.30798,-0.9655 2.39138,-1.33301 1.0834,-0.36751 2.26569,-1.20476 2.62732,-1.86057 1.0796,-1.95782 0.45195,-10.27695 -1.40405,-18.60996 -1.86821,-8.38787 -2.83084,-11.11922 -3.91884,-11.11922 -0.42219,0 -2.32804,1.47202 -4.23522,3.27116 -5.6761,5.35454 -9.3149,6.5819 -15.11121,5.09695 -6.20892,-1.59065 -14.98483,-7.33615 -15.76553,-10.32154 -0.51694,-1.97678 0.25739,-2.26517 5.14948,-1.91792 6.1272,0.43492 6.32008,-0.0675 1.81669,-4.73222 -1.86378,-1.93053 -3.29413,-3.79602 -3.17855,-4.14551 0.11557,-0.34949 1.31284,-1.31729 2.6606,-2.15067 2.44929,-1.5145 2.45379,-1.51516 9.35168,-1.36939 10.04337,0.21225 10.32097,-0.58706 2.90678,-8.36977 -4.83694,-5.07736 -6.17219,-7.34798 -5.63605,-9.58426 1.26289,-5.26767 3.13695,-5.47637 9.5657,-1.06524 6.53457,4.48373 9.93412,5.9931 13.49933,5.99359 4.70801,5e-4 9.36829,-3.0474 12.74126,-8.33336 2.55733,-4.00773 3.02634,-6.81992 2.99036,-17.93021 -0.0315,-9.74243 -0.0496,-9.9009 -1.66818,-14.64721 -1.41837,-4.15916 -1.67471,-5.70638 -1.92464,-11.61676 -0.32805,-7.75743 0.38155,-14.92716 1.8633,-18.82682 0.54343,-1.43021 2.57529,-5.3574 4.51523,-8.72709 4.02794,-6.99654 5.57994,-10.37781 5.57994,-12.15671 0,-0.80255 -0.72173,-1.9075 -2.04255,-3.12711 -1.79823,-1.66043 -2.09579,-2.26267 -2.48762,-5.03478 -0.54688,-3.86901 -1.08073,-5.5502 -3.80389,-11.97902 -3.22992,-7.6252 -3.91509,-11.20043 -4.17581,-21.78941 -0.26164,-10.62612 0.36527,-15.71128 3.10467,-25.18339 0.96396,-3.33312 2.12707,-7.53756 2.5847,-9.34321 1.5755,-6.216447 7.69055,-15.980953 11.65093,-18.604196 3.91099,-2.590537 14.61986,-5.706105 22.79706,-6.632431 2.53817,-0.287527 5.683,-0.980637 6.98851,-1.540245 3.00442,-1.287847 12.6381,-3.701872 19.03931,-4.770909 3.66342,-0.61181 5.40019,-0.690389 6.81853,-0.308499 1.0467,0.281824 5.88056,0.967869 10.74192,1.524546 10.79162,1.235754 13.66116,1.763416 15.78332,2.902295 3.71513,1.993772 39.86342,1.309625 49.65595,-0.939794 5.8669,-1.347673 8.10569,-1.048826 12.20411,1.629081 3.42091,2.235226 11.20306,9.922129 15.56645,15.375937 4.73263,5.915315 10.1624,14.393745 12.80246,19.990655 7.00377,14.848 13.12413,35.82985 13.34602,45.75289 0.0839,3.75056 -0.0202,4.24405 -1.14828,5.44665 -1.57842,1.68263 -5.69709,2.90293 -15.42701,4.57079 -15.58961,2.67231 -20.85037,5.55928 -21.72553,11.92244 -0.24877,1.80877 -0.80672,3.07697 -1.9031,4.32569 -1.38179,1.57377 -1.54232,2.08721 -1.47024,4.70259 0.11166,4.05128 2.08693,10.01997 6.27155,18.95076 6.4372,13.73824 14.54452,27.84814 14.92095,25.9683 0.0882,-0.44042 -0.63383,-2.9947 -1.60449,-5.67619 -0.97066,-2.68149 -1.97665,-6.04079 -2.23553,-7.46509 -0.41227,-2.2683 -0.3488,-2.71153 0.51152,-3.57184 0.9297,-0.9297 1.66206,-0.97382 13.70498,-0.82554 6.99753,0.0862 13.0395,0.043 13.42659,-0.0959 1.37483,-0.49332 9.24673,25.11442 11.48938,37.37564 1.11296,6.08484 1.285,23.92541 0.27519,28.53681 -0.99362,4.53749 -3.08358,10.74652 -4.71764,14.01559 -1.19222,2.38511 -1.59172,4.17743 -2.23617,10.0322 -0.84539,7.68029 -1.31239,9.53979 -2.39582,9.53979 -0.8843,0 -3.74029,-2.07348 -7.91697,-5.7478 -4.46853,-3.93107 -8.94847,-6.87911 -10.45373,-6.87911 -0.9016,0 -2.82259,1.52308 -6.93166,5.49582 -7.51265,7.26341 -8.59812,7.5662 -9.63717,2.68829 -0.45215,-2.12264 -0.6664,-2.39396 -2.01118,-2.54685 -2.18168,-0.24805 -4.2165,0.4719 -16.1015,5.69689 -15.83041,6.95951 -18.07818,7.55773 -24.88197,6.62197 -2.10987,-0.29018 -2.70915,-0.17493 -3.88024,0.74625 -3.18955,2.5089 -9.15494,13.28648 -8.84614,15.9822 0.28298,2.47037 -0.21949,2.56031 19.35652,-3.46477 3.6113,-1.11148 9.52069,-3.21889 13.13198,-4.68313 10.44415,-4.23471 13.11191,-4.49188 19.95052,-1.92327 3.88344,1.45863 5.41551,1.32773 10.28112,-0.87845 4.12222,-1.8691 7.14686,-2.34411 9.65515,-1.51629 2.36102,0.7792 3.50704,3.0679 2.78931,5.57047 -1.31177,4.57387 -4.85596,5.62525 -24.74589,7.34084 -10.33863,0.89175 -15.67699,1.81141 -17.51845,3.01799 -1.75446,1.14956 -3.23388,3.79186 -3.07453,5.4912 0.36724,3.91653 5.4178,5.04144 29.68435,6.61158 16.62415,1.07564 19.23382,1.73158 22.86059,5.74598 3.62577,4.01329 4.42188,7.06194 3.2077,12.28369 -2.0414,8.7794 -9.50434,18.98369 -16.57798,22.66756 -2.51655,1.31058 -2.69528,1.26842 -3.92906,-0.9268 -2.26002,-4.02116 -6.84198,-5.4893 -7.64843,-2.45069 -1.07775,4.06089 -7.95977,7.44057 -19.6311,9.64059 -14.80054,2.78988 -28.87921,1.59196 -42.02108,-3.57548 -8.62548,-3.39156 -13.68713,-6.27727 -19.8788,-11.33311 -1.95997,-1.60043 -4.34645,-3.24855 -5.3033,-3.66251 -0.95685,-0.41396 -3.62059,-2.48103 -5.91942,-4.59351 -2.29884,-2.11247 -4.41163,-3.84086 -4.6951,-3.84086 -0.28346,0 -1.58277,0.56821 -2.88735,1.26269 -2.84214,1.51299 -3.03292,1.51999 -7.05584,0.25882 -1.73835,-0.54497 -5.94311,-1.33775 -9.34391,-1.76174 -11.90291,-1.48398 -13.57953,-1.78324 -16.12447,-2.87804 l -2.56422,-1.1031 -1.32344,1.61016 c -2.11672,2.57528 -3.21351,2.21785 -11.53892,-3.76043 -2.84058,-2.03975 -6.59077,-4.3667 -8.33376,-5.17098 -1.74298,-0.80428 -5.55554,-3.33985 -8.47235,-5.6346 -2.91682,-2.29475 -5.98977,-4.46377 -6.82878,-4.82005 -1.85343,-0.78702 -2.62132,-1.64583 -4.83114,-5.40312 -1.80583,-3.0704 -2.98729,-3.72659 -2.98729,-1.65915 0,1.73497 1.18246,5.08071 4.29038,12.13949 1.46771,3.3335 3.15202,7.68869 3.74291,9.67819 1.50678,5.07332 3.6969,7.91226 17.52322,22.71445 3.36109,3.59832 6.7289,7.47601 7.48403,8.61709 1.06235,1.60531 1.79373,2.15086 3.23284,2.41138 2.44584,0.44278 10.33156,5.02924 21.55785,12.53836 5.00025,3.34461 10.22779,6.59811 11.61675,7.23001 5.83354,2.65393 13.56477,2.78652 26.21766,0.44961 8.18639,-1.51197 10.64339,-1.57221 12.7106,-0.31161 1.89061,1.1529 13.2806,10.52079 16.25133,13.36619 2.35527,2.2559 2.58985,3.225 1.26869,5.24135 -0.72488,1.10631 -0.85854,2.35418 -0.76689,7.16005 0.13332,6.99127 -0.35576,9.06347 -2.76977,11.7355 -3.0275,3.35108 -7.41456,5.12374 -19.71951,7.96797 l -6.00876,1.3889 -3.99522,-2.23507 c -13.42944,-7.51291 -18.03065,-10.16979 -21.2958,-12.29685 -2.31622,-1.50889 -5.69689,-3.06412 -9.19265,-4.22896 -6.26938,-2.08905 -10.68485,-4.59128 -19.73172,-11.18188 -8.26797,-6.02319 -26.87204,-16.91251 -27.61875,-16.16579 -0.47835,0.47834 0.69295,2.72217 2.69884,5.17009 2.7903,3.40521 20.18323,16.19515 28.46591,20.9325 4.02798,2.30384 11.53306,6.85225 16.67794,10.10759 5.14489,3.25533 14.63497,8.90411 21.08906,12.55285 6.4541,3.64873 13.60962,7.84357 15.90115,9.32185 5.89855,3.80521 7.11461,4.35847 9.56757,4.3529 3.00815,-0.007 5.79737,-1.41876 18.74281,-9.48772 6.16442,-3.84233 13.72156,-8.40614 16.79364,-10.14181 3.07207,-1.73567 8.18597,-5.09835 11.36421,-7.47261 9.32435,-6.96564 11.46466,-8.24827 13.76386,-8.24827 1.11114,0 4.48096,-0.79549 7.4885,-1.76776 3.00754,-0.97228 5.98384,-1.76692 6.61401,-1.76588 1.83038,0.003 4.2043,1.75526 4.87745,3.60018 1.52001,4.16592 2.30286,5.24098 3.74328,5.14057 0.95082,-0.0663 1.6165,0.26477 2.1405,1.06449 1.69049,2.58001 4.20084,24.19457 3.22181,27.74032 -0.93167,3.37423 -3.62048,2.98139 -5.44914,-0.79612 -1.26997,-2.6234 -1.3409,-5.00754 -0.28195,-9.47721 1.2233,-5.16336 1.09381,-9.09138 -0.2997,-9.09138 -0.83948,0 -1.51684,1.94934 -2.76041,7.94402 -2.15949,10.40984 -3.04573,12.25202 -6.80883,14.15307 -4.86694,2.4587 -8.9549,1.06027 -11.31209,-3.86971 l -1.10807,-2.31747 -3.52022,0.0426 c -7.38718,0.0893 -16.31153,3.38745 -24.47623,9.04558 -10.367,7.18434 -13.67399,7.91738 -25.00594,5.5429 -8.43996,-1.7685 -12.48062,-1.85446 -14.97776,-0.31861 -4.4631,2.74499 -6.28964,2.48401 -23.81591,-3.4029 l -10.5094,-3.53 -9.02452,2.46707 c -9.3344,2.55179 -15.72443,4.91669 -17.892,6.6217 -4.8799,3.83853 -8.15414,2.87391 -17.21952,-5.07307 -3.91381,-3.43096 -5.20221,-4.24741 -4.6319,-2.9352 0.15091,0.34723 1.11026,2.53012 2.13188,4.85084 2.11894,4.81341 2.11359,6.17645 -0.0405,10.29597 -1.39715,2.67198 -3.49604,5.47459 -7.84188,10.47111 l -2.64859,3.04515 -3.8386,-0.0495 c -3.68931,-0.0476 -3.90242,-0.11685 -5.48008,-1.78205 z M 409.49975,300.95244 c 0.56806,-3.22734 1.96225,-4.83544 4.19223,-4.83544 0.71198,0 3.19987,0.94833 5.52864,2.1074 5.82891,2.90116 11.73742,3.35842 12.49639,0.9671 0.16824,-0.53007 -0.16847,-3.744 -0.74823,-7.14206 -0.58212,-3.41187 -0.90633,-6.85117 -0.72406,-7.68104 0.18153,-0.82652 1.15087,-3.23115 2.15408,-5.34363 3.05406,-6.43099 2.77937,-12.36068 -0.75376,-16.27143 -2.33411,-2.58359 -3.54732,-2.61329 -3.98858,-0.0976 -1.64028,9.35127 -3.60291,14.38279 -6.38218,16.3618 -2.1803,1.55252 -5.22698,1.70791 -18.58518,0.94795 -12.72896,-0.72416 -14.97056,-0.49981 -20.65172,2.0669 -3.70507,1.67393 -5.89091,1.82904 -8.08702,0.57387 -2.18471,-1.24866 -3.34754,-0.43416 -3.29245,2.3062 0.0527,2.62023 2.11793,5.41625 4.95098,6.70278 3.00047,1.36258 8.15666,1.24703 14.69809,-0.32937 8.41132,-2.02702 9.6072,-1.49688 13.3968,5.93889 4.09169,8.02851 4.94265,8.57581 5.79597,3.72773 l 0,0 z M 425.4568,252.0051 c -0.8482,-1.77725 -1.88588,-3.51661 -2.30596,-3.86524 -2.10982,-1.751 0.296,6.02737 2.57106,8.31261 0.9424,0.94661 0.96098,0.94451 1.11771,-0.12669 0.0877,-0.59911 -0.5346,-2.54341 -1.38281,-4.32068 z m -80.05729,-24.97427 c 3.73924,-1.90929 9.70904,-9.08138 9.03062,-10.84933 -0.48238,-1.25706 0.65538,-3.22827 4.01871,-6.96258 1.8162,-2.01653 3.56294,-4.48367 3.88163,-5.48254 1.2314,-3.85942 5.7624,-6.87977 11.52404,-7.6819 3.72653,-0.5188 5.10935,-1.33948 7.49512,-4.44819 1.19643,-1.55898 1.6415,-2.66543 1.6415,-4.08079 0,-1.77361 -0.15408,-1.99272 -1.77824,-2.52874 -1.01172,-0.3339 -2.63986,-0.4413 -3.7771,-0.24917 -3.03261,0.51236 -4.79326,-0.0995 -8.4916,-2.95106 l -3.37819,-2.60469 -6.56599,0.0408 c -10.4891,0.0652 -31.6476,3.15971 -39.6362,5.79697 -1.79888,0.59386 -4.86722,1.94977 -6.81853,3.01313 -1.9513,1.06337 -4.86783,2.27301 -6.48116,2.68809 -4.00537,1.03051 -8.80006,4.25927 -14.36615,9.67421 -3.65993,3.56054 -4.67244,4.8467 -4.67195,5.93464 4.3e-4,0.97049 0.2594,1.38896 0.85955,1.38896 0.47241,0 4.58297,-1.71768 9.13456,-3.81707 8.98367,-4.14364 15.57895,-6.49342 20.40862,-7.27122 5.63407,-0.90734 5.07855,0.0181 -3.88525,6.47209 -6.52868,4.70072 -13.88996,11.52396 -13.88996,12.87474 0,1.65431 2.09783,0.77349 8.20331,-3.44432 13.24736,-9.15159 19.09187,-12.07444 23.56241,-11.78356 3.01096,0.19591 3.31352,1.35863 0.98529,3.78641 -2.27368,2.3709 -10.30346,7.62847 -15.57841,10.2001 -2.36123,1.15114 -5.81575,3.21552 -7.67672,4.58752 -5.4951,4.05128 -6.42489,6.57805 -2.42054,6.57805 2.90082,0 5.74969,-1.62408 9.89621,-5.64161 2.22727,-2.158 3.85469,-3.36174 4.29314,-3.1755 0.38837,0.16498 1.87197,1.82548 3.29688,3.69003 1.42492,1.86454 3.55522,4.05844 4.734,4.87534 3.95258,2.73914 12.39345,3.44271 16.4504,1.37118 l 0,0 z"
       id="path2992"
       inkscape:connector-curvature="0"
       transform="translate(50.741289,-23.106596)" />
    <path
       style="fill:#4d4d4d;fill-opacity:1;stroke:none"
       d="m 267.17994,579.9524 c -0.93565,-1.76786 -2.8341,-4.5 -4.21877,-6.07143 -1.38468,-1.57143 -5.78463,-6.56038 -9.77767,-11.08655 -6.92356,-7.84798 -9.3188,-13.92954 -5.47435,-13.8995 5.59885,0.0438 28.21429,13.86982 28.21429,17.24895 0,0.71969 -1.92857,1.30853 -4.28571,1.30853 -2.35715,0 -4.28572,0.45504 -4.28572,1.01119 0,0.55616 2.40613,3.4753 5.34696,6.48698 4.42275,4.52931 4.97833,5.70882 3.21428,6.82407 -3.57611,2.26085 -6.94427,1.55807 -8.73331,-1.82224 l 0,0 z"
       id="path2994"
       inkscape:connector-curvature="0"
       transform="translate(50.741289,-23.106596)" />
    <path
       style="fill:#4d4d4d;fill-opacity:1;stroke:none"
       d="m 238.25507,538.71697 c -2.11478,-3.01928 -1.72991,-6.97886 0.67835,-6.97886 2.06863,0 6.99002,5.5319 6.99002,7.85714 0,3.1902 -5.23898,2.59016 -7.66837,-0.87828 z"
       id="path2997"
       inkscape:connector-curvature="0"
       transform="translate(50.741289,-23.106596)" />
    <path
       style="fill:#4d4d4d;fill-opacity:1;stroke:none"
       d="m 211.00266,547.58057 c -1.52697,-2.47069 -5.33115,-23.20958 -4.42381,-24.11691 0.50061,-0.50061 2.00437,-0.22104 3.34168,0.62127 1.59645,1.00553 2.7873,4.42242 3.46758,9.94947 0.56985,4.6299 1.38567,9.86443 1.81293,11.63228 0.53662,2.22037 0.13188,3.21429 -1.30893,3.21429 -1.14717,0 -2.44742,-0.58518 -2.88945,-1.3004 z"
       id="path2999"
       inkscape:connector-curvature="0"
       transform="translate(50.741289,-23.106596)" />
    <path
       style="fill:#4d4d4d;fill-opacity:1;stroke:none"
       d="m 178.02747,560.24672 c -1.17946,-1.9084 2.75166,-7.94858 6.4674,-9.93718 2.51674,-1.34692 2.85714,-1.08641 2.85714,2.18651 0,2.04359 -0.66547,4.95906 -1.47883,6.47884 -1.58382,2.95939 -6.32749,3.72836 -7.84571,1.27183 z"
       id="path3001"
       inkscape:connector-curvature="0"
       transform="translate(50.741289,-23.106596)" />
    <path
       style="fill:#4d4d4d;fill-opacity:1;stroke:none"
       d="m 142.03774,560.01294 c -4.17893,-5.21698 -3.03881,-15.52797 1.92772,-17.43381 2.8422,-1.09065 3.8789,2.37318 3.01205,10.06387 -0.8314,7.37621 -2.70073,10.16517 -4.93977,7.36994 z"
       id="path3003"
       inkscape:connector-curvature="0"
       transform="translate(50.741289,-23.106596)" />
    <path
       style="fill:#4d4d4d;fill-opacity:1;stroke:none"
       d="m 417.35201,194.62819 c 0,-2.2274 6.38943,-5.80459 11.99176,-6.71372 7.10016,-1.1522 6.58605,1.44555 -1.01422,5.12478 -6.62381,3.20653 -10.97754,3.83671 -10.97754,1.58894 z"
       id="path3005"
       inkscape:connector-curvature="0"
       transform="translate(50.741289,-23.106596)" />
    <path
       style="fill:#4d4d4d;fill-opacity:1;stroke:none"
       d="m 200.9272,56.029903 c -1.32166,-2.138485 5.6934,-4.7851 9.89089,-3.731597 2.02223,0.507547 3.67678,1.478444 3.67678,2.15755 0,2.662051 -12.03251,4.057996 -13.56767,1.574047 z"
       id="path3007"
       inkscape:connector-curvature="0"
       transform="translate(50.741289,-23.106596)" />
    <path
       style="fill:#4d4d4d;fill-opacity:1;stroke:none"
       d="m 183.26378,90.858499 c -5.16007,-3.614254 -1.60117,-5.634816 4.67726,-2.655507 2.84424,1.349684 5.52035,3.018658 5.9469,3.708831 1.3573,2.196149 -7.19553,1.348186 -10.62416,-1.053324 z"
       id="path3009"
       inkscape:connector-curvature="0"
       transform="translate(50.741289,-23.106596)" />
    <path
       style="fill:#4d4d4d;fill-opacity:1;stroke:none"
       d="m 146.13617,129.75063 c 2.08129,-1.96604 4.0478,-4.36553 4.37002,-5.33221 0.8638,-2.59139 3.98868,-0.11328 3.98868,3.16312 0,2.90967 -0.61602,3.28842 -7.85714,4.83082 l -4.28572,0.91288 3.78416,-3.57461 0,0 z"
       id="path3011"
       inkscape:connector-curvature="0"
       transform="translate(50.741289,-23.106596)" />
    <path
       style="fill:#4d4d4d;fill-opacity:1;stroke:none"
       d="m 200.20915,210.68879 c -3.29366,-1.26615 -11.42857,-7.71287 -11.42857,-9.05686 0,-0.65761 2.41921,-0.3421 5.37602,0.70112 2.95681,1.04322 8.09966,2.35692 11.42857,2.91934 3.50364,0.59194 6.05256,1.80775 6.05256,2.88702 0,3.11416 -6.30232,4.52002 -11.42858,2.54938 z"
       id="path3013"
       inkscape:connector-curvature="0"
       transform="translate(50.741289,-23.106596)" />
    <path
       style="fill:#4d4d4d;fill-opacity:1;stroke:none"
       d="m 178.13342,289.72255 c -0.9456,-1.76686 -0.96567,-15.07315 -0.0265,-17.54344 0.42866,-1.12745 1.03766,-1.67452 1.52725,-1.37193 0.78236,0.48353 8.10393,15.29528 8.59326,17.38441 0.15257,0.65141 -0.78731,1.33659 -2.61917,1.90939 -4.27292,1.33609 -6.62091,1.21722 -7.47487,-0.37843 z"
       id="path3015"
       inkscape:connector-curvature="0"
       transform="translate(50.741289,-23.106596)" />
    <path
       style="fill:#4d4d4d;fill-opacity:1;stroke:none"
       d="m 135.05981,345.72127 c -1.46619,-0.99631 -2.66581,-2.10574 -2.66581,-2.4654 0,-0.35966 2.16964,-2.10113 4.82143,-3.86994 2.65179,-1.76881 6.19561,-4.25842 7.87517,-5.53246 l 3.05373,-2.31644 1.50719,1.50719 1.50718,1.50718 -1.55023,2.50833 c -1.80484,2.92028 -9.75055,10.473 -11.01794,10.473 -0.4757,0 -2.06452,-0.81516 -3.53072,-1.81146 z"
       id="path3017"
       inkscape:connector-curvature="0"
       transform="translate(50.741289,-23.106596)" />
    <path
       style="fill:#4d4d4d;fill-opacity:1;stroke:none"
       d="m 155.25114,346.18847 c 0,-0.39286 0.32143,-0.91294 0.71429,-1.15574 0.39286,-0.2428 0.71429,-0.12002 0.71429,0.27284 0,0.39285 -0.32143,0.91293 -0.71429,1.15573 -0.39286,0.2428 -0.71429,0.12003 -0.71429,-0.27283 z"
       id="path3019"
       inkscape:connector-curvature="0"
       transform="translate(50.741289,-23.106596)" />
    <path
       style="fill:#4d4d4d;fill-opacity:1;stroke:none"
       d="m 146.92777,247.92364 c -2.66869,-2.66869 -2.60955,-3.6788 0.37347,-6.37839 1.91058,-1.72905 3.47629,-1.06527 4.76555,2.02036 0.80692,1.93124 0.85751,2.87514 0.22814,4.25646 -1.27044,2.78832 -2.65423,2.81451 -5.36716,0.10157 z"
       id="path3021"
       inkscape:connector-curvature="0"
       transform="translate(50.741289,-23.106596)" />
    <path
       style="fill:#4d4d4d;fill-opacity:1;stroke:none"
       d=""
       id="path3023"
       inkscape:connector-curvature="0"
       transform="translate(50.741289,-23.106596)" />
    <path
       style="fill:#4d4d4d;fill-opacity:1;stroke:none"
       d="m 143.96543,232.38988 c -1.15726,-1.15726 -1.08864,-3.42858 0.10358,-3.42858 1.34617,0 3.56259,2.60912 2.99567,3.52642 -0.62271,1.00756 -2.03855,0.96286 -3.09925,-0.0978 z"
       id="path3025"
       inkscape:connector-curvature="0"
       transform="translate(50.741289,-23.106596)" />
    <path
       style="fill:#4d4d4d;fill-opacity:1;stroke:none"
       d="m 229.53686,166.10416 c 0,-3.18213 1.89911,-5.71428 4.28571,-5.71428 2.12409,0 1.88422,3.63459 -0.42064,6.37376 -2.59742,3.08687 -3.86507,2.87058 -3.86507,-0.65948 z"
       id="path3027"
       inkscape:connector-curvature="0"
       transform="translate(50.741289,-23.106596)" />
    <path
       style="fill:#4d4d4d;fill-opacity:1;stroke:none"
       d="m 200.25114,158.893 c 0,-2.37951 6.97073,-8.19906 8.26757,-6.90223 0.63874,0.63875 -2.31869,5.29664 -4.19937,6.61392 -1.78714,1.25176 -4.0682,1.41342 -4.0682,0.28831 z"
       id="path3029"
       inkscape:connector-curvature="0"
       transform="translate(50.741289,-23.106596)" />
    <path
       style="fill:#4d4d4d;fill-opacity:1;stroke:none"
       d="m 178.5468,137.15492 c -0.60065,-0.60066 -0.89716,-1.60011 -0.65889,-2.22101 0.3462,-0.90219 1.23668,-1.06181 4.43393,-0.79478 2.2004,0.18377 4.96502,0.7251 6.14359,1.20294 2.06063,0.83547 2.08965,0.90788 0.75634,1.88688 -1.91692,1.40752 -9.24424,1.3567 -10.67497,-0.074 z"
       id="path3031"
       inkscape:connector-curvature="0"
       transform="translate(50.741289,-23.106596)" />
    <path
       style="fill:#4d4d4d;fill-opacity:1;stroke:none"
       d="m 200.96543,123.22251 c -0.92738,-0.62054 -0.88501,-0.85915 0.31509,-1.77478 1.75855,-1.3417 3.32555,-1.3417 5.0841,0 1.20011,0.91563 1.24247,1.15424 0.3151,1.77478 -1.37625,0.92088 -4.33804,0.92088 -5.71429,0 l 0,0 z"
       id="path3033"
       inkscape:connector-curvature="0"
       transform="translate(50.741289,-23.106596)" />
    <path
       style="fill:#4d4d4d;fill-opacity:1;stroke:none"
       d="m 191.67972,116.10416 c -0.78572,-0.78571 -1.42858,-1.75 -1.42858,-2.14286 0,-0.93714 3.28535,-0.91765 5.05604,0.03 1.11713,0.59787 1.24346,1.0194 0.6422,2.14286 -0.95723,1.7886 -2.46164,1.77804 -4.26966,-0.03 z"
       id="path3035"
       inkscape:connector-curvature="0"
       transform="translate(50.741289,-23.106596)" />
    <path
       style="fill:#4d4d4d;fill-opacity:1;stroke:none"
       d="m 179.71543,123.48825 c -2.68522,-1.08351 0.96044,-4.10548 4.45484,-3.69272 2.51483,0.29704 4.08201,2.45841 2.50945,3.46088 -1.11711,0.71214 -5.41908,0.85534 -6.96429,0.23184 z"
       id="path3037"
       inkscape:connector-curvature="0"
       transform="translate(50.741289,-23.106596)" />
    <path
       style="fill:#4d4d4d;fill-opacity:1;stroke:none"
       d="m 193.99762,278.86092 c -1.4495,-1.72262 -1.85947,-2.89544 -1.69585,-4.85138 0.26939,-3.22034 1.80069,-3.39778 3.54518,-0.41081 1.49753,2.56413 2.00884,6.84114 0.86645,7.24779 -0.44228,0.15744 -1.66439,-0.73608 -2.71578,-1.9856 z"
       id="path3039"
       inkscape:connector-curvature="0"
       transform="translate(50.741289,-23.106596)" />
    <path
       style="fill:#4d4d4d;fill-opacity:1;stroke:none"
       d="m 151.81558,348.23564 c -0.47662,-0.77121 3.59518,-5.57911 4.20689,-4.9674 0.6164,0.61641 -1.15966,3.98619 -2.56279,4.86246 -0.74054,0.46247 -1.39722,0.50439 -1.6441,0.10494 z"
       id="path3041"
       inkscape:connector-curvature="0"
       transform="translate(50.741289,-23.106596)" />
    <path
       style="fill:#4d4d4d;fill-opacity:1;stroke:none"
       d="m 201.15654,397.61073 c -0.48568,-0.78584 3.45035,-4.56759 4.08911,-3.92883 0.81195,0.81195 0.54801,2.2271 -0.63626,3.41136 -1.22588,1.22589 -2.86336,1.47129 -3.45285,0.51747 z"
       id="path3043"
       inkscape:connector-curvature="0"
       transform="translate(50.741289,-23.106596)" />
    <path
       style="fill:#4d4d4d;fill-opacity:1;stroke:none"
       d="m 195.35885,453.19007 c -0.52295,-0.84615 3.20561,-6.95295 5.4817,-8.97818 l 1.52096,-1.35332 -0.36946,4.74687 c -0.20319,2.61077 -0.58884,5.10184 -0.85698,5.53571 -0.61689,0.99815 -5.16575,1.03667 -5.77622,0.0489 l 0,10e-6 z"
       id="path3045"
       inkscape:connector-curvature="0"
       transform="translate(50.741289,-23.106596)" />
    <path
       style="fill:#4d4d4d;fill-opacity:1;stroke:none"
       d=""
       id="path3047"
       inkscape:connector-curvature="0"
       transform="translate(50.741289,-23.106596)" />
    <path
       style="fill:#4d4d4d;fill-opacity:1;stroke:none"
       d="m 235.0078,521.60857 c -0.005,-0.49107 -0.20356,-1.61607 -0.44045,-2.5 -0.40806,-1.52269 -0.22927,-1.60573 3.40261,-1.58032 l 3.83331,0.0268 -2.85714,2.46255 c -3.07425,2.64968 -3.92302,2.99255 -3.93833,1.59095 z"
       id="path3049"
       inkscape:connector-curvature="0"
       transform="translate(50.741289,-23.106596)" />
    <path
       style="fill:#999999;fill-opacity:1;stroke:none"
       d="m 376.79408,623.75143 c -0.40107,-0.91416 -1.47508,-1.71022 -2.49081,-1.8462 -3.09101,-0.4138 -3.12657,-1.38017 -0.10747,-2.9204 5.28218,-2.69477 17.25033,-4.75115 17.25033,-2.96398 0,1.04794 -4.85934,4.778 -9.32601,7.15871 -2.24854,1.19846 -4.2081,2.17901 -4.3546,2.17901 -0.14649,0 -0.58364,-0.72321 -0.97144,-1.60714 z"
       id="path3051"
       inkscape:connector-curvature="0"
       transform="translate(50.741289,-23.106596)" />
    <path
       style="fill:#4d4d4d;fill-opacity:1;stroke:none"
       d="m 524.87039,556.24026 c -0.69448,-0.28023 -1.26269,-1.60805 -1.26269,-2.95071 0,-1.74402 0.56062,-2.4412 1.96303,-2.4412 2.09319,0 5.37467,3.80211 4.50122,5.21538 -0.56338,0.91156 -3.16144,0.99973 -5.20156,0.17653 z"
       id="path3053"
       inkscape:connector-curvature="0"
       transform="translate(50.741289,-23.106596)" />
    <path
       style="fill:#4d4d4d;fill-opacity:1;stroke:none"
       d="m 583.05095,581.91046 c -0.85352,-0.69444 -3.76225,-4.21731 -6.46385,-7.82861 -2.7016,-3.61129 -8.68454,-11.24617 -13.29542,-16.9664 -10.50102,-13.0275 -11.76607,-14.96702 -11.02385,-16.90123 1.61602,-4.21127 12.79708,6.96883 20.97756,20.97573 2.35083,4.02518 6.23568,9.72664 8.633,12.6699 4.61456,5.66543 4.78848,6.06252 3.52612,8.05061 -0.64135,1.01006 -1.11214,1.01006 -2.35356,0 l 0,0 z"
       id="path3055"
       inkscape:connector-curvature="0"
       transform="translate(50.741289,-23.106596)" />
    <path
       style="fill:#4d4d4d;fill-opacity:1;stroke:none"
       d="m 110.45531,566.70289 c 0,-4.39335 4.18885,-18.99058 8.06027,-28.08829 3.16676,-7.44178 10.59669,-19.08098 12.18042,-19.08098 1.3718,0 1.35378,0.0752 -2.49272,10.39817 -1.90589,5.11489 -5.08818,14.30006 -7.07176,20.41148 -5.34196,16.45855 -10.67621,24.63246 -10.67621,16.35962 z"
       id="path3057"
       inkscape:connector-curvature="0"
       transform="translate(50.741289,-23.106596)" />
    <path
       style="fill:#4d4d4d;fill-opacity:1;stroke:none"
       d="m 431.82797,608.35029 c -1.72998,-2.79916 5.50691,-12.71257 9.91298,-13.57922 4.76862,-0.93796 8.829,8.59564 5.41361,12.71093 -2.9593,3.56574 -13.2975,4.15143 -15.32659,0.86829 z"
       id="path3063"
       inkscape:connector-curvature="0"
       transform="translate(50.741289,-23.106596)" />
    <path
       style="fill:#999999;fill-opacity:1;stroke:none"
       d="m 231.88436,513.01571 c -1.14309,-1.34669 -1.75829,-4.03952 -1.36709,-5.98406 0.3912,-1.94454 -0.16352,-3.53553 -1.2327,-3.53553 -2.94997,0 -1.78675,-6.75594 1.62087,-9.41398 2.64087,-2.05994 2.59653,-2.79277 -0.36706,-6.0675 -7.55784,-8.35131 -13.7083,-25.62719 -13.72852,-38.56168 -0.0157,-10.11119 0.60934,-12.62691 3.13772,-12.62691 1.83043,0 2.96967,-1.48591 2.71065,-3.53553 -0.24574,-1.94455 1.58,-8.08005 4.0572,-13.63444 3.79936,-8.51896 4.8133,-9.54618 6.48111,-6.56599 1.08741,1.94309 2.78087,3.53291 3.76324,3.53291 2.26181,0 0.41468,-10.89165 -1.99224,-11.74729 -0.98339,-0.34957 -1.32251,-1.8486 -0.75359,-3.33118 0.56891,-1.48256 0.14861,-3.24299 -0.93398,-3.9121 -1.08261,-0.66908 -1.49667,-3.02029 -0.92015,-5.22491 0.57652,-2.20462 0.3607,-5.61299 -0.4796,-7.57414 -0.8403,-1.96115 -1.33829,-5.97568 -1.10664,-8.92121 0.23165,-2.94552 -0.50731,-5.92933 -1.64214,-6.6307 -1.13482,-0.70135 -1.54674,-2.62136 -0.91538,-4.26668 0.63137,-1.64532 0.14498,-4.19997 -1.08086,-5.67702 -1.22584,-1.47706 -1.69108,-3.22327 -1.03387,-3.88048 0.65721,-0.6572 0.46329,-2.37874 -0.43093,-3.82563 -2.11937,-3.4292 -1.01639,-16.10949 1.68682,-19.39228 2.5641,-3.11387 0.51733,-23.37507 -2.46164,-24.36805 -1.13834,-0.37945 -1.55583,-1.52141 -0.92774,-2.53766 0.62809,-1.01626 0.27645,-1.84776 -0.78141,-1.84776 -1.05787,0 -2.49663,1.49384 -3.19725,3.31963 -0.70062,1.82579 -1.85066,2.7428 -2.55564,2.03782 -0.70499,-0.70497 -2.27458,-0.51184 -3.48798,0.42919 -3.3373,2.5882 -11.29757,4.16761 -11.29757,2.24159 0,-1.52424 -6.76034,-4.64636 -10.6066,-4.89845 -2.98618,-0.19577 -1.17099,-4.18199 2.89527,-6.35818 3.54537,-1.89743 3.67719,-2.39772 0.91139,-3.45907 -5.77448,-2.21587 -1.23525,-7.00278 7.94604,-8.3796 4.92549,-0.73862 8.95543,-1.83785 8.95543,-2.44275 0,-0.60488 -2.27285,-3.8009 -5.05077,-7.10228 -8.13827,-9.67179 -5.46301,-15.76007 3.83317,-8.72339 2.10825,1.59581 4.60837,2.42238 5.55584,1.83682 0.94747,-0.58557 1.72267,-0.10188 1.72267,1.07487 0,1.17674 2.27285,2.13953 5.05077,2.13953 2.77791,0 5.05076,-1.06066 5.05076,-2.35702 0,-1.29636 0.5982,-1.75882 1.32934,-1.02768 1.82702,1.82703 6.97516,-2.70077 5.60025,-4.92543 -0.60893,-0.98527 -0.0907,-1.79139 1.15163,-1.79139 1.24232,0 1.69689,-0.90914 1.01015,-2.02031 -0.68674,-1.11116 -0.28582,-2.0203 0.89092,-2.0203 2.84855,0 2.77419,-20.34933 -0.10103,-27.64768 -2.51999,-6.39663 -2.94727,-19.78478 -0.82629,-25.89041 0.772,-2.22233 3.64579,-8.6975 6.38622,-14.38926 l 4.98258,-10.34866 -4.11646,-7.32901 c -2.26404,-4.03096 -3.71774,-7.32902 -3.23043,-7.32902 0.48731,0 -0.37427,-3.57203 -1.91462,-7.93785 -2.81686,-7.98383 -4.42668,-32.88475 -2.49087,-38.52916 1.89517,-5.52591 6.86616,-21.16552 7.69017,-24.194616 0.44606,-1.639775 3.08387,-4.805139 5.86179,-7.034138 2.77792,-2.229 5.33679,-4.700126 5.68637,-5.491392 0.34958,-0.791265 1.94057,-0.9379 3.53553,-0.325856 1.59496,0.612045 2.89993,0.134936 2.89993,-1.06024 0,-1.195177 1.32017,-1.666452 2.93372,-1.047278 1.61354,0.619174 4.06775,0.424891 5.45381,-0.431741 1.38606,-0.856631 4.38429,-1.699798 6.66274,-1.873704 7.69889,-0.587632 19.29492,-3.428997 19.29492,-4.72782 0,-0.709713 4.54569,-1.290387 10.10153,-1.290387 5.55583,0 10.10152,0.750372 10.10152,1.667492 0,0.917121 2.50067,1.405188 5.55705,1.084593 3.05638,-0.320595 6.46565,-0.0626 7.57615,0.57332 5.24495,3.003489 50.54494,2.655065 54.54702,-0.419546 1.11117,-0.853658 2.47487,-1.815124 3.03046,-2.136592 1.52953,-0.88501 10.14306,6.359477 18.1263,15.245301 3.92014,4.36334 8.94579,9.928364 11.16812,12.366714 2.22234,2.43835 4.33608,5.68688 4.69721,7.21894 0.36113,1.53207 1.50321,3.09051 2.53797,3.46321 1.03476,0.37269 1.36748,1.50911 0.73939,2.52538 -0.62807,1.01626 -0.12552,1.84775 1.11681,1.84775 1.24232,0 1.73899,0.84101 1.10371,1.86891 -1.05979,1.7148 2.45222,11.92605 4.91609,14.29353 0.57819,0.55558 1.34027,3.73756 1.69348,7.07107 0.35321,3.3335 1.28825,6.7232 2.07784,7.53266 2.58908,2.65423 0.096,17.72115 -2.93227,17.72115 -1.55004,0 -2.81824,0.82402 -2.81824,1.83116 0,1.00715 -1.71567,1.38251 -3.8126,0.83415 -2.09694,-0.54836 -4.39889,-0.0484 -5.11548,1.11106 -0.71656,1.15944 -2.5738,1.62036 -4.1272,1.02427 -4.96615,-1.90569 -16.76924,5.16814 -18.35421,11.00006 -2.62573,9.66146 -2.94934,16.52418 -0.77915,16.52418 1.16738,0 1.59948,0.84632 0.96019,1.88071 -0.6393,1.03438 -0.22354,2.46091 0.92387,3.17005 1.14741,0.70915 1.56317,2.13567 0.92386,3.17006 -0.63928,1.03439 -0.14588,1.88071 1.09644,1.88071 1.24233,0 1.6969,0.90913 1.01016,2.0203 -0.68675,1.11117 -0.23218,2.02031 1.01015,2.02031 1.24233,0 1.74219,0.83584 1.11082,1.85742 -0.63138,1.02159 -0.004,3.0888 1.39599,4.59379 1.39917,1.505 2.83326,4.07842 3.18687,5.71872 0.3536,1.64029 2.10231,5.23663 3.886,7.99185 2.3764,3.67073 3.50038,4.23764 4.20583,2.12132 0.52948,-1.5885 -0.0317,-3.21965 -1.24713,-3.62479 -1.21544,-0.40514 -1.7444,-1.94963 -1.17548,-3.4322 0.56892,-1.48256 0.0632,-3.29576 -1.12365,-4.02931 -2.45257,-1.51578 -2.94409,-5.26 -0.6428,-4.89664 0.83337,0.13158 2.42436,0.0508 3.53553,-0.17953 4.81744,-0.99856 22.37361,0.38879 23.92104,1.89032 0.93371,0.90604 3.86624,9.24745 6.51672,18.53647 5.54056,19.41779 6.25123,38.61378 1.95385,52.77622 -1.60598,5.29271 -2.9817,10.06132 -3.05714,10.59688 -0.81237,5.76686 -2.74974,13.11503 -3.45783,13.11503 -0.49084,0 -3.87226,-2.27284 -7.51431,-5.05076 -8.20284,-6.2566 -10.73073,-6.28741 -18.3101,-0.22312 -5.11903,4.09576 -6.3275,4.37154 -8.16206,1.86264 -1.84348,-2.52112 -4.40256,-2.05146 -17.7825,3.26362 -8.596,3.4147 -18.87253,6.20854 -22.83672,6.20854 -5.50853,0 -7.4567,0.95251 -8.26426,4.04061 -0.58115,2.22234 -1.77081,4.04061 -2.64368,4.04061 -0.87287,0 -2.53306,2.71375 -3.68931,6.03059 -1.94937,5.59194 -1.78006,5.97024 2.32774,5.20089 2.43651,-0.45632 4.88459,-1.00213 5.44017,-1.21287 0.55559,-0.21074 1.91929,-0.53146 3.03046,-0.71268 7.25291,-1.18299 15.15229,-3.78595 15.15229,-4.99292 0,-1.8129 3.39156,-2.25416 22.88266,-2.97708 9.96758,-0.3697 16.39282,-1.52683 17.3841,-3.13077 1.20863,-1.95561 2.39343,-1.72336 5.12056,1.00377 3.38391,3.38391 3.37963,3.67126 -0.0925,6.2102 -2.00236,1.46415 -6.49734,2.66209 -9.98885,2.66209 -3.49153,0 -7.00306,0.65486 -7.80345,1.45523 -0.80038,0.80038 -4.49663,1.19321 -8.21391,0.87295 -3.71726,-0.32026 -7.36787,0.40341 -8.11246,1.60818 -0.74458,1.20475 -2.09707,1.73108 -3.00556,1.1696 -0.90849,-0.56146 -2.75423,0.30749 -4.10165,1.93103 -4.30618,5.18864 2.25266,8.99726 17.49643,10.15995 31.46132,2.3996 39.98055,6.78873 36.32341,18.71392 -1.116,3.63904 -5.15946,10.27356 -8.98545,14.74338 -6.37723,7.45034 -7.24398,7.86662 -10.41124,5.00032 -4.74971,-4.29844 -7.01203,-3.9382 -11.3236,1.80316 -2.03617,2.71139 -4.36007,4.52316 -5.16421,4.02616 -0.80416,-0.49699 -4.03853,0.11435 -7.18748,1.35852 -7.42607,2.93409 -28.57923,2.33638 -40.10817,-1.13333 -4.97957,-1.49862 -9.06769,-2.13189 -9.0847,-1.40727 -0.017,0.72463 -0.70748,0.25398 -1.53435,-1.04589 -0.82688,-1.29986 -2.71224,-2.66357 -4.18969,-3.03046 -1.47744,-0.36688 -5.45745,-3.19394 -8.84446,-6.28234 -3.387,-3.0884 -6.60084,-5.17262 -7.14186,-4.63159 -0.54102,0.54102 -2.55431,-0.95598 -4.47397,-3.32667 -2.86064,-3.53275 -5.82342,-4.35129 -16.42302,-4.53736 -7.113,-0.12486 -13.83902,-0.78251 -14.94672,-1.46145 -2.0072,-1.23029 -11.20604,-2.42863 -13.12568,-1.70991 -3.84221,1.43854 -8.08122,1.45773 -8.08122,0.0366 0,-0.93239 -5.34765,-4.94379 -11.88367,-8.91421 -6.53603,-3.97043 -14.71826,-10.11824 -18.18275,-13.66179 -4.16873,-4.26385 -6.29909,-5.40211 -6.29909,-3.36557 0,1.6925 0.62952,3.70678 1.39893,4.47619 0.76942,0.76942 1.70151,3.38161 2.07133,5.80486 0.36982,2.42326 1.78586,5.11332 3.14675,5.97793 1.3609,0.86459 1.77404,1.58591 0.91808,1.60293 -3.14681,0.0626 6.82882,16.23636 12.68435,20.56555 3.32449,2.4579 6.04453,5.50317 6.04453,6.76725 0,3.19091 9.08318,11.42883 10.75648,9.75553 0.75094,-0.75095 1.36535,-0.25104 1.36535,1.11091 0,1.36195 0.90914,1.91438 2.0203,1.22764 1.11117,-0.68675 2.02031,-0.23218 2.02031,1.01015 0,1.24232 0.90914,1.69689 2.0203,1.01015 1.11117,-0.68674 2.02031,-0.3638 2.02031,0.71763 0,2.31347 20.056,15.06198 23.73858,15.08934 1.38896,0.0101 2.52539,0.84463 2.52539,1.85401 0,1.06699 7.47047,1.25085 17.84568,0.43922 l 17.84569,-1.39605 7.74501,6.80022 c 4.25976,3.74011 8.24074,6.34564 8.84663,5.79005 1.02884,-0.94342 1.0483,13.11637 0.0283,20.46317 -0.25126,1.80981 -3.4873,4.47962 -7.19119,5.93291 -3.70389,1.4533 -6.73435,3.35328 -6.73435,4.22217 0,0.8689 -1.27174,1.09182 -2.8261,0.49534 -1.55436,-0.59645 -3.42127,-0.12142 -4.14869,1.05551 -0.905,1.46434 -3.46902,1.24315 -8.1208,-0.70048 -3.73901,-1.56226 -7.32693,-2.31175 -7.97314,-1.66554 -0.64621,0.64621 -1.17493,0.1234 -1.17493,-1.16182 0,-2.7603 -35.31563,-20.93646 -37.138,-19.11408 -0.68629,0.68627 -1.2478,0.30793 -1.2478,-0.84077 0,-1.14871 -3.63654,-4.4951 -8.08122,-7.43644 -4.44467,-2.94134 -8.08122,-4.88043 -8.08122,-4.30909 0,0.57136 -1.85143,-0.81261 -4.1143,-3.07547 -2.26286,-2.26288 -4.99027,-3.57293 -6.06091,-2.91124 -1.07064,0.66169 -1.94662,0.39182 -1.94662,-0.59975 0,-0.99154 -1.3146,-1.80282 -2.92133,-1.80282 -2.22275,0 -2.44007,0.89926 -0.90879,3.76048 1.1069,2.06826 2.88249,3.22283 3.94576,2.5657 1.06326,-0.65714 2.49532,0.27006 3.18235,2.06043 1.3251,3.45317 24.98628,20.40692 24.98628,17.90322 0,-0.80936 1.13643,0.0162 2.52539,1.83399 1.38896,1.81807 3.88579,3.58283 5.54853,3.92168 1.66273,0.33886 3.93557,1.70257 5.05076,3.03045 1.11519,1.32791 3.31556,2.69162 4.88971,3.03046 1.57416,0.33887 4.56201,2.24026 6.63968,4.22533 2.07767,1.98509 4.65356,3.06785 5.7242,2.40616 1.07064,-0.66169 1.94662,-0.45269 1.94662,0.46445 0,0.91714 5.03256,4.67763 11.18347,8.35667 11.30605,6.76244 23.16171,9.91628 23.16171,6.16148 0,-1.12395 0.87598,-1.50215 1.94662,-0.84046 1.07064,0.66169 3.64653,-0.42108 5.7242,-2.40617 2.07767,-1.98507 5.06552,-3.88646 6.63968,-4.22532 1.57415,-0.33885 3.77452,-1.70256 4.88971,-3.03046 1.11518,-1.32789 3.38803,-2.69159 5.05076,-3.03046 1.66273,-0.33884 4.15957,-2.1036 5.54853,-3.92167 1.38896,-1.81806 2.52538,-2.59195 2.52538,-1.71975 0,0.87219 4.59245,-1.71354 10.20543,-5.74607 5.613,-4.03253 13.11338,-7.89733 16.66752,-8.58842 3.55414,-0.6911 7.03662,-2.13005 7.73886,-3.19763 0.7165,-1.08931 3.15446,-0.0634 5.55584,2.33799 2.35347,2.35348 3.59721,4.29299 2.76384,4.31 -0.83338,0.0162 -0.37123,0.75721 1.02696,1.64485 3.61636,2.29586 7.87456,20.42656 6.48653,27.61864 -1.00332,5.19877 -1.35948,5.48616 -2.5039,2.02031 -0.73382,-2.22234 -1.54022,-7.85022 -1.79202,-12.50642 -0.56404,-10.43049 -2.50487,-9.6177 -5.50741,2.30638 -2.93453,11.65411 -9.39266,15.84782 -14.56615,9.45883 -3.48721,-4.30652 -13.95367,-6.07122 -13.95367,-2.35265 0,1.07628 -1.3637,1.43359 -3.03045,0.794 -1.66676,-0.6396 -3.03046,-0.10283 -3.03046,1.19279 0,1.29562 -0.90914,1.79381 -2.02031,1.10707 -1.11116,-0.68674 -2.0203,-0.23217 -2.0203,1.01015 0,1.24233 -0.90914,1.6969 -2.02031,1.01015 -1.11116,-0.68674 -2.0203,-0.13435 -2.0203,1.22764 0,1.36195 -0.55445,1.92182 -1.2321,1.24415 -0.67766,-0.67765 -4.5415,0.85503 -8.5863,3.40599 -5.09087,3.21065 -8.59773,4.15168 -11.3948,3.05767 -5.6258,-2.2004 -23.23351,-2.25236 -23.23351,-0.0685 0,1.97653 -6.47011,1.97228 -8.08122,-0.006 -2.25337,-2.76523 -23.01257,-7.44818 -29.46998,-6.64725 -8.6631,1.07448 -23.05796,6.73517 -23.05796,9.06739 0,2.62856 -10.47517,-1.86258 -15.64939,-6.70953 -2.49575,-2.3379 -5.01728,-3.77116 -5.6034,-3.18505 -1.53502,1.53503 1.13803,7.70492 3.33808,7.70492 1.02082,0 0.45056,2.71787 -1.26724,6.03974 -1.7178,3.32187 -2.87757,6.46471 -2.57726,6.98411 1.04794,1.81246 -7.56739,7.05058 -11.57582,7.0381 -2.22233,-0.006 -4.97587,-1.11444 -6.11897,-2.46114 l 0,0 z M 410.73941,300.21983 c 0,-2.42372 1.17241,-2.93225 4.54569,-1.97168 12.55846,3.57612 15.60783,3.67702 16.80546,0.55603 0.66569,-1.73473 0.3022,-4.77679 -0.80773,-6.76014 -1.33328,-2.38245 -1.34027,-4.87253 -0.0206,-7.33836 2.80586,-5.24279 3.86525,-19.60556 1.44609,-19.60556 -1.10238,0 -1.44243,-0.90914 -0.75569,-2.02031 0.68674,-1.11116 -0.13375,-2.0203 -1.82321,-2.0203 -1.88074,0 -3.92642,3.17375 -5.27588,8.18526 -1.21222,4.50189 -3.29284,8.54909 -4.62355,8.9938 -2.38711,0.79769 -36.53821,3.12557 -45.33464,3.09017 -4.59046,-0.0182 -5.35904,3.9218 -1.85897,9.53027 1.80808,2.89724 14.67399,3.44318 16.37262,0.69474 1.96671,-3.1822 9.12516,0.0796 13.4239,6.11659 4.60076,6.46116 7.90652,7.52712 7.90652,2.54949 z m 16.16245,-46.35062 c 0,-1.73233 -0.92397,-2.57865 -2.05326,-1.88071 -1.12929,0.69794 -1.53022,2.1153 -0.89092,3.14969 1.73187,2.80225 2.94418,2.27974 2.94418,-1.26898 z m -3.03046,-4.93153 c 0.68674,-1.11117 0.28583,-2.02031 -0.89092,-2.02031 -1.17674,0 -2.13954,0.90914 -2.13954,2.02031 0,1.11117 0.40091,2.0203 0.89091,2.0203 0.49001,0 1.45281,-0.90913 2.13955,-2.0203 z m -74.54384,-25.03979 c 4.80613,-4.81357 9.9583,-13.59385 9.31314,-15.87139 -0.23607,-0.83338 0.49941,-1.51523 1.6344,-1.51523 1.13499,0 3.06641,-2.20089 4.29205,-4.89087 1.31118,-2.87774 3.3723,-4.45193 5.00745,-3.82446 1.52846,0.58653 2.77902,0.0885 2.77902,-1.10664 0,-1.19518 1.26938,-1.68594 2.82084,-1.09059 3.16468,1.2144 9.77064,-6.89611 7.97858,-9.79574 -0.63465,-1.02688 -2.83616,-1.42715 -4.89223,-0.88947 -2.05608,0.53767 -4.7839,-0.28225 -6.06182,-1.82206 -1.27793,-1.5398 -3.12963,-2.30143 -4.1149,-1.69251 -0.98526,0.60893 -1.79139,0.0287 -1.79139,-1.28943 0,-2.55334 -12.91984,-1.61452 -38.38579,2.78931 -2.77792,0.48039 -6.57682,0.98946 -8.44199,1.13127 -1.86518,0.1418 -4.81987,1.68648 -6.56599,3.4326 -1.74612,1.74612 -3.17477,2.63191 -3.17477,1.96842 0,-1.882 -12.61888,4.96181 -17.67767,9.58744 -4.60985,4.21513 -6.09663,9.51304 -2.66969,9.51304 1.0318,0 3.30465,-1.42865 5.05076,-3.17477 1.74613,-1.74612 3.17477,-2.66262 3.17477,-2.03666 0,0.62595 3.67427,-0.33205 8.16504,-2.1289 11.11891,-4.44891 11.90671,-2.44935 2.13035,5.40715 -4.48534,3.60452 -7.64899,7.37267 -7.03034,8.37367 1.16977,1.89273 18.45101,-7.09498 21.99058,-11.43697 1.13856,-1.39666 3.69643,-1.89322 5.85391,-1.13642 3.23556,1.13498 2.37136,2.2668 -5.55405,7.27404 -5.1622,3.26146 -9.38745,6.66543 -9.38944,7.56438 -0.002,0.89896 -0.79124,1.14768 -1.75391,0.55272 -2.31367,-1.42993 -9.42592,6.50294 -7.53001,8.39884 0.80842,0.80843 4.83558,-0.46719 8.94923,-2.83471 l 7.47937,-4.30457 5.47422,4.70872 c 6.89478,5.93064 17.09631,5.99281 22.94028,0.13978 l 0,1e-5 z"
       id="path3024"
       inkscape:connector-curvature="0"
       transform="translate(50.741289,-23.106596)" />
    <path
       style="fill:#999999;fill-opacity:1;stroke:none"
       d="m 420.84094,192.36914 c 1.66675,-1.07714 4.39416,-1.95844 6.06092,-1.95844 2.69374,0 2.69374,0.21761 0,1.95844 -1.66676,1.07713 -4.39417,1.95843 -6.06092,1.95843 -2.69374,0 -2.69374,-0.21761 0,-1.95843 z"
       id="path3026"
       inkscape:connector-curvature="0"
       transform="translate(50.741289,-23.106596)" />
    <path
       style="fill:#999999;fill-opacity:1;stroke:none"
       d="m 417.78749,194.72436 c 0,-2.63209 8.46649,-6.64074 14.05795,-6.65605 2.83572,-0.008 2.60921,0.71886 -0.95578,3.06604 -3.61532,2.38032 -7.52825,3.98466 -10.60809,4.34942 -2.28685,0.27085 -2.49408,0.20775 -2.49408,-0.75941 z m 7.55766,-1.43452 c 3.85586,-1.58787 4.45411,-3.53341 0.90197,-2.93328 -3.84021,0.64879 -7.79717,2.79548 -7.1332,3.86981 0.3556,0.57536 3.82671,0.0537 6.23123,-0.93653 z"
       id="path3028"
       inkscape:connector-curvature="0"
       transform="translate(50.741289,-23.106596)" />
    <path
       style="fill:#999999;fill-opacity:1;stroke:none"
       d="m 241.26333,540.83982 c -2.04071,-1.03657 -3.16424,-2.46321 -3.80038,-4.82566 -0.59331,-2.20338 0.002,-3.99491 1.32647,-3.99491 1.99862,0 6.76706,5.31841 6.76706,7.54755 0,0.90792 -1.32501,2.05365 -2.36591,2.04579 -0.2266,-0.002 -1.09386,-0.34946 -1.92724,-0.77277 z"
       id="path3034"
       inkscape:connector-curvature="0"
       transform="translate(50.741289,-23.106596)" />
    <path
       style="fill:#999999;fill-opacity:1;stroke:none"
       d="m 212.33709,548.35807 c -1.11478,-0.46475 -1.98266,-2.78408 -3.18444,-8.51014 -0.64134,-3.05571 -1.29282,-5.66948 -1.44775,-5.80837 -0.15492,-0.1389 -0.30099,-1.04804 -0.32459,-2.02031 -0.0236,-0.97227 -0.22886,-3.33531 -0.45615,-5.2512 l -0.41325,-3.48343 1.46348,0.36731 c 0.80492,0.20202 1.76199,0.61505 2.12684,0.91785 1.03488,0.85888 2.0554,3.69146 2.65462,7.3683 0.30155,1.85029 0.68144,3.7051 0.84421,4.12178 0.16276,0.41669 0.26178,0.99095 0.22005,1.27613 -0.0417,0.28518 0.22208,2.10345 0.58628,4.04061 0.9537,5.07278 0.83931,7.03428 -0.41718,7.15337 -0.55558,0.0527 -1.29904,-0.0247 -1.65212,-0.1719 l 0,0 z"
       id="path3036"
       inkscape:connector-curvature="0"
       transform="translate(50.741289,-23.106596)" />
    <path
       style="fill:#999999;fill-opacity:1;stroke:none"
       d="m 270.0136,582.32708 c -1.02355,-0.45324 -2.5158,-2.13202 -4.36996,-4.91619 -1.5486,-2.32536 -4.25843,-5.7011 -6.02183,-7.50165 -1.76341,-1.80054 -3.43348,-3.65084 -3.71127,-4.11177 -0.27779,-0.46093 -2.07316,-2.73795 -3.98971,-5.06004 -3.58137,-4.33919 -6.07275,-8.84827 -5.75134,-10.40918 0.33621,-1.63274 4.04475,-0.93547 9.67981,1.81998 8.32893,4.07272 19.7755,12.01079 19.76422,13.70627 -0.005,0.72162 -0.56592,0.87396 -6.69726,1.81816 -0.90283,0.13903 -1.6415,0.44893 -1.6415,0.68867 0,0.64524 4.3898,5.91786 5.67851,6.82051 0.61174,0.42848 0.92449,0.77905 0.695,0.77905 -0.22948,0 0.28816,0.8034 1.15031,1.78534 1.86349,2.1224 1.95753,2.98989 0.43113,3.97719 -1.77783,1.14992 -3.52568,1.3522 -5.21611,0.60366 z"
       id="path3038"
       inkscape:connector-curvature="0"
       transform="translate(50.741289,-23.106596)" />
    <path
       style="fill:#999999;fill-opacity:1;stroke:none"
       d="m 433.94993,609.42141 c -1.27525,-0.63706 -1.81221,-1.2692 -1.92728,-2.2689 -0.22804,-1.98115 2.13053,-6.0109 5.23851,-8.9503 4.12156,-3.898 6.68345,-4.0284 9.04465,-0.46039 0.94963,1.43499 1.47173,3.00272 1.64823,4.94919 0.23165,2.55465 0.11779,3.01592 -1.10242,4.46606 -2.41819,2.87386 -9.27322,4.07696 -12.90169,2.26434 z"
       id="path3040"
       inkscape:connector-curvature="0"
       transform="translate(50.741289,-23.106596)" />
    <path
       style="fill:#999999;fill-opacity:1;stroke:none"
       d="m 178.36883,289.29722 c -0.27091,-0.71256 -0.49257,-4.42883 -0.49257,-8.25838 0,-6.57947 0.59746,-10.45869 1.52273,-9.88684 0.61557,0.38044 4.1314,7.03976 6.53525,12.37837 1.72789,3.8374 1.98986,4.79844 1.44559,5.30316 -1.04087,0.96523 -3.88815,1.75927 -6.30845,1.75927 -1.90752,0 -2.27738,-0.17731 -2.70255,-1.29558 z"
       id="path3048"
       inkscape:connector-curvature="0"
       transform="translate(50.741289,-23.106596)" />
    <path
       style="fill:#999999;fill-opacity:1;stroke:none"
       d="m 195.46692,279.96771 c -2.18281,-1.27369 -3.63891,-5.67728 -2.48161,-7.50499 1.11402,-1.75937 3.51075,1.7785 3.97098,5.86169 0.25007,2.21858 -0.0106,2.50618 -1.48937,1.6433 z"
       id="path3050"
       inkscape:connector-curvature="0"
       transform="translate(50.741289,-23.106596)" />
  </g>
  <metadata
     id="metadata7">
    <rdf:RDF>
      <cc:Work>
        <dc:format>image/svg+xml</dc:format>
        <dc:type
           rdf:resource="http://purl.org/dc/dcmitype/StillImage" />
        <cc:license
           rdf:resource="http://creativecommons.org/licenses/publicdomain/" />
        <dc:publisher>
          <cc:Agent
             rdf:about="http://openclipart.org/">
            <dc:title>Open Clip Art Library</dc:title>
          </cc:Agent>
        </dc:publisher>
        <dc:title>Mihai Eminescu</dc:title>
        <dc:date>2010-11-24T19:28:06</dc:date>
        <dc:description />
        <dc:source>http://openclipart.org/detail/98143/mihai-eminescu-by-ovideva</dc:source>
        <dc:creator>
          <cc:Agent>
            <dc:title>ovideva</dc:title>
          </cc:Agent>
        </dc:creator>
        <dc:subject>
          <rdf:Bag>
            <rdf:li>Eminescu</rdf:li>
            <rdf:li>Mihai</rdf:li>
            <rdf:li>black and white</rdf:li>
            <rdf:li>clip art</rdf:li>
            <rdf:li>clipart</rdf:li>
            <rdf:li>head</rdf:li>
            <rdf:li>poet</rdf:li>
            <rdf:li>poetry</rdf:li>
            <rdf:li>romanian</rdf:li>
          </rdf:Bag>
        </dc:subject>
      </cc:Work>
      <cc:License
         rdf:about="http://creativecommons.org/licenses/publicdomain/">
        <cc:permits
           rdf:resource="http://creativecommons.org/ns#Reproduction" />
        <cc:permits
           rdf:resource="http://creativecommons.org/ns#Distribution" />
        <cc:permits
           rdf:resource="http://creativecommons.org/ns#DerivativeWorks" />
      </cc:License>
    </rdf:RDF>
  </metadata>
</svg>
