<?xml version="1.0" encoding="UTF-8" standalone="no"?>
<!-- Created with Inkscape (http://www.inkscape.org/) -->

<svg
   xmlns:dc="http://purl.org/dc/elements/1.1/"
   xmlns:cc="http://creativecommons.org/ns#"
   xmlns:rdf="http://www.w3.org/1999/02/22-rdf-syntax-ns#"
   xmlns:svg="http://www.w3.org/2000/svg"
   xmlns="http://www.w3.org/2000/svg"
   xmlns:sodipodi="http://sodipodi.sourceforge.net/DTD/sodipodi-0.dtd"
   xmlns:inkscape="http://www.inkscape.org/namespaces/inkscape"
   id="svg3020"
   version="1.1"
   inkscape:version="0.48.4 r9939"
   width="294.19632"
   height="266.32031"
   sodipodi:docname="Genre.svg"
   inkscape:export-filename="Genre.png"
   inkscape:export-xdpi="19.578762"
   inkscape:export-ydpi="19.578762">
  <metadata
     id="metadata3026">
    <rdf:RDF>
      <cc:Work
         rdf:about="">
        <dc:format>image/svg+xml</dc:format>
        <dc:type
           rdf:resource="http://purl.org/dc/dcmitype/StillImage" />
        <dc:title></dc:title>
      </cc:Work>
    </rdf:RDF>
  </metadata>
  <defs
     id="defs3024" />
  <sodipodi:namedview
     pagecolor="#ffffff"
     bordercolor="#666666"
     borderopacity="1"
     objecttolerance="10"
     gridtolerance="10"
     guidetolerance="10"
     inkscape:pageopacity="0"
     inkscape:pageshadow="2"
     inkscape:window-width="1366"
     inkscape:window-height="744"
     id="namedview3022"
     showgrid="false"
     fit-margin-top="0"
     fit-margin-left="0"
     fit-margin-right="0"
     fit-margin-bottom="0"
     inkscape:zoom="2.189781"
     inkscape:cx="150.99066"
     inkscape:cy="139.79665"
     inkscape:window-x="0"
     inkscape:window-y="24"
     inkscape:window-maximized="1"
     inkscape:current-layer="svg3020" />
  <path
     style="fill:#808080"
     d="m 167.01671,262.83508 c -1.87551,-1.925 -3.6287,-3.5 -3.89597,-3.5 -0.26728,0 -2.05994,0.675 -3.98367,1.5 -6.52726,2.79923 -8.07903,1.05175 -4.04237,-4.5522 l 2.14023,-2.97122 -4.08881,-4.27614 c -4.84014,-5.06188 -5.32233,-7.22057 -1.40953,-6.31026 9.23002,2.14736 8.61177,2.37025 9.58881,-3.45696 1.42113,-8.47584 3.71477,-7.50187 6.19934,2.63246 0.95918,3.91243 1.18739,4.10089 6.05456,5 2.78179,0.51387 5.23143,1.48719 5.44364,2.16291 0.2122,0.67573 -1.55711,2.43314 -3.93181,3.90537 l -4.31764,2.67676 1.30802,4.46091 c 2.10956,7.19448 0.25817,8.19181 -5.0648,2.72837 z m 1.72013,-5.92243 c -0.34535,-3.03621 -0.0209,-3.6228 2.87493,-5.1981 l 3.26421,-1.77567 -3.44311,-0.60937 c -4.90748,-0.86853 -5.54981,-1.49401 -6.4181,-6.24967 l -0.77499,-4.24476 -0.52764,4 c -0.52195,3.95689 -0.57141,3.99913 -4.58962,3.91966 l -4.06197,-0.0803 2.35696,1.90291 c 2.53877,2.04969 2.97773,4.69875 1.30894,7.8992 -0.94452,1.81141 -0.85461,1.9037 0.91023,0.93425 2.94509,-1.61775 5.48122,-1.30288 7.44498,0.92431 0.9699,1.1 1.82667,2 1.90395,2 0.0773,0 -0.0347,-1.54009 -0.24877,-3.42243 z m -83.008406,1.61821 c 0,-0.44232 1.27318,-2.86478 2.82928,-5.38325 l 2.82928,-4.57904 -2.34213,-1.09531 c -1.28818,-0.60241 -2.34214,-1.77138 -2.34214,-2.59769 0,-1.39171 1.38785,-1.99954 6.29834,-2.75842 1.20539,-0.18629 2.24955,-1.49653 2.82024,-3.53894 1.08668,-3.88898 4.512226,-4.63892 4.536396,-0.99313 0.0225,3.39451 1.10782,4.36092 4.83217,4.30282 4.61111,-0.0719 4.85108,2.34081 0.51782,5.20637 -2.96718,1.96218 -3.41632,2.78387 -3.41632,6.25 0,4.56541 -1.98882,5.3886 -4.715276,1.9517 -1.61208,-2.03214 -1.62925,-2.02887 -5.02762,0.95936 -3.22502,2.83579 -6.82004,4.03529 -6.82004,2.27553 z m 10.98907,-8.19578 c 0.86893,0 2.04612,0.7875 2.61597,1.75 0.850606,1.43674 0.932536,1.27803 0.45767,-0.88657 -0.42882,-1.95471 -0.007,-3.18314 1.631756,-4.75 l 2.21018,-2.11343 -2.08388,0 c -1.14613,0 -2.530766,-0.7875 -3.076946,-1.75 -0.93481,-1.64731 -0.99482,-1.64843 -1.02271,-0.019 -0.0174,1.01575 -1.07428,2.00006 -2.55793,2.38225 -1.86534,0.48053 -2.18469,0.87385 -1.21786,1.50001 1.07094,0.69358 0.98311,1.44339 -0.48061,4.10264 -1.76227,3.2017 -1.76104,3.22609 0.0768,1.51905 1.02726,-0.95419 2.5787,-1.7349 3.44763,-1.7349 z M 59.800608,235.94862 c -7.708697,-3.56186 -11.450653,-11.45019 -11.438651,-24.11354 0.01202,-12.68121 3.524972,-19.62384 11.704562,-23.13168 7.84263,-3.36333 15.408791,0.66419 20.150867,10.72645 l 3.270608,6.93993 3.07892,-8.26735 c 2.89953,-7.78568 6.95585,-22.56842 6.95585,-25.34976 0,-0.69437 -1.64412,-1.8101 -3.65359,-2.47941 -10.439239,-3.47705 -21.736395,-14.88304 -29.066215,-29.34623 -2.623865,-5.17741 -5.047291,-9.23799 -5.385393,-9.02352 -0.338102,0.21447 -0.883135,1.76739 -1.211185,3.45092 -0.709826,3.64279 -10.645381,29.48179 -13.917133,36.19373 -5.223424,10.71578 -11.828597,15.00061 -19.749252,12.81152 -11.1612755,-3.08473 -16.4290375,-23.28983 -9.582397,-36.75437 4.191725,-8.24342 11.110818,-10.52493 19.151007,-6.31489 3.308194,1.73225 4.653664,3.32181 6.854237,8.09771 l 2.738046,5.94237 2.066427,-5.74771 c 3.993774,-11.10858 10.470374,-33.44514 12.684874,-43.74771 1.984943,-9.234614 5.151336,-30.897072 6.283556,-42.988142 0.905367,-9.668473 1.428122,-12.048177 2.70162,-12.298424 2.012995,-0.395561 2.50684,1.557314 3.854988,15.244273 2.496075,25.341199 11.177407,44.220153 28.50333,61.985053 l 8.721776,8.94277 -0.56815,12.55723 c -0.92655,20.4784 -5.686106,41.35269 -13.351656,58.55724 -4.2733,9.59099 -14.193866,24.8152 -17.461247,26.79622 -3.92556,2.38008 -9.783433,2.95872 -13.335799,1.31732 z m 11.003163,-3.56092 c 3.977247,-2.4891 12.122053,-14.88466 17.405653,-26.48961 7.76116,-17.04671 11.941456,-35.15812 12.826326,-55.57097 l 0.5422,-12.50796 -7.877846,-7.86861 C 76.920372,113.19053 67.820751,93.745602 64.865975,68.335076 63.867833,59.751248 63.50224,58.200852 63.42425,62.22105 c -0.05746,2.962285 -1.469083,14.212285 -3.136924,25 -4.437909,28.70471 -17.381652,73.61403 -21.216999,73.61403 -0.80364,0 -1.839346,-1.96347 -2.5491,-4.83253 -1.405797,-5.68269 -3.82287,-9.3137 -8.266001,-12.41747 -4.231288,-2.95578 -6.972407,-2.83928 -10.790986,0.45863 -7.130201,6.15799 -9.0084035,19.25972 -4.185139,29.19416 5.684382,11.70808 15.223864,12.05232 22.148446,0.79924 3.787279,-6.15468 11.406247,-24.59774 14.897237,-36.06141 3.302404,-10.8444 4.023076,-12.64062 5.071602,-12.64062 0.487854,0 2.463603,3.40747 4.390553,7.57215 8.927766,19.29542 19.992844,31.16153 33.005105,35.39444 2.82375,0.91857 3.65359,1.70959 3.65359,3.48274 0,4.24516 -4.65965,20.97798 -8.32185,29.88379 -4.74422,11.53706 -7.223129,12.60228 -8.610079,3.69988 -1.186454,-7.61545 -8.590082,-15.033 -15.004782,-15.033 -2.696186,0 -4.249045,0.87747 -7.551609,4.26719 -5.023756,5.15632 -6.701684,10.61048 -6.070641,19.73281 1.042275,15.06703 10.700216,23.82088 19.917098,18.05262 z M 58.643172,203.13508 c -1.507147,-1.54692 -1.507147,-6.05308 0,-7.6 0.643031,-0.66 2.528283,-1.2 4.189448,-1.2 3.685416,0 5.358595,1.56121 5.358595,5 0,3.43879 -1.673179,5 -5.358595,5 -1.661165,0 -3.546417,-0.54 -4.189448,-1.2 z m 6.138028,-3.8 c 0,-1.56144 -0.629393,-2.59702 -1.707954,-2.81021 -1.928594,-0.38122 -3.182797,2.01323 -2.296391,4.38412 0.929216,2.4854 4.004345,1.27672 4.004345,-1.57391 z M 18.718632,154.22147 c -1.643548,-0.62403 -2.164795,-1.62429 -2.164795,-4.15417 0,-4.02999 1.469052,-5.73222 4.947012,-5.73222 3.415685,0 5.002098,2.10161 4.618794,6.11876 -0.238622,2.50082 -0.877485,3.40378 -2.773133,3.91949 -1.354696,0.36855 -3.437241,0.30021 -4.627878,-0.15186 z m 4.619816,-3.34259 c 1.460604,-1.80636 0.522626,-3.5438 -1.91316,-3.5438 -1.00847,0 -2.116416,0.46971 -2.462103,1.0438 -0.646032,1.07289 1.148369,3.9562 2.462103,3.9562 0.404633,0 1.265555,-0.65529 1.91316,-1.4562 z m 65.300006,-0.68783 c -11.632234,-5.92849 -20.888549,-18.34862 -27.29171,-36.62003 -1.780706,-5.08124 -2.030825,-7.06391 -1.324604,-10.5 0.49909,-2.4283 1.427537,-4.235944 2.17568,-4.235944 0.72273,0 2.747273,3.669374 4.537193,8.223414 1.777671,4.52287 4.666954,10.82287 6.420629,14 4.220263,7.64583 13.899682,17.32805 20.774192,20.78019 5.50968,2.76676 5.53573,2.80097 5.24435,6.88848 -0.38439,5.39244 -2.30417,5.65919 -10.53573,1.46389 z m 8.29432,-1.93535 c 0,-0.77699 -2.11695,-2.58621 -4.70432,-4.02048 -12.309552,-6.82364 -21.762685,-19.01811 -28.537889,-36.81367 l -1.365458,-3.58647 0.532204,3.69927 c 0.708705,4.92609 5.642419,17.06074 9.343388,22.98039 3.823086,6.11498 13.045495,14.87835 18.518155,17.59641 4.63139,2.30025 6.21392,2.33706 6.21392,0.14455 z m 27.280126,87.247 c -12.50819,-6.14767 -17.4892,-24.37191 -10.52174,-38.4964 2.51259,-5.09355 11.41527,-7.19509 18.18377,-4.2924 5.13459,2.20198 7.43946,6.00906 7.43946,12.28816 0,6.99977 -2.00566,11.79484 -5.76898,13.79228 -3.44732,1.82972 -3.66909,2.64062 -1.29462,4.73375 2.90757,2.56307 5.25687,2.94161 7.76941,1.25189 3.91925,-2.63575 5.14529,-7.25278 5.08868,-19.16278 -0.0463,-9.73395 -1.81461,-24.53055 -3.08782,-25.83736 -0.2755,-0.28278 -2.42212,-0.0595 -4.77023,0.4961 -9.33574,2.20911 -24.94667,0.42873 -30.81873,-3.51478 -1.73332,-1.16405 -2.19215,-2.40924 -2.19215,-5.94913 0,-5.29243 0.44205,-5.40606 9.58613,-2.46405 6.74316,2.16954 16.0974,2.5699 21.83473,0.93452 2.90416,-0.82781 3.65358,-1.52586 3.65358,-3.40314 0,-3.65237 -9.2629,-35.77716 -11.63038,-40.33546 -0.51066,-0.98321 -1.3232,-0.76429 -3.40678,0.9179 -3.57809,2.8888 -5.42293,7.60813 -5.42293,13.87255 0,6.98021 -2.0169,7.65148 -6.88738,2.29228 -5.89639,-6.48804 -8.03834,-17.24053 -5.33542,-26.78357 1.32238,-4.66891 2.7256,-6.90376 7.06502,-11.25218 l 5.4149,-5.426134 -1.2588,-3.914837 c -0.69233,-2.153158 -1.58856,-3.914833 -1.99161,-3.914833 -1.06105,0 -9.30769,12.093764 -12.34795,18.108364 -1.42775,2.82453 -3.08849,7.66815 -3.690536,10.76358 -1.33306,6.85389 -3.15087,7.60035 -7.26098,2.98161 -3.50651,-3.94044 -4.32113,-7.71511 -3.67264,-17.01771 0.55475,-7.958054 2.6847,-12.81869 12.277246,-28.017217 3.29817,-5.225654 5.99667,-10.160293 5.99667,-10.965865 0,-0.805572 -3.28713,-9.256915 -7.304716,-18.780762 -10.1787,-24.12893 -12.3737,-30.648315 -12.53209,-37.221655 -0.12102,-5.0223026 0.17366,-5.9447894 2.65382,-8.3075127 3.08906,-2.94280102 8.60335,-3.75732952 12.481386,-1.8436555 1.24623,0.6149705 5.31,2.5262875 9.03061,4.247371 9.10002,4.2094921 14.18757,8.7098142 17.87603,15.8126912 9.30108,17.911102 7.48689,38.701679 -5.01411,57.461792 l -2.47955,3.721031 2.52837,7.028969 2.52838,7.028969 7.89673,7.89e-4 c 6.67999,6.67e-4 8.79745,0.442136 13.74247,2.865151 10.39943,5.095624 17.08381,14.310784 20.60726,28.409394 3.70534,14.82641 -0.11398,27.82078 -11.96794,40.71819 l -6.4415,7.00852 1.33682,8.24898 c 0.76904,4.7455 1.33681,15.5436 1.33681,25.42422 0,15.66032 -0.17324,17.41352 -1.96407,19.87675 -5.06718,6.96972 -19.44565,10.45859 -27.26463,6.61563 z m 17.57753,-3.04728 c 6.33653,-2.95424 8.90177,-6.89444 9.64885,-14.8205 0.67146,-7.12393 -0.54059,-24.73045 -2.54923,-37.03092 l -1.18083,-7.23109 7.35626,-7.76891 c 9.59355,-10.13172 11.74279,-14.47622 12.29846,-24.86028 0.85755,-16.0252 -6.1451,-30.93931 -17.82596,-37.96539 -5.30212,-3.189244 -13.68702,-4.922654 -18.07549,-3.736744 -6.0873,1.645004 -6.11472,1.614634 -10.77409,-11.932239 l -1.96934,-5.72573 2.40548,-3.27427 c 3.7554,-5.111766 8.36099,-14.758274 9.92355,-20.785145 4.6355,-17.879311 -1.70033,-37.857222 -14.53892,-45.843544 -6.73778,-4.1912779 -15.90801,-8.0908759 -19.099206,-8.1218466 -3.25966,-0.031635 -7.78436,4.3803345 -7.78436,7.5904166 0,3.913513 4.12341,15.637169 12.660666,35.996786 4.28968,10.229997 7.79942,19.56984 7.79942,20.755204 0,1.185365 -1.90516,5.075405 -4.23369,8.644534 -10.727696,16.443241 -13.271916,21.609634 -14.440246,29.322948 -1.22532,8.08961 -0.44807,11.88435 3.11144,15.19066 1.71223,1.59044 1.84527,1.46462 2.83111,-2.67771 0.56894,-2.39061 2.34498,-7.04657 3.946736,-10.34657 3.10573,-6.39852 13.37468,-21.500004 14.61993,-21.500004 1.27333,0 2.59345,2.30367 4.25669,7.428139 2.29548,7.072455 2.09643,7.866545 -2.894,11.544975 -10.08581,7.43421 -12.07299,21.95819 -4.57599,33.44512 l 2.66399,4.08177 0.76558,-5.29677 c 1.23049,-8.51344 5.16126,-14.31289 10.64792,-15.70993 2.54494,-0.64801 2.61949,-0.50811 7.02106,13.17587 4.95767,15.41277 8.43104,28.87194 8.43104,32.66989 0,1.99614 -0.74315,2.77222 -3.65358,3.81547 -4.96242,1.77879 -20.8808,1.47755 -26.9911,-0.51078 -5.17495,-1.68396 -5.95801,-1.56782 -5.08963,0.75485 0.96296,2.57566 5.02715,4.60056 12.46143,6.20863 6.60654,1.42903 7.90382,1.41794 15.8099,-0.13515 4.79505,-0.94195 8.97613,-1.31074 9.43246,-0.832 0.45081,0.47296 1.5074,5.64267 2.34796,11.48826 3.01036,20.93502 1.39397,35.34024 -4.30487,38.36499 -4.51698,2.39746 -8.53378,1.91445 -11.77899,-1.41641 -3.84698,-3.94849 -3.70014,-6.69216 0.46733,-8.73193 5.42051,-2.65307 7.68935,-10.44489 4.75531,-16.33108 -2.0986,-4.21015 -5.24702,-5.97949 -10.67511,-5.99917 -12.27652,-0.0445 -16.24567,19.66322 -6.57981,32.67024 5.16186,6.94613 15.13326,9.26706 23.35187,5.43536 z M 119.99989,204.4649 c -0.7759,-0.50491 -1.16425,-2.19283 -0.97429,-4.23468 0.27061,-2.90892 0.7193,-3.44241 3.133,-3.72522 4.27492,-0.50087 6.11683,4.01748 2.95899,7.25865 -1.70551,1.75052 -3.19224,1.95424 -5.1177,0.70125 z m 3.48215,-4.71329 c -0.92845,-0.95296 -2.78987,0.5906 -2.09794,1.7397 0.41127,0.683 0.95623,0.66575 1.65595,-0.0524 0.57362,-0.58876 0.77252,-1.34803 0.44199,-1.68727 z m 22.20137,-35.66653 c -0.21443,-0.6875 -1.10437,-3.95 -1.97766,-7.25 -0.87328,-3.3 -3.53387,-12.20071 -5.91244,-19.77936 -2.37856,-7.57864 -4.32466,-14.49866 -4.32466,-15.37781 0,-2.26191 6.99898,-1.01088 12.34991,2.2075 4.85502,2.92011 9.13639,10.94876 9.83863,18.44995 0.48945,5.22831 -2.36034,16.68972 -5.15926,20.74972 -1.69456,2.45807 -4.19761,2.97796 -4.81452,1 z m 5.42644,-9.31141 c 3.34923,-9.76656 1.37499,-21.05186 -4.6622,-26.65045 -1.57864,-1.46395 -8.139,-4.78814 -9.4495,-4.78814 -0.23663,0 1.06436,4.8375 2.89109,10.75 1.82674,5.9125 4.27063,14.2503 5.43085,18.52844 1.16024,4.27814 2.55651,7.62551 3.10284,7.43859 0.54634,-0.18691 1.75545,-2.56221 2.68692,-5.27844 z M 109.5339,57.585076 C 106.81378,51.013602 99.370734,29.040665 97.878424,23.176484 c -0.79199,-3.112225 -1.17225,-6.374725 -0.845,-7.25 0.74776,-2.000088 5.395576,-2.086842 9.010446,-0.168185 4.02934,2.138632 10.44515,9.750812 11.8187,14.022554 1.84255,5.730297 0.88375,20.913646 -1.69262,26.804223 -2.51233,5.744112 -4.54551,6.050496 -6.63605,1 z m 5.98005,-8.222626 c 3.40817,-13.654464 -1.0141,-25.594619 -11.53679,-31.149343 -3.14207,-1.658639 -3.75289,-1.724626 -4.226946,-0.456645 -0.30476,0.815188 1.511826,7.691362 4.036886,15.280387 6.9972,21.029998 8.38351,24.558292 9.28544,23.632552 0.45666,-0.468705 1.55529,-3.756833 2.44141,-7.306951 z m 70.56637,185.13641 c -1.51697,-0.46956 -2.43572,-1.49134 -2.43572,-2.70886 0,-1.68079 0.95634,-2.06228 6.82003,-2.72057 26.40827,-2.96474 49.20689,-18.21441 58.55145,-39.1642 4.73896,-10.62444 4.93368,-28.76745 0.4211,-39.23807 -3.02447,-7.01774 -10.43695,-13.33208 -15.6507,-13.33208 -1.72402,0 -1.68492,0.25844 0.55057,3.63955 1.92862,2.91697 2.40636,4.88939 2.40636,9.9349 0,7.39276 -1.10713,10.87825 -4.68986,14.76483 -3.65139,3.96104 -7.21351,5.66072 -11.86351,5.66072 -8.45764,0 -14.9896,-6.16337 -16.20895,-15.29433 -0.87138,-6.52519 0.17168,-10.74274 4.21556,-17.04534 4.27483,-6.66256 11.84369,-11.05402 21.75395,-12.62168 20.43984,-3.2333 40.36335,10.93275 44.66894,31.76057 3.13365,15.15865 -1.75814,32.51449 -13.20576,46.85346 -5.4469,6.82264 -19.17541,16.87477 -28.56753,20.9174 -13.63365,5.8683 -39.94861,10.70393 -46.76593,8.5937 z m 23.87011,-4.66864 c 14.6171,-3.11184 25.20028,-7.37614 34.53245,-13.9142 18.03947,-12.63835 28.30927,-29.85124 28.30927,-47.44829 0,-16.37529 -7.66219,-28.8313 -22.38509,-36.39024 -5.63274,-2.89192 -7.19987,-3.23945 -14.61435,-3.24084 -7.10918,-0.001 -9.18566,0.41582 -14.4206,2.89707 -12.27671,5.81892 -17.68004,17.27999 -13.35675,28.33112 2.03872,5.21132 6.69302,8.27024 12.5836,8.27024 4.11947,0 5.12557,-0.45506 8.37112,-3.78625 6.36797,-6.53602 7.34426,-16.11901 2.33268,-22.89703 -3.71278,-5.02142 -3.18656,-6.31672 2.56616,-6.31672 6.15949,0 9.5672,1.78357 13.98836,7.32138 5.71264,7.15549 6.78995,11.34906 6.85362,26.67862 0.0476,11.46751 -0.25857,14.35332 -2.03381,19.16785 -7.4759,20.27502 -27.84218,36.38082 -52.95671,41.87856 -5.5213,1.20865 -7.14492,1.83367 -4.87145,1.8753 1.87551,0.0343 8.67119,-1.05762 15.1015,-2.42657 z m 1.41312,-82.05489 c -0.9018,-1.11528 -0.99852,-2.32635 -0.3394,-4.25 0.7917,-2.3106 1.46844,-2.69025 4.79548,-2.69025 3.52206,0 3.9022,0.25513 4.18768,2.81047 0.17268,1.54576 -0.20983,3.45826 -0.85002,4.25 -1.54371,1.90914 -6.21103,1.83714 -7.79374,-0.12022 z m 5.89406,-2.98822 c 0,-1.82398 -1.28564,-2.4906 -2.86779,-1.48697 -1.77414,1.12541 -0.55258,4.16811 1.36947,3.41109 0.82408,-0.32457 1.49832,-1.19042 1.49832,-1.92412 z m -38.04847,65.41362 c -5.88429,-1.65064 -12.75231,-7.79084 -15.99611,-14.30096 -2.2724,-4.56057 -2.99741,-7.46827 -3.23435,-12.97147 -0.34688,-8.05672 1.31696,-12.53023 5.95916,-16.02214 5.47015,-4.1147 18.21297,-1.48455 22.60403,4.66553 1.44891,2.02934 1.5636,2.05658 1.10915,0.26339 -0.27879,-1.1 -0.80173,-4.475 -1.16209,-7.5 -1.74322,-14.63295 -9.04265,-43.47367 -15.60915,-61.67316 -4.68757,-12.991924 -13.52689,-30.260742 -22.43975,-43.839159 -6.62365,-10.090886 -8.56554,-14.487685 -6.39864,-14.487685 0.4564,0 3.80703,2.00703 7.44582,4.460068 4.1103,2.770894 8.25936,4.713008 10.95512,5.127929 10.97203,1.688777 22.00833,-2.571392 32.69238,-12.619727 8.10262,-7.620497 12.54748,-15.080458 15.75561,-26.443166 2.81273,-9.9622704 2.82367,-9.9835717 4.74035,-9.2286628 0.89401,0.3521147 1.78534,3.4769937 2.53106,8.8735388 3.63668,26.317441 7.44045,42.595017 18.81898,80.532669 l 3.95982,13.202655 -1.68142,4.51891 c -0.92477,2.4854 -2.99884,5.65671 -4.60903,7.04735 -2.47071,2.13383 -3.91039,2.52844 -9.22457,2.52844 -13.81822,0 -25.95129,-12.00829 -25.97462,-25.707504 -0.0218,-12.831005 10.81193,-16.845353 26.66598,-9.880801 1.24257,0.545849 0.80936,-1.969837 -2.17234,-12.61494 -2.04844,-7.313218 -4.24153,-15.659259 -4.87356,-18.546759 -0.63204,-2.8875 -1.4082,-5.236617 -1.72483,-5.220261 -0.31662,0.01636 -2.0163,2.613863 -3.77707,5.772236 -8.20939,14.725568 -25.2696,27.198025 -37.2023,27.198025 l -3.79972,0 3.22994,7.25 c 11.50545,25.825364 20.83915,65.597534 21.71601,92.534904 0.69477,21.34319 -1.25908,26.25879 -10.94553,27.53729 -2.14344,0.28291 -5.45468,0.0775 -7.35833,-0.45654 z m 12.20566,-5.1409 c 2.45341,-2.51815 3.35281,-4.48244 3.89084,-8.49759 2.6808,-20.00611 -8.70928,-74.29895 -21.89055,-104.345211 -2.14374,-4.88658 -3.8977,-9.499896 -3.8977,-10.251814 0,-0.988823 1.9727,-1.497066 7.12905,-1.836712 5.41769,-0.356862 8.39968,-1.168603 12.42219,-3.381507 7.46229,-4.105223 19.0758,-16.369601 23.80467,-25.138775 2.14344,-3.97477 4.43685,-7.23727 5.09646,-7.25 0.65962,-0.01273 1.49129,1.214355 1.84817,2.726855 0.35689,1.5125 2.60629,10.175 4.99868,19.25 6.06876,23.020484 6.49313,24.910397 5.76185,25.660967 -0.61948,0.635831 -1.35411,0.321349 -7.96226,-3.408555 -1.60758,-0.907382 -5.64675,-1.836733 -8.97594,-2.065225 -5.69102,-0.390593 -6.23005,-0.233782 -9.01218,2.621763 -2.27924,2.339381 -2.95912,3.928799 -2.95912,6.917783 0,8.782021 8.51183,19.601191 18.04353,22.934671 8.0012,2.79822 15.01566,-0.36324 17.16835,-7.73789 1.02658,-3.51682 0.86876,-4.84985 -1.38476,-11.696354 -9.36885,-28.463864 -20.0162,-74.548212 -20.2407,-87.606687 -0.037,-2.1532911 -0.63104,-0.858389 -1.91652,4.177814 -2.80674,10.996099 -7.02066,18.202875 -15.46729,26.452584 -14.23911,13.907167 -28.9842,17.90084 -42.93293,11.628291 -2.3918,-1.075553 -5.2416,-2.718829 -6.33289,-3.651724 -1.22781,-1.049585 -1.02699,-0.558521 0.52678,1.288195 5.84782,6.95033 17.39683,27.839123 23.4888,42.484367 4.25227,10.222554 10.5517,30.605884 13.90716,45.000004 2.83607,12.166 6.53826,35.91464 5.79197,37.15401 -1.00225,1.66449 -2.9873,0.78964 -6.29258,-2.77325 -7.92577,-8.54347 -17.73719,-8.57467 -22.02779,-0.0701 -2.04201,4.04761 -1.98331,12.93481 0.11895,18.0068 2.17106,5.23797 8.97659,12.6065 13.67981,14.81149 6.04559,2.83433 9.87071,2.43983 13.61595,-1.40424 z m -24.44438,-27.32365 c -0.87971,-3.59752 0.63084,-5.83367 4.18964,-6.20217 3.55797,-0.3684 5.42934,1.68487 5.00419,5.4906 -0.28229,2.52686 -0.72857,2.84134 -4.42248,3.11635 -3.75959,0.27991 -4.1648,0.0757 -4.77135,-2.40478 z m 7.41842,-1.38564 c 0,-1.36062 -2.80298,-3.20955 -3.85449,-2.54253 -1.40339,0.89023 -1.27761,3.26708 0.2009,3.79643 1.49373,0.53479 3.65359,-0.20647 3.65359,-1.2539 z m 31.51037,-79.616455 c -2.59397,-4.063362 0.92807,-8.294877 5.849,-7.027211 2.1417,0.551716 2.58653,1.230557 2.58653,3.947254 0,1.804521 -0.52612,3.820948 -1.16915,4.480948 -1.99682,2.049514 -5.49411,1.37521 -7.26638,-1.400991 z m 5.87913,-1.936863 c 0.33318,-0.891165 -0.0602,-1.78803 -0.93554,-2.132783 -1.81935,-0.716573 -3.81017,1.061016 -2.89342,2.583505 0.95606,1.587744 3.16402,1.327836 3.82896,-0.450722 z M 210.83773,204.963 c -0.28214,-0.75465 -0.37799,-2.61995 -0.21299,-4.14511 0.25002,-2.31115 -0.18685,-2.94039 -2.62289,-3.77786 -2.93972,-1.01063 -4.702,-2.7122 -3.78441,-3.65401 0.27167,-0.27885 2.73528,-0.74188 5.47469,-1.02896 4.24904,-0.4453 5.21254,-0.95256 6.55872,-3.45303 2.20393,-4.09369 3.78925,-4.2807 5.04118,-0.59467 0.96867,2.85208 1.40831,3.12451 4.58347,2.8402 4.69048,-0.42 5.35036,2.28275 1.17536,4.81406 -2.60188,1.57753 -2.908,2.21136 -2.40284,4.97513 0.75616,4.13708 -0.83425,5.05174 -4.33509,2.49314 l -2.77711,-2.02967 -2.25752,2.46643 c -2.55858,2.79535 -3.6995,3.07652 -4.44057,1.09435 z m 10.53569,-6.23429 c -0.26699,-1.4335 -0.0908,-2.896 0.39143,-3.25 0.48228,-0.354 -0.0968,-1.62072 -1.28673,-2.81494 -2.09002,-2.09747 -2.18378,-2.10597 -2.75771,-0.25 -0.3878,1.25412 -1.48481,1.92131 -3.15904,1.92131 -1.99495,0 -2.30512,0.26667 -1.39578,1.2 0.64303,0.66 1.16915,1.93206 1.16915,2.82681 0,1.22388 0.69535,1.52206 2.80749,1.20388 1.54412,-0.23261 3.1045,0.0703 3.46752,0.67319 1.05276,1.74835 1.28502,1.28902 0.76367,-1.51025 z m 52.71306,5.2125 c -3.64396,-3.21711 -3.87038,-9.85646 -0.43354,-12.71289 4.80594,-3.9943 12.14359,-0.80475 13.38144,5.8167 0.50175,2.68395 0.11474,3.70807 -2.36183,6.25 -3.59375,3.68858 -6.91068,3.89106 -10.58607,0.64619 z m 8.61542,-2.26112 c 2.18089,-2.02576 2.26168,-4.19669 0.26505,-7.1225 -2.7035,-3.96164 -9.20051,-1.94985 -9.20051,2.84892 0,2.37075 3.3159,5.92857 5.52545,5.92857 0.89556,0 2.43006,-0.74474 3.41001,-1.65499 z m 1.05958,-15.14441 c -4.93173,-0.76203 -7.04766,-10.22576 -3.17501,-14.2006 2.9795,-3.05813 9.04447,-2.72679 11.62077,0.63486 5.03665,6.57203 -0.11857,14.85243 -8.44576,13.56574 z m 5.5936,-4.2006 c 1.07172,-1.1 1.94858,-2.57487 1.94858,-3.27749 0,-2.46786 -3.04768,-5.72251 -5.3586,-5.72251 -2.31092,0 -5.35859,3.25465 -5.35859,5.72251 0,1.75743 3.57415,5.27749 5.35859,5.27749 0.80379,0 2.3383,-0.9 3.41002,-2 z m -229.829324,-4.3873 c -1.912188,-2.08914 -2.537172,-2.2509 -5.004099,-1.29517 -3.709102,1.43697 -4.694807,0.22683 -2.70858,-3.32529 1.383977,-2.47508 1.415561,-3.04398 0.22528,-4.05789 -1.536805,-1.30909 -1.905853,-5.93435 -0.473501,-5.93435 0.500976,0 2.05279,0.44562 3.448475,0.99026 2.297498,0.89655 2.729747,0.65601 4.568183,-2.54213 2.533616,-4.40747 4.20628,-3.9628 4.288186,1.13999 0.0563,3.50769 0.352599,3.96354 2.867631,4.41188 1.542663,0.275 2.720091,0.8375 2.616508,1.25 -0.103583,0.4125 -0.188333,1.14541 -0.188333,1.62868 0,0.48327 -1.225392,1.39965 -2.723094,2.03639 -2.37651,1.01035 -2.672952,1.59854 -2.329132,4.62132 0.478462,4.20652 -1.333363,4.63161 -4.587524,1.07631 z m 3.57527,-7.3627 c 1.428506,-1.14064 1.421316,-1.25 -0.08219,-1.25 -1.054729,0 -1.65302,-0.80968 -1.662571,-2.25 -0.01105,-1.66618 -0.2351,-1.89322 -0.863485,-0.875 -0.466711,0.75625 -1.910529,1.375 -3.208482,1.375 -2.031286,0 -2.304079,0.39048 -1.958949,2.80406 0.244351,1.70879 0.871603,2.61869 1.605871,2.32949 0.662698,-0.26101 1.823186,0.29099 2.578862,1.22667 1.283687,1.58946 1.39536,1.57602 1.699721,-0.20449 0.17917,-1.04815 1.03022,-2.46823 1.891223,-3.15573 z m 201.014194,-47.5 c -3.7253,-10.04568 -3.70817,-10.02484 -7.63834,-9.2938 -2.01173,0.37419 -4.64007,0.92236 -5.84076,1.21814 -3.32503,0.81912 -4.18828,-2.58019 -1.16869,-4.60205 1.2915,-0.86476 3.59405,-2.70316 5.11677,-4.08534 l 2.76858,-2.51305 -2.49862,-4.486954 c -4.56246,-8.193087 -2.49704,-10.609777 3.91487,-4.580687 1.9924,1.873445 4.09935,3.216397 4.6821,2.984337 0.58275,-0.23205 2.11541,-2.009152 3.40589,-3.949105 1.36309,-2.04909 2.99623,-3.392959 3.89716,-3.206878 1.58299,0.326954 1.722,1.646748 0.96878,9.197533 -0.36698,3.678834 -0.12549,4.117954 3.74848,6.816104 4.02055,2.80024 5.40049,5.58971 2.92287,5.90841 -0.66982,0.0862 -2.97158,0.19866 -5.11502,0.25 l -3.89716,0.0933 -0.86668,6.25 c -0.91319,6.58544 -2.80405,8.30431 -4.40023,4 z m 3.32493,-12.5901 c 0.30217,-0.31015 2.17803,-0.46799 4.16856,-0.35075 l 3.61916,0.21317 -3.12228,-2.08066 c -3.79485,-2.52885 -4.47301,-4.42373 -3.20605,-8.957994 1.3505,-4.833135 1.26736,-4.899415 -1.54741,-1.23367 -3.04692,3.968094 -4.80937,4.071804 -8.49646,0.5 l -2.83876,-2.75 2.05109,3.5 c 2.77107,4.728584 2.61411,6.042274 -1.09929,9.200614 l -3.17522,2.70061 4.2698,-0.20061 c 4.20513,-0.19757 4.2936,-0.1346 5.84222,4.15839 l 1.57243,4.35899 0.70639,-4.24709 c 0.38852,-2.3359 0.95364,-4.50085 1.25582,-4.811 z M 10.677378,123.39404 C 3.9746765,121.30387 -0.01587851,115.59717 4.7490264e-5,108.12492 0.01934749,99.068446 8.7027175,88.96262 19.269829,85.698465 c 6.392803,-1.97472 17.374334,-1.718978 22.168713,0.516275 4.918316,2.293034 8.94114,7.102629 9.780142,11.692906 1.616975,8.846674 -6.861295,20.174024 -18.103836,24.187554 -6.486577,2.31568 -17.189849,2.93526 -22.43747,1.29884 z M 32.5357,119.28526 c 9.079783,-3.48682 16.169712,-12.28818 16.169712,-20.072904 0,-4.822121 -6.121248,-10.37899 -13.062323,-11.857976 -6.012621,-1.281154 -13.906026,-0.238344 -19.308571,2.550884 -5.391827,2.783694 -11.3117835,9.418142 -12.9664775,14.531416 -1.419333,4.38598 -1.40334,4.98179 0.227367,8.4703 4.26875,9.13196 15.3881085,11.58261 28.9402925,6.37828 z m -7.700397,-2.86686 c -2.823097,-1.27933 -7.994172,-7.12655 -9.195999,-10.39842 -1.883521,-5.12772 -1.28807,-10.515087 1.475741,-13.351831 2.105652,-2.161217 3.131276,-2.49046 6.36936,-2.044681 4.774631,0.657311 9.817645,4.485245 11.930981,9.056288 2.239225,4.843344 2.117026,12.863744 -0.229197,15.043084 -2.186309,2.03079 -7.639834,2.92413 -10.350886,1.69556 z m 8.391146,-4.19589 c 5.005853,-5.13795 -2.858497,-18.887434 -10.803122,-18.887434 -7.558773,0 -5.977895,13.913054 2.159499,19.005404 4.057852,2.53939 6.081489,2.51177 8.643623,-0.11797 z M 80.631605,78.585076 c -0.98868,-4.032674 -1.820257,-5.63451 -2.784317,-5.363312 -6.74518,1.897475 -7.966458,0.104634 -3.617546,-5.310575 l 2.957678,-3.682861 -1.575232,-5.76223 c -0.866377,-3.169227 -1.575232,-6.295208 -1.575232,-6.946626 0,-2.31562 3.451168,-1.152622 6.102876,2.056589 l 2.692872,3.259015 3.26778,-3.890633 c 4.95571,-5.900283 6.74253,-3.507292 4.32072,5.786523 -1.13365,4.350482 -1.10033,4.470049 1.98944,7.138534 1.72833,1.492668 2.98227,3.207072 2.78653,3.809787 -0.19574,0.602714 -2.29667,1.579013 -4.66874,2.169553 l -4.31285,1.073707 -0.29219,5.706265 c -0.24417,4.768265 -0.58725,5.706264 -2.08714,5.706264 -1.37217,0 -2.12698,-1.354307 -3.204649,-5.75 z m 7.503019,-9.25 3.86763,-0.5 -2.76169,-1.848329 c -2.32555,-1.556423 -2.68018,-2.346072 -2.24551,-5 0.2839,-1.733419 0.82931,-4.051671 1.21202,-5.151671 0.55594,-1.597914 0.17292,-1.447131 -1.90512,0.75 -3.15746,3.3384 -4.69791,3.450967 -6.842342,0.5 -1.05567,-1.452719 -1.463259,-1.655056 -1.150252,-0.571014 1.599049,5.538006 1.655733,8.505939 0.186359,9.75759 -1.699212,1.447434 -2.131252,3.55912 -0.518923,2.536351 1.642765,-1.042078 3.746598,1.449464 4.540738,5.377556 l 0.73783,3.649517 0.50583,-4.5 c 0.49266,-4.38295 0.60641,-4.513006 4.37343,-5 z m 152.018806,-4 c -0.43324,-1.40104 -1.47413,-2 -3.47568,-2 -3.13644,0 -3.68971,-1.658919 -1.66374,-4.988609 0.94175,-1.547793 0.94175,-2.219819 0,-3.186432 -2.26923,-2.329106 -1.42482,-4.12245 1.64442,-3.492403 1.87389,0.384667 3.23824,0.08744 4.01646,-0.875 0.64821,-0.801656 2.27071,-1.457556 3.60557,-1.457556 2.16723,0 2.37889,0.336559 1.9774,3.144246 -0.38998,2.727196 -0.0815,3.286832 2.32514,4.219238 4.13994,1.603886 3.72443,4.636516 -0.63525,4.636516 -3.13938,0 -3.41002,0.238095 -3.41002,3 0,2.298465 -0.44031,3 -1.88292,3 -1.03561,0 -2.16123,-0.9 -2.50138,-2 z m 3.68606,-6 c 1.60397,0 1.80243,-0.266667 0.8931,-1.2 -0.64303,-0.66 -1.16915,-1.967662 -1.16915,-2.905915 0,-1.424944 -0.36679,-1.528252 -2.22694,-0.627231 -1.24965,0.605296 -2.23796,1.990294 -2.25202,3.155915 -0.0266,2.201322 1.81814,4.184047 2.368,2.545185 0.17862,-0.532375 1.25278,-0.967954 2.38701,-0.967954 z m -93.79634,-20.75 c 0.007,-1.5125 0.65881,-5.225 1.44987,-8.25 0.79107,-3.025 1.44351,-5.595155 1.44987,-5.711456 0.0114,-0.208198 -4.7265,-1.494117 -9.97491,-2.707315 -1.47361,-0.340633 -2.6793,-1.277186 -2.6793,-2.081229 0,-0.804043 1.20569,-1.734831 2.6793,-2.068419 1.47362,-0.333588 4.43302,-1.173635 6.57646,-1.866771 3.87113,-1.251828 3.89507,-1.290636 3.58326,-5.808901 -0.49393,-7.1575137 2.6408,-7.1386178 6.55461,0.03951 0.65681,1.204634 2.12497,0.60189 7.99907,-3.2839587 3.95703,-2.6176673 7.34075,-5.1536105 7.51936,-5.6354282 0.17863,-0.48181772 0.94588,-0.87603222 1.70501,-0.87603222 2.78986,0 1.27071,4.85025732 -3.57836,11.42476312 l -4.95861,6.723025 4.47146,5.841652 c 7.21939,9.431606 5.91739,11.06365 -4.83439,6.05991 l -6.34022,-2.95065 -2.65058,3.850558 c -1.45781,2.117807 -3.39744,5.245599 -4.31027,6.95065 -2.10534,3.932492 -4.67751,4.125664 -4.66163,0.350092 z m 8.61755,-12.178783 1.8721,-2.428784 6.04547,2.691034 6.04547,2.691034 -3.50176,-4.896227 c -1.92596,-2.692926 -3.50175,-5.519187 -3.50175,-6.280582 0,-0.761394 1.75372,-3.562602 3.89716,-6.224907 2.14344,-2.6623041 3.89716,-5.0067412 3.89716,-5.2098607 0,-0.2031196 -2.69856,1.4208776 -5.9968,3.6088837 -3.29823,2.188006 -6.53298,3.978192 -7.18833,3.978192 -0.65535,0 -1.91313,-1.0125 -2.79507,-2.25 -1.59601,-2.2394521 -1.60087,-2.2352111 -1.03609,0.9048 0.64989,3.613236 0.15471,4.0805 -6.24281,5.890737 -3.96816,1.122826 -4.15118,1.286339 -1.52794,1.365046 5.05939,0.151799 6.67235,2.101223 5.98671,7.235545 -0.32643,2.444363 -0.85916,5.323951 -1.18386,6.399084 -0.32469,1.075133 0.29808,0.379788 1.38394,-1.545212 1.08586,-1.925 2.81674,-4.592953 3.8464,-5.928783 z"
     id="path3030"
     inkscape:connector-curvature="0" />
  <path
     style="fill:#4d4d4d;fill-opacity:1;stroke:none"
     d="m 61.104553,233.03566 c -5.874213,-2.74845 -9.439525,-10.03147 -9.89213,-20.20711 -0.272429,-6.12483 0.213214,-8.91996 2.237432,-12.87759 1.582764,-3.09452 5.48851,-7.28179 8.036899,-8.61619 3.395037,-1.77773 8.660606,0.0341 12.635373,4.34775 2.784181,3.02155 4.23298,5.9091 5.419121,10.80065 1.338119,5.51834 2.169476,6.17805 4.493866,3.56602 2.6099,-2.93287 8.32286,-18.45696 11.13747,-30.26432 1.408,-5.9066 1.62321,-8.76997 0.74742,-9.9443 -0.30589,-0.41015 -2.15789,-1.39061 -4.11557,-2.1788 -6.45969,-2.60075 -10.29422,-5.18369 -15.691419,-10.56974 -5.889586,-5.87743 -10.285756,-12.56373 -16.865706,-25.65167 -1.621204,-3.22469 -3.246958,-5.98095 -3.612789,-6.12504 -0.365831,-0.14408 -0.909598,0.0812 -1.20837,0.50054 -0.298777,0.41938 -1.995118,5.12789 -3.769651,10.46336 -6.791872,20.42107 -13.64825,35.95033 -18.073236,40.93473 -1.426017,1.6063 -3.400546,3.29716 -4.387842,3.75747 -2.164499,1.00917 -5.491795,1.09658 -7.584204,0.19924 -2.320768,-0.99527 -5.240462,-4.37765 -6.995796,-8.10445 -2.062535,-4.37902 -2.635638,-7.01679 -2.625516,-12.08423 0.01354,-6.77955 2.414852,-12.84678 6.564681,-16.58652 1.827472,-1.64689 4.061059,-2.75371 5.557016,-2.75371 2.76773,0 9.110575,5.06207 10.95886,8.746 0.54793,1.09212 1.649122,3.83516 2.447093,6.09566 1.299928,3.68245 1.566565,4.11 2.563169,4.11 0.95271,0 1.380371,-0.55697 2.980436,-3.88166 4.407953,-9.15906 12.131223,-36.64862 16.384476,-58.317554 1.498515,-7.634435 4.290927,-26.549461 4.94152,-33.472453 l 0.321869,-3.425 1.212747,8.353373 c 2.232514,15.37752 5.484584,26.092417 11.186326,36.856634 4.582656,8.6515 9.423436,15.02221 18.719786,24.6361 l 6.600636,6.82612 -0.48945,9.38555 c -0.87833,16.84267 -2.531636,27.62079 -6.093456,39.72388 -5.88845,20.00901 -18.832294,42.81579 -26.051799,45.90271 -2.201827,0.94147 -5.499541,0.87908 -7.689262,-0.14545 z m 5.555096,-29.71589 c 1.443654,-1.04656 1.994077,-3.47631 1.346595,-5.94434 -0.412545,-1.57251 -0.796601,-2.04215 -2.141722,-2.61901 -2.021948,-0.86712 -6.032915,-0.54697 -7.244269,0.57823 -1.519836,1.41172 -1.662471,5.73247 -0.25448,7.70882 1.184134,1.66213 6.153822,1.82769 8.293876,0.2763 z M 24.8048,153.89031 c 1.062041,-0.68075 1.359082,-1.7188 1.366999,-4.77714 0.0041,-1.5743 -0.25377,-2.67627 -0.78325,-3.34741 -1.521243,-1.92823 -5.95013,-1.97634 -7.793175,-0.0847 -1.113244,1.14262 -1.53795,4.99528 -0.762488,6.91682 0.365165,0.90484 1.032535,1.52665 1.947047,1.81412 1.669141,0.52467 4.817771,0.25201 6.024867,-0.52173 l 0,0 z m 73.636664,-1.8594 c 0.35808,-0.56512 0.78845,-2.10277 0.9564,-3.41699 0.40723,-3.18679 -0.2255,-4.09161 -4.56504,-6.52811 -4.61714,-2.59236 -9.00725,-6.04329 -12.87116,-10.11762 -6.667175,-7.03026 -8.5159,-10.0113 -14.030111,-22.62336 -3.643065,-8.33239 -4.925876,-10.629754 -5.935479,-10.629754 -0.890088,0 -2.448761,4.697564 -2.448761,7.380134 0,5.00899 5.652542,18.87935 11.056176,27.12994 5.965748,9.10886 12.725865,15.04331 21.300665,18.69904 3.37665,1.43959 5.66907,1.47702 6.53731,0.10672 z"
     id="path3032"
     inkscape:connector-curvature="0" />
  <path
     style="fill:#4d4d4d;fill-opacity:1;stroke:none"
     d="m 13.402292,120.91568 c -4.4784495,-1.50768 -7.6021755,-4.26533 -9.7426975,-8.60092 -1.397485,-2.83057 -1.299971,-4.91002 0.410027,-8.74371 2.404596,-5.390934 7.5296775,-10.827157 12.7401485,-13.5136 4.926278,-2.539916 14.089975,-3.615217 19.378936,-2.273995 6.686326,1.695579 12.235461,7.022463 12.235461,11.745411 0,4.248204 -3.451641,10.707404 -7.628116,14.274824 -3.604482,3.07884 -5.709836,4.26026 -10.613843,5.95599 -3.61946,1.25155 -4.993957,1.48495 -9.565906,1.62438 -3.726448,0.11363 -5.905418,-0.0278 -7.21401,-0.46838 z m 20.339322,-5.06867 c 2.054595,-1.0981 2.533076,-1.81938 3.133804,-4.72397 0.669645,-3.23782 -0.06163,-8.88283 -1.538131,-11.873454 -1.484943,-3.007721 -5.438009,-6.62915 -8.534045,-7.818094 -4.950396,-1.901056 -8.507323,-1.12256 -10.749328,2.35268 -1.05421,1.634089 -1.242937,2.445365 -1.376976,5.919194 -0.142874,3.702794 -0.04856,4.254804 1.176198,6.884474 1.576487,3.38486 4.831118,7.2755 7.640699,9.13384 1.866531,1.23457 2.265055,1.31986 5.353595,1.14574 2.041346,-0.11508 3.941556,-0.51127 4.894184,-1.02041 z"
     id="path3034"
     inkscape:connector-curvature="0" />
  <path
     style="fill:#4d4d4d;fill-opacity:1;stroke:none"
     d="m 127.93126,233.23234 c -8.57343,-2.53396 -14.52085,-11.81827 -14.54134,-22.69999 -0.0216,-11.47042 7.05135,-18.05644 16.34821,-15.22272 1.6713,0.50942 2.71019,1.20933 3.89754,2.62584 2.19693,2.62092 2.88381,4.49199 2.88381,7.85557 0,4.77327 -1.53851,7.87574 -5.04141,10.16622 -1.02022,0.6671 -2.30543,1.61959 -2.85602,2.11664 -3.30678,2.98518 2.37802,10.33943 7.98656,10.33197 6.17338,-0.008 9.28366,-3.37139 10.84026,-11.7216 0.83232,-4.46496 0.81384,-14.67259 -0.0408,-22.52586 -0.73708,-6.77307 -2.29588,-15.92668 -2.87639,-16.89075 -0.48834,-0.81101 -3.26912,-0.68589 -10.13529,0.45603 -7.15027,1.18917 -10.49281,1.14572 -15.89643,-0.20663 -5.83521,-1.46035 -8.06958,-2.30377 -9.90069,-3.73728 -1.53976,-1.20542 -2.47769,-2.87777 -1.94545,-3.46875 0.16299,-0.18097 2.2944,0.19513 4.73646,0.83579 3.70934,0.97311 5.83156,1.20633 12.89424,1.41697 13.0632,0.38961 17.62871,-0.78547 17.93765,-4.61683 0.28749,-3.56523 -2.78468,-15.81551 -8.16477,-32.55703 -3.90181,-12.14149 -4.50833,-13.55832 -5.89042,-13.76015 -3.03072,-0.44258 -7.75227,3.31163 -9.85196,7.83352 -0.71937,1.54923 -1.65073,4.66628 -2.06968,6.92678 -1.08458,5.85186 -0.99554,5.65967 -2.00851,4.33535 -1.61915,-2.11683 -4.8641,-9.34277 -5.30732,-11.81851 -1.75142,-9.78295 1.40578,-17.78996 9.56097,-24.24766 3.28853,-2.60404 3.72226,-3.86202 2.7151,-7.874861 -0.96909,-3.861181 -2.76751,-8.519162 -3.70655,-9.600156 -1.69144,-1.947117 -3.30562,-0.312643 -10.27968,10.408953 -4.91018,7.548674 -7.12612,11.936534 -9.214976,18.246884 -0.91454,2.76283 -1.79085,5.17555 -1.94734,5.3616 -0.48563,0.57735 -2.18277,-0.97042 -3.39821,-3.09914 -1.45456,-2.54756 -1.79971,-6.01484 -1.12035,-11.25472 0.95982,-7.402934 3.44974,-12.950833 11.540706,-25.714411 5.44536,-8.59011 7.31959,-12.389403 6.99306,-14.175833 -0.34265,-1.874749 -2.48601,-7.48478 -9.06527,-23.7275 C 92.226774,21.55369 89.290874,12.721984 89.959104,9.9960629 c 0.37523,-1.530712 3.0882,-4.7073411 4.79305,-5.6122173 1.75546,-0.9317369 3.78022,-0.8151417 7.323206,0.4217044 7.14684,2.4949455 15.11184,6.956132 18.81553,10.538565 8.06548,7.801432 12.54224,21.671579 11.17458,34.621794 -0.87133,8.250538 -4.97717,18.713314 -10.72184,27.322075 -1.44165,2.160417 -2.62118,4.156274 -2.62118,4.435242 0,0.932984 4.97951,14.459894 5.88903,15.99764 1.30071,2.19915 2.49888,2.509424 6.45317,1.67108 5.26705,-1.11665 11.51228,0.066 17.69029,3.350004 5.87425,3.12253 12.41144,10.98169 15.2632,18.3498 2.66455,6.88437 3.73854,15.72612 2.79274,22.99146 -1.06402,8.17337 -3.21679,11.90596 -12.76354,22.13014 l -6.5268,6.98994 0.72087,4.65506 c 2.23823,14.45356 3.09645,25.01308 2.86647,35.2692 -0.15985,7.12861 -0.31395,8.54194 -1.17699,10.79494 -1.30717,3.41244 -3.94594,6.06739 -8.00396,8.05307 -2.91733,1.42752 -3.73019,1.61493 -7.56374,1.74387 -2.73767,0.0921 -5.06996,-0.0845 -6.43192,-0.48709 l 0,0 z m -3.88742,-28.40416 c 2.79387,-1.69393 3.61815,-5.74193 1.51495,-7.43996 -1.42349,-1.14926 -4.65843,-1.28995 -5.67477,-0.24679 -1.73805,1.78391 -1.40662,6.64932 0.5263,7.72621 1.56382,0.87126 2.14178,0.86498 3.63352,-0.0394 l 0,-1e-5 z m 25.46097,-40.32167 c 2.18707,-1.76575 5.1263,-10.16882 6.08083,-17.38476 1.26525,-9.56469 -3.8979,-20.58982 -11.33026,-24.19411 -3.49859,-1.69662 -8.18923,-2.87908 -9.78757,-2.46734 -1.08071,0.2784 -1.14809,0.43942 -0.91159,2.17853 0.14046,1.03285 2.35659,8.89444 4.92474,17.4702 2.56815,8.57575 5.20373,17.515 5.85684,19.865 0.65313,2.34999 1.38809,4.52959 1.63325,4.84355 0.65531,0.83919 2.28693,0.69556 3.53376,-0.31107 z M 114.14542,60.240909 c 2.47038,-2.767464 3.766,-7.367385 4.56764,-16.216754 0.5481,-6.050563 0.2828,-11.008358 -0.76338,-14.265746 -1.5329,-4.77285 -9.24957,-13.374625 -13.25509,-14.775459 -2.54675,-0.890661 -5.053066,-0.963497 -6.697156,-0.194627 -1.17174,0.547966 -1.18657,0.610349 -0.95816,4.030696 0.18411,2.757041 1.05827,6.011894 4.235156,15.769253 8.34627,25.634343 9.98027,28.890998 12.87099,25.652637 z"
     id="path3036"
     inkscape:connector-curvature="0" />
  <path
     style="fill:#4d4d4d;fill-opacity:1;stroke:none"
     d="m 179.0099,206.66965 c -4.65079,-1.92205 -11.53146,-8.85662 -14.24868,-14.3603 -1.40602,-2.84785 -2.16717,-7.9796 -1.83885,-12.3978 0.42097,-5.66527 2.19995,-8.88839 6.11212,-11.07385 1.98237,-1.10741 2.63274,-1.24131 5.22981,-1.0767 3.93399,0.24934 6.85334,1.78576 11.59354,6.10155 2.81156,2.55983 4.051,3.3992 5.01939,3.3992 0.78331,0 1.39576,-0.29381 1.56695,-0.75172 0.8189,-2.19032 -3.37972,-27.83019 -6.79413,-41.48995 -3.2318,-12.92921 -9.26701,-31.9622 -12.91543,-40.730853 -5.09415,-12.243338 -15.76018,-32.14505 -21.24368,-39.638531 -1.10119,-1.504826 -1.96493,-2.774256 -1.91943,-2.820956 0.0455,-0.0467 1.68233,0.724575 3.63741,1.713943 9.99467,5.057802 20.71692,4.813298 31.34561,-0.714796 6.41553,-3.336782 15.84127,-11.6887 20.6252,-18.275478 3.38714,-4.663607 5.64096,-9.442647 7.96853,-16.896666 l 1.85376,-5.936667 0.36172,3.881667 c 1.46981,15.772487 10.25822,52.975936 19.68744,83.341663 2.47369,7.966244 2.58872,10.334134 0.69138,14.231244 -2.24394,4.60902 -6.22876,6.83624 -11.52441,6.44128 -7.5761,-0.56505 -16.00742,-7.12831 -20.13187,-15.67144 -1.73067,-3.58478 -1.90081,-4.246984 -1.91961,-7.470953 -0.0184,-3.157311 0.11471,-3.738379 1.23865,-5.406308 0.69262,-1.027829 2.04822,-2.429932 3.01245,-3.115777 1.52893,-1.087511 2.1494,-1.239485 4.85139,-1.188274 5.72615,0.108536 8.82558,0.865447 13.46609,3.288575 2.391,1.248495 4.77155,2.26999 5.29013,2.26999 0.87248,0 0.92472,-0.180566 0.69963,-2.418913 -0.27895,-2.774237 -10.21988,-41.803596 -11.21891,-44.046921 -0.4042,-0.907653 -0.98589,-1.484166 -1.49748,-1.484166 -0.88351,0 -1.26225,0.511895 -6.08188,8.22 -6.24517,9.988012 -15.50308,19.615061 -23.00244,23.919606 -3.45584,1.983623 -6.65181,2.841878 -12.9887,3.488029 -5.91975,0.603618 -6.68419,0.944843 -6.31872,2.820456 0.14724,0.755632 1.87417,5.281514 3.83762,10.057517 9.22885,22.448859 16.80064,51.165719 20.45757,77.587699 1.87921,13.5777 1.90145,26.0401 0.0542,30.31503 -2.77432,6.42005 -8.35508,8.61767 -14.95629,5.88957 z m -4.70066,-26.80784 c 1.81414,-0.64701 2.31759,-2.0267 1.79988,-4.93252 -0.50897,-2.85688 -1.79373,-3.77617 -4.8285,-3.45499 -3.38451,0.3582 -4.50618,1.53444 -4.50618,4.72538 0,3.22848 0.95676,4.26877 3.8931,4.23296 1.16237,-0.0142 2.80113,-0.27106 3.6417,-0.57083 z m 38.91167,-81.579224 c 1.09818,-1.127159 1.60335,-6.461359 0.71586,-7.558939 -0.85795,-1.061038 -3.60466,-1.652522 -5.32386,-1.146453 -2.38074,0.70081 -3.57485,2.144105 -3.57485,4.320875 0,4.505717 5.29865,7.344841 8.18285,4.384517 l 0,0 z"
     id="path3038"
     inkscape:connector-curvature="0" />
  <path
     style="fill:#4d4d4d;fill-opacity:1;stroke:none"
     d="m 199.69895,230.64882 c 10.38901,-2.71839 17.33697,-5.40909 24.06739,-9.32045 12.41222,-7.2133 22.32669,-17.68762 27.53029,-29.0848 2.88956,-6.3289 3.21924,-8.129 3.45474,-18.86349 0.419,-19.09898 -1.09169,-24.84162 -8.66106,-32.92333 -3.50584,-3.74314 -5.92781,-4.85604 -11.12827,-5.11345 -3.33436,-0.16505 -4.32809,-0.0588 -5.25,0.56117 -1.39004,0.93482 -1.23845,1.66766 1.13948,5.50894 0.9329,1.507 1.99056,3.47924 2.35035,4.38275 2.38256,5.98308 0.57842,13.26186 -4.63391,18.69545 -2.99622,3.12339 -4.75957,3.831 -8.80623,3.53382 -7.41684,-0.54467 -12.148,-5.64924 -12.82277,-13.8348 -0.72902,-8.84368 4.41274,-16.8949 13.93186,-21.81515 5.15628,-2.66518 7.47773,-3.16061 14.80961,-3.16056 7.34906,5e-5 9.06697,0.35023 13.94918,2.84337 11.97033,6.11277 19.61477,15.51109 21.90994,26.93679 4.07889,20.3054 -5.4903,40.81392 -26.04047,55.80944 -10.35394,7.55532 -22.52025,12.31001 -40.05513,15.65389 -7.30482,1.39302 -10.78144,1.50825 -5.745,0.19041 z m 18.39442,-81.75076 c 1.36917,-0.6403 2.07217,-2.20631 2.07217,-4.61601 0,-2.82566 -0.88415,-3.55364 -4.31598,-3.55364 -2.40413,0 -3.00741,0.16846 -3.90589,1.09065 -2.19061,2.24842 -1.76441,6.06671 0.7953,7.12497 1.3851,0.57265 4.08108,0.5495 5.3544,-0.046 z"
     id="path3040"
     inkscape:connector-curvature="0" />
  <path
     style="fill:#ffffff;fill-opacity:1;stroke:none"
     d="m 283.95712,183.11684 c -0.76453,-0.56272 -1.84053,-1.69791 -2.39111,-2.52263 -0.88677,-1.3283 -0.9377,-1.65651 -0.44605,-2.87475 0.69635,-1.72552 3.30018,-4.11105 4.48725,-4.11105 2.346,0 5.30154,2.91325 5.30154,5.22568 0,1.46061 -2.82995,4.67097 -4.44926,5.04735 -0.74871,0.17402 -1.56671,-0.0759 -2.50237,-0.7646 z"
     id="path3042"
     inkscape:connector-curvature="0" />
  <path
     style="fill:#4d4d4d;fill-opacity:1;stroke:none"
     d="m 278.19775,202.81855 c -0.488,-0.18528 -1.63178,-1.18271 -2.54173,-2.21649 -2.17704,-2.47332 -2.21462,-4.13337 -0.14171,-6.26098 1.24377,-1.27659 1.84755,-1.55267 3.39564,-1.55267 1.57377,0 2.12285,0.26114 3.34442,1.59057 0.80385,0.87481 1.591,2.19556 1.74923,2.935 0.65256,3.04946 -3.04326,6.55349 -5.80585,5.50457 l 0,0 z"
     id="path3044"
     inkscape:connector-curvature="0" />
  <path
     style="fill:#ffffff;fill-opacity:1;stroke:none"
     d="m 20.034432,150.87166 c -1.220336,-1.55141 -1.037971,-2.51575 0.583594,-3.08602 2.507116,-0.88171 3.919918,1.27573 2.10236,3.21043 -1.301826,1.38573 -1.505499,1.37629 -2.685954,-0.12441 z"
     id="path2989"
     inkscape:connector-curvature="0" />
  <path
     style="fill:#ffffff;fill-opacity:1;stroke:none"
     d="m 61.041391,200.74478 c -0.798502,-1.75252 -0.02694,-3.62565 1.569618,-3.81059 0.995627,-0.11534 1.34032,0.10042 1.708815,1.06964 1.030821,2.71126 -2.099513,5.3284 -3.278433,2.74095 z"
     id="path2993"
     inkscape:connector-curvature="0" />
  <path
     style="fill:#ffffff;fill-opacity:1;stroke:none"
     d=""
     id="path2995"
     inkscape:connector-curvature="0" />
  <path
     style="fill:#ffffff;fill-opacity:1;stroke:none"
     d="m 170.53424,177.07391 c -1.03034,-0.75341 -0.81392,-2.75951 0.32104,-2.97589 1.14291,-0.2179 3.06005,1.13509 3.06005,2.15958 0,0.49497 -0.42884,0.96446 -1.0275,1.1249 -1.39504,0.37385 -1.42581,0.36982 -2.35359,-0.30859 z"
     id="path2999"
     inkscape:connector-curvature="0" />
  <path
     style="fill:#ffffff;fill-opacity:1;stroke:none"
     d=""
     id="path3001"
     inkscape:connector-curvature="0" />
  <path
     style="fill:#ffffff;fill-opacity:1;stroke:none"
     d="m 208.30665,95.179924 c -0.6507,-1.695695 1.85779,-3.207557 3.01283,-1.815824 0.42046,0.50663 0.43515,0.915918 0.0581,1.620371 -0.61014,1.140044 -2.65847,1.270411 -3.07097,0.195453 z"
     id="path3003"
     inkscape:connector-curvature="0" />
  <path
     style="fill:#ffffff;fill-opacity:1;stroke:none"
     d="m 170.28285,177.01047 c -0.7666,-0.9237 -0.41263,-2.72465 0.57243,-2.91245 1.14511,-0.21831 3.06005,1.13588 3.06005,2.16398 0,1.41804 -2.62747,1.95943 -3.63248,0.74847 z"
     id="path3005"
     inkscape:connector-curvature="0" />
  <path
     style="fill:#ffffff;fill-opacity:1;stroke:none"
     d="m 167.12573,258.27774 c -2.23329,-2.29854 -4.01966,-2.50527 -7.93446,-0.91825 -0.74128,0.30051 -0.74909,0.21095 -0.11417,-1.30862 1.31031,-3.13603 0.59156,-6.11005 -1.93149,-7.992 l -1.26862,-0.94627 2.51167,-0.0207 c 1.38142,-0.0114 2.96112,-0.14124 3.51044,-0.28856 1.039,-0.27863 1.96956,-2.22813 1.96956,-4.12615 0,-2.00936 0.72885,-1.08197 1.29183,1.64371 0.70569,3.41658 1.77867,4.32071 6.02902,5.08029 l 3.18791,0.56972 -2.17188,1.24341 c -3.50677,2.00764 -3.93948,2.70825 -3.64928,5.90863 0.13702,1.51106 0.21724,2.74519 0.17826,2.74252 -0.039,-0.003 -0.76293,-0.71715 -1.60879,-1.58773 z"
     id="path3007"
     inkscape:connector-curvature="0" />
  <path
     style="fill:#ffffff;fill-opacity:1;stroke:none"
     d="m 93.320976,250.85116 c 1.286857,-3.08493 1.335342,-3.34078 0.796578,-4.20348 -0.482033,-0.77186 -0.34871,-0.96954 1.148444,-1.70279 0.931582,-0.45626 1.909188,-1.27053 2.172456,-1.8095 l 0.47867,-0.97994 0.974547,1.09411 c 0.69649,0.78194 1.457029,1.0941 2.665599,1.0941 l 1.69104,0 -1.88482,2.0448 c -1.476693,1.60202 -1.884831,2.39871 -1.884831,3.67923 0,1.59777 -0.02276,1.61849 -1.014944,0.92354 -1.273653,-0.89211 -2.661433,-0.90684 -3.80694,-0.0404 -1.199552,0.90729 -1.739049,0.86705 -1.335799,-0.0996 z"
     id="path3009"
     inkscape:connector-curvature="0" />
  <path
     style="fill:#ffffff;fill-opacity:1;stroke:none"
     d="m 59.291992,173.56033 c -0.627916,-0.49116 -1.494061,-0.89759 -1.924766,-0.90318 -0.981469,-0.0127 -1.728567,-1.36464 -1.728567,-3.12794 0,-1.42602 0.641452,-1.90555 2.549016,-1.90555 0.607375,0 1.515317,-0.411 2.017651,-0.91333 0.913333,-0.91333 0.913333,-0.91333 0.913333,0.03 0,1.49915 0.861515,2.70998 1.928172,2.70998 0.954476,0 0.948391,0.0361 -0.211829,1.25583 -0.656994,0.69071 -1.334219,1.82096 -1.504945,2.51167 -0.367253,1.4858 -0.539442,1.51474 -2.038065,0.3425 z"
     id="path3011"
     inkscape:connector-curvature="0" />
  <path
     style="fill:#ffffff;fill-opacity:1;stroke:none"
     d="m 82.488892,74.669312 c -1.037422,-3.706773 -2.366397,-5.373815 -4.083165,-5.121847 -1.577824,0.231575 -1.581616,0.202981 -0.215071,-1.621773 0.598764,-0.799533 1.226054,-1.906437 1.393978,-2.459785 0.279989,-0.922633 -0.331673,-5.522667 -0.978193,-7.35655 -0.156421,-0.443697 0.396357,-0.140979 1.302832,0.713471 0.865994,0.816292 2.031718,1.484167 2.590497,1.484167 0.558779,0 1.940324,-0.852047 3.0701,-1.893437 1.129775,-1.041391 2.131481,-1.812016 2.226013,-1.7125 0.09453,0.09951 -0.144291,1.643549 -0.530718,3.431186 -0.911016,4.214412 -0.605078,5.272786 2.056522,7.114425 l 2.165306,1.498238 -2.299816,0.285933 c -4.654759,0.578721 -5.105149,1.026178 -5.610797,5.574258 l -0.31429,2.826897 -0.773198,-2.762683 z"
     id="path3013"
     inkscape:connector-curvature="0" />
  <path
     style="fill:#ffffff;fill-opacity:1;stroke:none"
     d="m 153.99042,32.221995 c 0.68193,-3.053226 0.86287,-8.74462 0.31081,-9.776162 -0.65132,-1.216998 -3.035,-2.310903 -5.1454,-2.361292 -1.25431,-0.02995 -0.94006,-0.234834 1.92616,-1.255833 5.4207,-1.930948 5.48,-1.98453 5.48,-4.951032 l 0,-2.557186 0.94875,1.206139 c 1.65462,2.103511 2.43691,2.266827 4.86572,1.015803 1.19746,-0.616785 3.80745,-2.159956 5.79998,-3.429269 1.99252,-1.2693121 3.70958,-2.2210324 3.81568,-2.1149336 0.1061,0.1060987 -0.72107,1.3871 -1.83815,2.8466696 -3.91623,5.116919 -4.60084,6.395275 -4.28109,7.994015 0.16136,0.80682 1.52317,3.287028 3.02625,5.511576 1.50307,2.224547 2.73286,4.119226 2.73286,4.210397 0,0.09117 -2.48283,-0.948657 -5.51741,-2.310729 -3.03457,-1.362073 -5.59162,-2.476497 -5.68232,-2.476497 -0.0907,0 -1.64607,2.209125 -3.45637,4.909167 -2.21443,3.302787 -3.19134,4.460875 -2.98547,3.539167 l 0,0 z"
     id="path3015"
     inkscape:connector-curvature="0" />
  <path
     style="fill:#ffffff;fill-opacity:1;stroke:none"
     d=""
     id="path3017"
     inkscape:connector-curvature="0" />
  <path
     style="fill:#ffffff;fill-opacity:1;stroke:none"
     d="m 265.00797,117.61866 c -0.19825,-0.50233 -0.75599,-1.94032 -1.23943,-3.19552 -1.30022,-3.37589 -1.38103,-3.42614 -5.50907,-3.42614 l -3.68069,0 2.56372,-2.3975 c 3.24042,-3.03035 3.52343,-4.09301 1.98499,-7.45341 -0.65202,-1.424204 -1.1855,-2.676794 -1.1855,-2.783531 0,-0.106737 0.95431,0.534596 2.12067,1.425185 1.16637,0.890586 2.40958,1.619256 2.76268,1.619256 1.23665,0 3.12171,-1.29229 4.63833,-3.179745 0.84151,-1.047271 1.6138,-1.820342 1.7162,-1.717937 0.10241,0.102406 -0.13916,1.62692 -0.53682,3.387809 -0.93308,4.131813 -0.35669,5.716183 2.98595,8.207553 l 2.34883,1.75065 -3.242,0.13456 c -3.75476,0.15584 -3.76669,0.16924 -4.75627,5.34544 -0.46078,2.41021 -0.69982,2.97196 -0.97159,2.28333 z"
     id="path3019"
     inkscape:connector-curvature="0" />
  <path
     style="fill:#ffffff;fill-opacity:1;stroke:none"
     d="m 264.93634,117.39033 c -0.26145,-0.62792 -0.7537,-1.92138 -1.0939,-2.87437 -1.09667,-3.0721 -1.83189,-3.51896 -5.78977,-3.51896 l -3.50709,0 2.5638,-2.62584 c 3.28498,-3.36447 3.47354,-4.046 2.00616,-7.25117 -0.64545,-1.40985 -1.17355,-2.658549 -1.17355,-2.774886 0,-0.116337 0.77063,0.394809 1.7125,1.135879 3.25224,2.558877 4.62656,2.318917 7.81761,-1.364956 0.84615,-0.97682 1.61185,-1.702627 1.70158,-1.612905 0.0897,0.08972 -0.10117,1.458798 -0.42419,3.042391 -0.95852,4.699067 -0.42735,5.991587 3.80584,9.260877 l 1.59833,1.23438 -2.96833,0.0284 c -1.63259,0.0156 -3.2064,0.17992 -3.49737,0.36507 -0.4866,0.30962 -1.67076,4.23731 -2.09718,6.95605 l -0.17907,1.14167 -0.47537,-1.14167 z"
     id="path3021"
     inkscape:connector-curvature="0" />
  <path
     style="fill:#4d4d4d;fill-opacity:1;stroke:none"
     d="m 282.77024,182.06875 c -1.39281,-1.39281 -1.99491,-2.37576 -1.99491,-3.25675 0,-1.69896 3.50131,-5.25167 5.17569,-5.25167 1.46061,0 4.17084,2.29789 4.78368,4.05589 0.60223,1.72754 -0.44294,3.87086 -2.60351,5.33901 -2.26354,1.53811 -3.06965,1.40482 -5.36095,-0.88648 l 0,0 z"
     id="path3023"
     inkscape:connector-curvature="0" />
  <path
     style="fill:#cccccc;fill-opacity:1;stroke:none"
     d="m 265.00205,117.61866 c -1.4734,-3.74091 -2.54046,-5.70139 -3.33447,-6.12633 -0.50905,-0.27243 -2.30608,-0.49533 -3.99341,-0.49533 l -3.06787,0 2.58118,-2.7061 c 2.93871,-3.08093 3.20503,-4.3232 1.65782,-7.73294 -0.49682,-1.094888 -0.90331,-2.07442 -0.90331,-2.17674 0,-0.10232 1.05706,0.541089 2.34902,1.429798 2.8593,1.966862 3.42034,1.857962 6.73002,-1.306294 2.08618,-1.994519 2.41331,-2.176946 2.16571,-1.207728 -0.68982,2.700226 -0.8463,6.407624 -0.32369,7.669314 0.29917,0.72226 1.60078,2.11776 2.89245,3.10111 l 2.34851,1.78791 -3.01833,0.13413 c -2.02368,0.0899 -3.20994,0.36502 -3.59979,0.83476 -0.31981,0.38534 -0.92856,2.27723 -1.35279,4.2042 -0.58367,2.65124 -0.85883,3.28138 -1.13105,2.59024 z"
     id="path3025"
     inkscape:connector-curvature="0" />
  <path
     style="fill:#cccccc;fill-opacity:1;stroke:none"
     d="m 93.31151,250.85116 c 1.152419,-2.84338 1.263344,-3.47123 0.756632,-4.2826 -0.454574,-0.72789 -0.288095,-0.95778 1.268774,-1.75204 0.985601,-0.50281 1.92967,-1.34796 2.097931,-1.87811 0.302252,-0.95231 0.320793,-0.94966 1.54236,0.22068 0.817228,0.78295 1.744313,1.18457 2.734423,1.18457 l 1.49798,0 -1.86547,2.1193 c -1.405174,1.59636 -1.865481,2.50421 -1.865481,3.67923 0,1.52078 -0.02547,1.54209 -1.014944,0.84904 -1.26465,-0.8858 -2.054509,-0.8907 -3.718089,-0.0231 -1.668774,0.87033 -1.828973,0.85726 -1.434116,-0.11698 z"
     id="path3029"
     inkscape:connector-curvature="0" />
  <path
     style="fill:#cccccc;fill-opacity:1;stroke:none"
     d="m 167.06993,258.27675 c -1.9136,-1.97434 -3.91796,-2.42032 -6.40507,-1.42518 -2.39024,0.95638 -2.33451,0.98653 -1.5679,-0.84824 1.29643,-3.10278 0.42336,-6.12977 -2.38091,-8.2548 -0.74657,-0.56574 -0.53003,-0.63742 1.96452,-0.65034 3.50915,-0.0182 4.68497,-0.84692 5.04865,-3.55836 0.32891,-2.45221 0.84938,-2.47814 1.2358,-0.0616 0.63771,3.98797 2.29534,5.38264 7.28724,6.13122 l 2.18441,0.32758 -2.30852,1.31845 c -3.21607,1.83677 -3.88771,3.00325 -3.5218,6.11654 0.16149,1.37405 0.22939,2.49827 0.15088,2.49827 -0.0785,0 -0.83779,-0.71711 -1.6873,-1.59358 z"
     id="path3031"
     inkscape:connector-curvature="0" />
  <path
     style="fill:#cccccc;fill-opacity:1;stroke:none"
     d=""
     id="path3033"
     inkscape:connector-curvature="0" />
  <path
     style="fill:#cccccc;fill-opacity:1;stroke:none"
     d="m 170.28285,177.01047 c -0.7666,-0.9237 -0.41263,-2.72465 0.57243,-2.91245 1.14511,-0.21831 3.06005,1.13588 3.06005,2.16398 0,1.41804 -2.62747,1.95943 -3.63248,0.74847 z"
     id="path3035"
     inkscape:connector-curvature="0" />
  <path
     style="fill:#cccccc;fill-opacity:1;stroke:none"
     d="m 214.12018,145.95391 c -0.71917,-0.86655 -0.20878,-2.41154 0.91442,-2.76803 1.18773,-0.37697 1.80739,0.0728 1.80739,1.31173 0,1.8625 -1.65139,2.74607 -2.72181,1.4563 z"
     id="path3041"
     inkscape:connector-curvature="0" />
  <path
     style="fill:#cccccc;fill-opacity:1;stroke:none"
     d="m 208.30665,95.179924 c -0.6507,-1.695695 1.85779,-3.207557 3.01283,-1.815824 0.42046,0.50663 0.43515,0.915918 0.0581,1.620371 -0.61014,1.140044 -2.65847,1.270411 -3.07097,0.195453 z"
     id="path3043"
     inkscape:connector-curvature="0" />
  <path
     style="fill:#cccccc;fill-opacity:1;stroke:none"
     d="m 240.23419,60.201795 c -0.26699,-0.321701 -0.62569,-1.143713 -0.7971,-1.826694 -0.25228,-1.005137 -0.0484,-1.505059 1.06982,-2.623279 1.53733,-1.537325 2.82085,-1.802048 2.82346,-0.582327 9.6e-4,0.439542 0.40051,1.453223 0.88794,2.252625 l 0.88624,1.453458 -1.45878,0.309866 c -0.80233,0.170426 -1.78894,0.60043 -2.19246,0.955563 -0.59326,0.522108 -0.82661,0.533743 -1.21912,0.06079 l 0,0 z"
     id="path3045"
     inkscape:connector-curvature="0" />
  <path
     style="fill:#cccccc;fill-opacity:1;stroke:none"
     d="m 153.9859,32.221995 c 0.61064,-3.038532 0.82056,-8.275028 0.37704,-9.405802 -0.54424,-1.387606 -3.00094,-2.682265 -5.17663,-2.728043 l -1.52932,-0.03218 1.82667,-0.651607 c 6.9399,-2.475597 7.07833,-2.588212 7.07833,-5.758285 l 0,-2.299009 1.32489,1.418295 c 0.76321,0.817022 1.78494,1.418294 2.41006,1.418294 0.59685,0 3.43555,-1.428609 6.30821,-3.174688 2.87266,-1.746078 5.29194,-3.1057732 5.37617,-3.0215444 0.0842,0.084229 -1.29567,2.1534454 -3.06643,4.5982584 -1.77076,2.444813 -3.21956,4.842213 -3.21956,5.327556 0,1.150271 0.99789,3.053399 3.72054,7.095629 1.21887,1.809615 2.21612,3.392096 2.21612,3.516624 0,0.124529 -2.31187,-0.810543 -5.1375,-2.077937 -2.82562,-1.267394 -5.3768,-2.402743 -5.66928,-2.522997 -0.29574,-0.121595 -1.99274,1.975413 -3.82321,4.724394 -2.29135,3.441143 -3.20777,4.526777 -3.0161,3.573039 z"
     id="path3047"
     inkscape:connector-curvature="0" />
  <path
     style="fill:#cccccc;fill-opacity:1;stroke:none"
     d="m 82.470147,74.620245 c -0.939807,-3.380299 -2.649246,-5.388251 -4.24602,-4.987487 -1.357637,0.340745 -1.39202,0.09925 -0.220175,-1.546457 1.54623,-2.17148 1.827732,-3.438443 1.377971,-6.201881 -0.23087,-1.41852 -0.558616,-3.016614 -0.728325,-3.551318 -0.262104,-0.825818 -0.05597,-0.750411 1.369141,0.500852 0.922735,0.810173 2.052618,1.473041 2.51085,1.473041 0.458232,0 1.795758,-0.847323 2.972281,-1.882939 1.176523,-1.035617 2.215042,-1.806242 2.307821,-1.7125 0.09278,0.09374 -0.162223,1.752136 -0.56667,3.685321 -0.866792,4.143118 -0.621557,4.887287 2.296013,6.967285 l 1.891979,1.348832 -3.116904,0.510084 c -3.678829,0.602043 -4.199494,1.136046 -4.602914,4.720821 -0.412651,3.666812 -0.413497,3.667271 -1.245048,0.676346 l 0,0 z"
     id="path3049"
     inkscape:connector-curvature="0" />
  <path
     style="fill:#cccccc;fill-opacity:1;stroke:none"
     d="m 59.291992,173.56033 c -0.627916,-0.49116 -1.494061,-0.89759 -1.924766,-0.90318 -1.838651,-0.0238 -2.390833,-4.66536 -0.5869,-4.93336 2.149863,-0.31939 2.946016,-0.59972 3.6214,-1.2751 0.651466,-0.65147 0.716933,-0.62781 0.716933,0.25904 0,1.50785 0.847897,2.7426 1.883329,2.7426 0.893057,0 0.881375,0.0671 -0.244534,1.4052 -0.650317,0.77285 -1.307363,1.9031 -1.460101,2.51166 -0.333567,1.32904 -0.529118,1.34787 -2.005361,0.19314 z"
     id="path3053"
     inkscape:connector-curvature="0" />
  <path
     style="fill:#cccccc;fill-opacity:1;stroke:none"
     d="m 220.72366,200.047 c -0.15523,-0.25117 -1.50956,-0.45667 -3.00962,-0.45667 -2.20397,0 -2.77226,-0.15337 -2.96124,-0.79917 -0.12863,-0.43954 -0.61886,-1.56979 -1.0894,-2.51166 l -0.85553,-1.7125 1.58115,0 c 1.55532,0 3.33503,-1.24382 3.95762,-2.76595 0.19943,-0.48758 0.6958,-0.18959 1.90775,1.14528 1.11748,1.23083 1.52884,2.02917 1.29421,2.51167 -0.18918,0.38903 -0.31235,1.68345 -0.27371,2.8765 0.0711,2.19527 -0.0399,2.53992 -0.55123,1.7125 z"
     id="path3055"
     inkscape:connector-curvature="0" />
  <path
     style="fill:#cccccc;fill-opacity:1;stroke:none"
     d="m 61.041391,200.74478 c -0.798502,-1.75252 -0.02694,-3.62565 1.569618,-3.81059 0.995627,-0.11534 1.34032,0.10042 1.708815,1.06964 1.030821,2.71126 -2.099513,5.3284 -3.278433,2.74095 z"
     id="path3057"
     inkscape:connector-curvature="0" />
  <path
     style="fill:#cccccc;fill-opacity:1;stroke:none"
     d="m 20.034432,150.87166 c -1.220336,-1.55141 -1.037971,-2.51575 0.583594,-3.08602 2.509223,-0.88245 4.018037,1.55094 2.080751,3.3558 -1.314304,1.22446 -1.504092,1.20524 -2.664345,-0.26978 z"
     id="path3059"
     inkscape:connector-curvature="0" />
  <path
     style="fill:#cccccc;fill-opacity:1;stroke:none"
     d=""
     id="path3061"
     inkscape:connector-curvature="0" />
  <path
     style="fill:#333333;fill-opacity:1;stroke:none"
     d="m 59.51248,235.53581 c -4.903732,-2.3506 -8.62246,-7.64172 -10.046018,-14.2938 -0.87982,-4.11127 -0.893402,-14.48522 -0.02427,-18.53432 0.913933,-4.2578 2.779104,-7.80928 5.377976,-10.24022 4.960537,-4.64 11.295303,-5.86686 16.271796,-3.15139 3.781648,2.0635 6.631316,5.54436 9.591927,11.71649 1.420704,2.96181 2.688561,5.39021 2.817465,5.39643 0.460731,0.0223 5.082193,-13.44615 7.313338,-21.31341 1.249595,-4.40619 2.323059,-9.16828 2.385476,-10.58242 l 0.113486,-2.57117 -5.190427,-2.60307 c -11.645964,-5.84061 -18.812155,-13.47194 -27.611245,-29.40341 -2.3905,-4.32819 -4.548999,-7.72352 -4.910044,-7.72352 -0.411233,0 -1.111285,1.48666 -1.935358,4.11 -3.159086,10.05657 -11.455529,30.98894 -14.826343,37.40766 -1.827517,3.47996 -6.165932,8.26304 -8.774917,9.67429 -2.400132,1.29828 -9.134229,1.22656 -11.665526,-0.12424 -8.38972,-4.47708 -12.6504904,-20.03202 -8.7058751,-31.78282 2.6896681,-8.01238 6.9720781,-11.90241 13.1291841,-11.92621 2.602583,-0.01 3.529029,0.23354 6.531186,1.71728 4.093148,2.02294 5.088158,3.20875 8.039439,9.58099 1.118292,2.41456 2.169161,4.3934 2.335263,4.39741 0.412183,0.01 6.649368,-18.94306 9.465417,-28.7627 5.847218,-20.38942 8.260597,-33.425387 11.667033,-63.019998 1.162016,-10.095416 1.742426,-12.786667 2.757637,-12.786667 1.539081,0 2.080582,2.357306 3.671549,15.983334 2.197951,18.824546 6.942658,32.567786 15.765933,45.666671 4.081678,6.05958 7.518263,10.17891 14.667659,17.58166 l 6.615556,6.85 -0.35419,7.535 c -0.89711,19.08479 -3.03952,32.44514 -7.525356,46.92911 -4.391548,14.17954 -9.507457,24.6663 -17.875043,36.64089 -4.611936,6.6 -7.035091,8.17285 -13.128199,8.52142 -3.178737,0.18185 -3.950975,0.0663 -5.944512,-0.88927 l 0,0 z m 8.76895,-1.721 c 2.600301,-0.97532 4.824542,-2.96528 7.840743,-7.01486 7.329733,-9.84096 14.693743,-24.68945 18.511564,-37.32596 4.150949,-13.73912 5.873953,-25.11706 6.924353,-45.72523 l 0.29749,-5.83658 -6.417745,-6.58634 c -7.133982,-7.3214 -10.775689,-11.70533 -14.799361,-17.81566 -1.487998,-2.25967 -2.94381,-4.26014 -3.235132,-4.44551 -0.291326,-0.18536 -0.373265,-0.34017 -0.182086,-0.34402 0.341111,-0.007 -3.157595,-7.32267 -3.716071,-7.77032 -0.156673,-0.12558 -0.285416,-0.43383 -0.286101,-0.685 -0.0023,-0.762703 -2.69485,-7.295761 -3.074778,-7.459838 -0.19507,-0.08424 -0.253414,-0.317009 -0.129657,-0.517254 0.123761,-0.200246 -0.197645,-1.56982 -0.714231,-3.043497 -1.076551,-3.0711 -1.290563,-3.88795 -1.599352,-6.104412 -0.122469,-0.879084 -0.398798,-1.659562 -0.614061,-1.734396 -0.215264,-0.07484 -0.286198,-0.538304 -0.157637,-1.029933 0.128565,-0.491628 -0.0051,-1.18163 -0.296957,-1.533337 -0.291892,-0.351707 -0.598945,-1.634988 -0.682346,-2.851735 -0.0834,-1.216746 -0.184982,-2.212266 -0.22574,-2.212266 -0.04073,0 -0.168277,-1.220454 -0.28338,-2.71212 -0.115103,-1.491666 -0.364082,-2.827416 -0.553283,-2.968333 -0.189202,-0.140918 -0.402319,-1.673992 -0.4736,-3.406831 -0.178009,-4.327693 -0.7984,-5.247152 -1.22932,-1.821939 -0.301162,2.393839 -0.622249,5.909877 -0.912826,9.99589 -0.05358,0.7535 -0.2544,1.730084 -0.446259,2.170187 -0.191855,0.440104 -0.223164,1.300884 -0.06957,1.912847 0.153595,0.611962 0.05966,1.248381 -0.208747,1.414265 -0.268406,0.165884 -0.430861,0.846477 -0.361004,1.512428 0.06985,0.665952 -0.01895,1.446982 -0.19734,1.735623 -0.178388,0.288641 -0.322717,1.007768 -0.320726,1.598059 0.0037,1.113367 -0.202874,2.674507 -0.716241,5.411591 -0.164884,0.879083 -0.347212,2.112083 -0.405182,2.74 -0.05797,0.627916 -0.263761,1.501291 -0.457319,1.940833 -0.193554,0.439542 -0.233631,1.107417 -0.08906,1.484167 0.144572,0.37675 0.04051,0.685 -0.231306,0.685 -0.289312,0 -0.410813,0.567929 -0.293093,1.37 0.110591,0.7535 0.0072,1.37 -0.22974,1.37 -0.236946,0 -0.332604,0.51375 -0.212569,1.141667 0.120034,0.627916 0.01726,1.141664 -0.228357,1.141664 -0.245631,0 -0.339125,0.411 -0.20776,0.91334 0.131365,0.50233 0.02863,0.91333 -0.228311,0.91333 -0.256929,0 -0.368941,0.51375 -0.248906,1.14167 0.120035,0.62791 0.01726,1.14166 -0.228356,1.14166 -0.245632,0 -0.339175,0.4108 -0.207879,0.91288 0.131296,0.50209 0.03462,1.03903 -0.214857,1.19321 -0.249468,0.15417 -0.352163,0.66813 -0.228215,1.14212 0.123953,0.47399 0.01516,0.86179 -0.241809,0.86179 -0.256949,0 -0.359749,0.4108 -0.228453,0.91288 0.131297,0.50209 0.03462,1.03903 -0.214857,1.19321 -0.249467,0.15417 -0.352163,0.66813 -0.228214,1.14212 0.123953,0.47399 0.07883,0.86179 -0.100261,0.86179 -0.44525,0 -1.942587,6.36666 -1.620071,6.88851 0.142142,0.22999 0.01685,0.41816 -0.278439,0.41816 -0.311963,0 -0.436871,0.38244 -0.298158,0.91288 0.131297,0.50208 0.0385,1.03662 -0.206205,1.18785 -0.24471,0.15125 -0.334617,0.56245 -0.199793,0.91379 0.134823,0.35135 0.02212,0.63881 -0.250463,0.63881 -0.272578,0 -0.388117,0.411 -0.256754,0.91334 0.131363,0.50233 0.09556,0.91333 -0.07957,0.91333 -0.457449,0 -1.963125,5.88844 -1.63955,6.41199 0.148888,0.24091 0.07807,0.43801 -0.157365,0.43801 -0.495322,0 -1.511924,3.6444 -1.17064,4.19661 0.12579,0.20353 -0.01091,0.37006 -0.303766,0.37006 -0.292862,0 -0.41419,0.30825 -0.269617,0.685 0.144573,0.37675 0.08668,0.685 -0.128652,0.685 -0.337248,0 -1.08274,2.50679 -1.154366,3.88166 -0.01308,0.25117 -0.132539,0.55942 -0.265453,0.685 -0.516623,0.48813 -3.163486,8.79601 -2.92521,9.18155 0.138842,0.22464 0.05868,0.40845 -0.178139,0.40845 -0.449843,0 -2.656601,4.99742 -2.470268,5.59417 0.05882,0.18837 -0.110683,0.3425 -0.376673,0.3425 -0.265989,0 -0.401337,0.15412 -0.300773,0.3425 0.100564,0.18837 -0.180953,0.68752 -0.625595,1.10921 -0.757357,0.71827 -0.867674,0.71534 -1.74592,-0.0464 -0.515615,-0.44719 -0.80422,-0.94634 -0.641343,-1.10921 0.162876,-0.16288 0.04426,-0.29614 -0.263591,-0.29614 -0.307851,0 -0.448442,-0.18006 -0.312425,-0.40015 0.44122,-0.7139 -1.914702,-6.82133 -3.625605,-9.39891 -1.88287,-2.83667 -6.292054,-6.3829 -8.795617,-7.07416 -2.426004,-0.66985 -4.64692,0.0917 -7.347131,2.51946 -6.664206,5.99169 -8.761911,17.42303 -4.980397,27.14043 4.220149,10.84456 11.826114,14.02141 19.038989,7.95218 3.31038,-2.7855 7.184344,-10.01666 12.823028,-23.93552 3.38059,-8.34485 8.299972,-22.79115 7.952497,-23.35337 -0.133687,-0.21631 -0.07407,-0.39329 0.13248,-0.39329 0.206551,0 0.621061,-1.03357 0.921136,-2.29681 0.300076,-1.26324 0.887523,-2.63874 1.305446,-3.05666 0.708697,-0.70869 0.80482,-0.7001 1.427691,0.12764 0.367311,0.48812 2.010635,3.55899 3.651835,6.82416 10.030117,19.95493 18.697564,29.40815 31.98808,34.88808 1.820959,0.75082 3.310834,1.2283 3.310834,1.06108 0,-0.16723 0.325242,0.1603 0.722762,0.72784 0.509936,0.72804 0.678026,1.80011 0.570833,3.64078 -0.08356,1.43489 -0.272137,2.71164 -0.419056,2.83722 -0.471175,0.40275 -2.275976,8.25635 -1.999985,8.70292 0.146307,0.23673 0.08671,0.43041 -0.132433,0.43041 -0.344921,0 -2.253792,5.81976 -2.54636,7.76334 -0.05671,0.37675 -0.261195,0.938 -0.454411,1.24724 -0.651499,1.04269 -2.088318,5.60269 -1.767588,5.60975 0.174849,0.004 0.08157,0.15797 -0.207285,0.3425 -0.288855,0.18453 -0.597105,0.74651 -0.685,1.24884 -0.0879,0.50233 -0.293395,1.01608 -0.456667,1.14167 -0.163272,0.12558 -0.368772,0.63933 -0.456666,1.14166 -0.08789,0.50234 -0.28633,1.01609 -0.440967,1.14167 -0.154632,0.12558 -0.771132,1.12957 -1.37,2.23109 -1.776853,3.26824 -1.961128,3.48836 -2.915511,3.48268 -0.505676,-0.003 -1.114536,-0.46405 -1.364122,-1.03294 -0.247934,-0.56512 -0.601111,-1.0275 -0.784832,-1.0275 -0.183726,0 -0.215762,-0.30825 -0.07119,-0.685 0.144576,-0.37675 0.08675,-0.68616 -0.128497,-0.68758 -0.21525,-0.001 -0.422028,-0.82057 -0.459516,-1.82033 -0.09893,-2.63847 -2.506086,-7.40507 -5.15294,-10.20372 -4.380676,-4.63192 -10.148239,-6.31182 -13.838955,-4.03083 -4.40992,2.72548 -8.487953,8.91917 -9.531259,14.47602 -0.633221,3.37265 -0.265123,10.89943 0.713842,14.59644 1.643458,6.20645 5.165847,11.26806 9.077388,13.04405 2.112116,0.95899 5.497198,1.14125 7.467852,0.4021 z"
     id="path3063"
     inkscape:connector-curvature="0" />
  <path
     style="fill:#333333;fill-opacity:1;stroke:none"
     d="m 13.252977,123.72974 c -5.2229345,-0.8689 -9.595618,-4.08061 -11.663604,-8.56685 -0.78737639,-1.70811 -0.97361798,-2.9863 -0.97604658,-6.69868 -0.002889,-4.41575 0.063873,-4.72319 1.78041308,-8.19884 C 5.3724653,94.234037 11.20352,89.079948 18.12519,86.360287 c 3.593214,-1.411845 10.803612,-2.057256 16.304843,-1.459465 5.721644,0.621742 9.222164,2.240003 12.4243,5.743648 3.358167,3.674372 3.993249,5.250711 3.968082,9.84919 -0.01863,3.4004 -0.200034,4.2497 -1.463233,6.85 -3.25396,6.69828 -9.805372,12.33983 -17.208229,14.81834 -2.829074,0.94719 -10.642934,2.07601 -13.958961,2.01658 -1.381417,-0.0248 -3.603974,-0.22674 -4.939015,-0.44884 z m 14.816798,-2.94136 c 5.887366,-1.52967 10.038442,-3.80191 13.892083,-7.60433 5.289501,-5.2192 7.879034,-12.00004 6.350927,-16.630255 C 47.080484,92.819893 40.779492,88.242968 35.490513,87.239934 29.582358,86.119475 21.452385,87.184187 16.411634,89.738529 11.21383,92.372456 4.9279122,99.468855 3.1628121,104.6956 c -1.2835851,3.80091 -1.2055303,5.27251 0.4468237,8.42419 3.2359229,6.17216 7.8548522,8.7486 15.7881952,8.80666 3.07991,0.0225 5.353268,-0.27581 8.671944,-1.13807 z"
     id="path3065"
     inkscape:connector-curvature="0" />
  <path
     style="fill:#333333;fill-opacity:1;stroke:none"
     d="m 128.64625,236.58416 c -7.08543,-1.23679 -13.30039,-7.29239 -16.19143,-15.77624 -3.30867,-9.70938 -1.05443,-23.24758 4.4664,-26.82375 2.71935,-1.76148 4.97717,-2.26868 9.28582,-2.086 3.02823,0.1284 4.19821,0.40873 6.3936,1.5319 5.24766,2.68473 7.10055,6.96111 6.26373,14.45639 -0.62813,5.62593 -2.12107,8.54817 -5.5144,10.79365 -1.41947,0.93931 -2.65088,2.0715 -2.73648,2.51598 -0.19974,1.03716 2.76488,3.78113 4.81682,4.45834 0.84893,0.28017 2.05154,0.3819 2.67245,0.22606 1.95587,-0.49089 4.64962,-3.35209 5.7601,-6.11815 0.98566,-2.45515 1.03978,-3.18618 1.037,-14.00701 -0.003,-11.28936 -0.75271,-19.93835 -2.12795,-24.54583 -0.59833,-2.00458 -0.7055,-2.02129 -6.26766,-0.97714 -4.73184,0.88828 -16.3827,0.65478 -21.04226,-0.42171 -4.14861,-0.95845 -8.04578,-2.49094 -9.48691,-3.73054 -1.0872,-0.93517 -1.24142,-1.43522 -1.39781,-4.53228 -0.11733,-2.3234 0.0114,-3.70668 0.38705,-4.15932 0.6606,-0.79598 2.60277,-0.87924 4.41711,-0.18937 7.18116,2.73052 18.71201,3.90033 24.89233,2.52534 5.89826,-1.31224 6.07135,-2.0619 3.09382,-13.39993 -4.15781,-15.83235 -9.28079,-31.62755 -10.258,-31.62755 -0.70897,0 -2.8584,1.41537 -3.92574,2.58506 -2.84793,3.12102 -4.44379,7.80715 -4.56277,13.39827 -0.0803,3.77448 -0.47137,4.7703 -1.94041,4.94134 -1.02647,0.11952 -1.73473,-0.35037 -3.86361,-2.56331 -4.67665,-4.86131 -6.93156,-10.983 -6.93156,-18.81803 0,-8.70492 1.94124,-13.19216 8.82721,-20.40444 l 4.53569,-4.75062 -0.54641,-1.823767 c -0.98494,-3.287438 -2.28239,-5.901174 -2.92933,-5.901174 -1.39562,0 -11.37262,15.249971 -13.54287,20.700451 -0.58299,1.46417 -1.69737,4.93337 -2.476387,7.70933 -1.710765,6.09615 -2.450075,6.89288 -4.879916,5.25891 -2.416777,-1.62518 -4.900318,-5.59446 -5.49378,-8.78036 -0.651479,-3.49734 -0.244627,-12.80368 0.718719,-16.439998 0.93581,-3.53238 4.449635,-10.393642 10.212274,-19.940985 6.82662,-11.310094 7.14568,-12.012776 6.48181,-14.274952 -0.61571,-2.09805 -4.01328,-10.643371 -9.727419,-24.46573 -7.811014,-18.89464 -9.642769,-25.048057 -9.388966,-31.5403577 0.152078,-3.8901721 0.213005,-4.0883294 1.755878,-5.710703 2.269386,-2.386323 5.092778,-3.55391836 8.532,-3.52835192 2.626697,0.0195261 3.439007,0.32438678 11.644997,4.37037852 9.47549,4.6719202 13.45874,7.4761691 16.44724,11.5790061 5.91088,8.114904 8.78407,17.516448 8.77453,28.711695 -0.01,11.615106 -3.04595,21.322735 -10.26482,32.821245 l -2.83011,4.507912 1.26409,3.631309 c 0.69525,1.997218 1.80798,5.106154 2.47273,6.90875 l 1.20863,3.277451 7.29119,0.288581 c 8.06821,0.319334 10.40988,0.834737 15.16995,3.338928 8.69564,4.574632 14.8473,12.278312 18.34037,22.967522 2.76078,8.44832 3.41908,15.41861 2.10489,22.28725 -1.68155,8.78871 -5.41035,15.24565 -14.82368,25.66925 l -4.22779,4.68153 0.7126,4.22347 c 1.33546,7.91496 1.75417,14.71563 1.8205,29.56847 0.0748,16.74307 -0.0514,17.63442 -2.94107,20.76929 -4.30315,4.66837 -14.57385,7.84039 -21.48199,6.63454 l 0,0 z m 13.18955,-4.08583 c 5.211,-2.4141 8.0433,-5.86511 9.26497,-11.28888 1.27333,-5.65312 0.32249,-24.36918 -2.04953,-40.34245 l -1.11895,-7.535 3.09966,-3.19667 c 5.18602,-5.34832 10.4852,-11.52069 12.22242,-14.2364 3.33437,-5.21245 4.52455,-10.92419 4.12275,-19.78527 -0.51333,-11.32092 -4.02009,-20.33123 -10.65969,-27.38916 -6.49152,-6.90054 -12.59993,-9.727134 -21.1621,-9.792542 -2.63725,-0.02014 -5.206,0.149093 -5.70834,0.376083 -2.0378,0.920829 -2.85234,0.771469 -4.06858,-0.746056 -0.65827,-0.821329 -1.40736,-1.750198 -1.66464,-2.064156 -0.25728,-0.313958 -0.33177,-0.570833 -0.16553,-0.570833 0.16624,0 0.0612,-0.290436 -0.23339,-0.645412 -0.29461,-0.354981 -0.64011,-1.228356 -0.76778,-1.940833 -0.12767,-0.712483 -0.42682,-1.364347 -0.66478,-1.448593 -0.23796,-0.08425 -0.33235,-0.315461 -0.20977,-0.513814 0.3111,-0.503365 -1.12729,-4.584682 -1.61579,-4.584682 -0.21967,0 -0.28112,-0.30825 -0.13655,-0.685 0.14458,-0.37675 0.0418,-0.685 -0.22833,-0.685 -0.27016,0 -0.37291,-0.30825 -0.22833,-0.685 0.14457,-0.37675 0.0418,-0.685 -0.22834,-0.685 -0.27015,0 -0.3729,-0.30825 -0.22833,-0.685 0.14457,-0.37675 0.0472,-0.685 -0.21644,-0.685 -0.76589,0 -0.19328,-1.875407 0.96479,-3.159859 4.00303,-4.439901 9.88651,-16.774217 11.57494,-24.266057 0.52066,-2.310258 0.77007,-5.5202 0.7786,-10.020751 0.0108,-5.680578 -0.15952,-7.303145 -1.19822,-11.416667 -2.39762,-9.495219 -7.72981,-17.800357 -14.17524,-22.078585 -5.58375,-3.7062823 -16.7125,-8.5180817 -19.70065,-8.5180817 -2.528917,0 -5.682886,2.2898673 -7.182353,5.2145849 -0.709968,1.384796 -0.852785,2.2774168 -0.631399,3.9463048 0.493769,3.722214 4.085725,13.835566 11.030822,31.057887 9.61495,23.842995 9.79819,24.421162 8.49273,26.797057 -0.31051,0.565125 -0.45459,1.0275 -0.32017,1.0275 0.13442,0 -0.0761,0.359625 -0.46787,0.799167 -0.92328,1.035907 -8.735181,13.680377 -11.687337,18.917294 -1.258315,2.232168 -2.871328,5.657259 -3.584473,7.611322 -2.132318,5.842692 -2.916021,14.398212 -1.644897,17.956992 1.022401,2.86243 4.011278,5.96226 4.895896,5.07764 0.551884,-0.55189 2.629538,-7.79707 2.323636,-8.10297 -0.135361,-0.13536 0.01563,-0.24611 0.335525,-0.24611 0.329392,0 0.467639,-0.29707 0.318777,-0.685 -0.144573,-0.37675 -0.08874,-0.685 0.124072,-0.685 0.436746,0 1.563291,-2.50416 1.563291,-3.475 0,-0.34925 0.18338,-0.635 0.40751,-0.635 0.22413,0 0.2805,-0.2055 0.12527,-0.45667 -0.15523,-0.25116 -0.0525,-0.45666 0.22833,-0.45666 0.28082,0 0.38357,-0.2055 0.22834,-0.45667 -0.15523,-0.25117 -0.0774,-0.45667 0.17288,-0.45667 0.50829,0 3.08867,-4.53288 2.90962,-5.11123 -0.0628,-0.20282 0.0605,-0.36877 0.27395,-0.36877 0.21346,0 1.58094,-1.798123 3.03883,-3.995831 2.95371,-4.452596 6.55793,-9.306744 7.27298,-9.795231 0.71626,-0.489304 1.97034,0.897405 2.81737,3.115321 0.4199,1.099493 0.88966,1.999223 1.04391,1.999401 0.15425,1.73e-4 0.3244,0.462548 0.3781,1.0275 0.0537,0.564947 0.48956,2.462004 0.96857,4.215686 1.05895,3.876924 1.15641,3.683974 -4.46406,8.838224 -3.10674,2.84905 -4.43109,4.44159 -5.50116,6.6152 -4.4648,9.0693 -3.47528,18.73316 2.88524,28.17799 1.52974,2.27155 1.63939,2.34603 1.90366,1.2931 0.15423,-0.61451 0.3201,-2.18534 0.36859,-3.49075 0.0485,-1.30541 0.22954,-2.37508 0.4023,-2.37704 0.17277,-0.002 0.3138,-0.36319 0.31341,-0.80273 -0.001,-1.17991 0.25363,-2.59366 0.51414,-2.85417 0.12558,-0.12558 0.99276,-1.77931 1.92705,-3.67495 1.46885,-2.98023 3.6886,-5.88983 4.26645,-5.59239 0.10079,0.0519 0.92725,-0.21653 1.83658,-0.59647 2.26574,-0.94669 3.4833,-0.67216 4.25239,0.95881 0.35532,0.7535 0.80807,1.43465 1.00613,1.51367 0.19805,0.079 0.2469,0.43864 0.10855,0.79917 -0.13834,0.36052 -0.0119,0.65549 0.28094,0.65549 0.29286,0 0.42278,0.1775 0.2887,0.39444 -0.29268,0.47358 2.46098,8.90551 2.9754,9.1109 0.19791,0.079 0.24664,0.43864 0.1083,0.79917 -0.13835,0.36052 -0.0119,0.65549 0.28094,0.65549 0.29286,0 0.40808,0.20127 0.25604,0.44728 -0.34412,0.55679 0.68834,4.11939 1.19381,4.11939 0.20353,0 0.25177,0.30825 0.1072,0.685 -0.14458,0.37675 -0.0233,0.685 0.26961,0.685 0.29286,0 0.40809,0.20127 0.25605,0.44727 -0.36033,0.58302 0.69997,4.1194 1.23509,4.1194 0.22624,0 0.29085,0.19496 0.14358,0.43324 -0.37059,0.59963 0.67991,4.59009 1.20835,4.59009 0.23618,0 0.31387,0.18695 0.17265,0.41544 -0.29534,0.47788 0.68245,5.06336 1.08046,5.06693 0.14523,0.001 0.31452,0.87437 0.37621,1.94015 0.0617,1.06579 0.28222,1.99449 0.4901,2.06378 0.20788,0.0693 0.28822,0.73748 0.17853,1.48485 -0.10969,0.74736 -0.022,1.35884 0.19489,1.35882 0.48976,-4e-5 0.45879,3.26684 -0.0386,4.07162 -0.48443,0.78383 -3.86746,2.29908 -5.16123,2.31171 -0.56513,0.006 -1.02765,0.16416 -1.02783,0.35253 -4.6e-4,0.65484 -19.0327,0.20793 -21.00634,-0.49327 -4.01246,-1.42554 -7.94594,-2.03212 -8.40117,-1.29554 -0.56412,0.91276 1.43334,3.48554 3.67966,4.73951 3.1016,1.73143 12.19047,4.01347 15.98475,4.01347 3.03833,0 9.33945,-0.8616 9.74342,-1.33229 0.12558,-0.14632 0.94758,-0.30645 1.82666,-0.35583 0.87909,-0.0494 2.77996,-0.18576 4.22417,-0.30305 2.05887,-0.16721 2.62583,-0.0739 2.62583,0.43229 0,0.35505 0.18626,0.64555 0.41392,0.64555 0.22765,0 0.30643,0.411 0.17507,0.91333 -0.13137,0.50233 -0.0607,0.91507 0.15692,0.9172 0.21767,0.002 0.44467,1.18292 0.50445,2.624 0.0598,1.44108 0.29484,2.6822 0.52236,2.75804 0.22751,0.0758 0.30956,0.53596 0.18233,1.0225 -0.12723,0.48653 -0.0749,1.24731 0.11638,1.6906 0.19124,0.4433 0.3029,1.26492 0.24813,1.82584 -0.0548,0.56092 0.0595,1.27721 0.25388,1.59176 0.1944,0.31455 0.2961,1.2376 0.226,2.05124 -0.0701,0.81363 0.007,1.69623 0.17045,1.96134 0.93593,1.51435 0.99091,20.54035 0.0594,20.54535 -0.21766,0.001 -0.29659,0.52078 -0.17542,1.1547 0.12119,0.63391 0.0284,1.27119 -0.20622,1.41619 -0.23461,0.14499 -0.31625,0.55109 -0.18143,0.90243 0.13483,0.35135 0.0241,0.63881 -0.24605,0.63881 -0.27016,0 -0.37291,0.30825 -0.22834,0.685 0.14458,0.37675 0.11398,0.685 -0.068,0.685 -0.18196,0 -0.80307,1.02936 -1.38024,2.28747 -0.80396,1.75249 -1.44416,2.45911 -2.73732,3.02138 -1.80308,0.78396 -7.85293,1.56882 -7.85293,1.01876 0,-0.18116 -0.35963,-0.44372 -0.79917,-0.58346 -0.86443,-0.27482 -2.39055,-1.62174 -4.26714,-3.76609 -0.79398,-0.90728 -1.17043,-1.84788 -1.14154,-2.8523 0.0446,-1.55233 0.21415,-1.73673 4.36166,-4.74461 3.05315,-2.21421 4.58619,-5.46006 4.58619,-9.71014 0,-5.04598 -2.10229,-8.95535 -5.77079,-10.73124 -3.01572,-1.45989 -8.30175,-1.50685 -10.95427,-0.0973 -3.52366,1.87245 -6.04478,6.00988 -7.03441,11.54421 -1.6012,8.95444 3.09964,20.51089 9.9845,24.54568 3.93347,2.30517 6.29074,2.88895 11.03497,2.73283 3.79222,-0.12479 4.75526,-0.33591 7.65047,-1.67718 l 0,0 z"
     id="path3067"
     inkscape:connector-curvature="0" />
  <path
     style="fill:#333333;fill-opacity:1;stroke:none"
     d="m 173.8297,56.341706 c 0.32966,-0.131917 0.72353,-0.115693 0.87528,0.03605 0.15175,0.151747 -0.11797,0.259679 -0.59938,0.23985 -0.53199,-0.02191 -0.6402,-0.130123 -0.2759,-0.275903 z"
     id="path3069"
     inkscape:connector-curvature="0" />
  <path
     style="fill:#333333;fill-opacity:1;stroke:none"
     d="m 179.67743,210.07146 c -7.20372,-1.80932 -15.08746,-9.93012 -18.15521,-18.70113 -0.89038,-2.54571 -1.04107,-3.91111 -1.05838,-9.59 -0.0183,-6.00345 0.0803,-6.84396 1.05644,-9.00262 1.31891,-2.91678 4.80139,-6.27482 7.19723,-6.94005 3.09738,-0.86002 8.29435,-0.59401 11.66941,0.5973 3.47184,1.22548 5.34284,2.44207 7.60288,4.94366 0.86915,0.96205 1.67172,1.65773 1.78349,1.54597 0.22393,-0.22393 -1.34986,-11.18712 -2.43263,-16.94593 -2.33444,-12.41602 -8.26637,-35.39864 -12.08146,-46.80833 -5.47269,-16.36703 -12.03368,-29.919299 -23.43489,-48.406668 -5.84766,-9.482145 -8.50565,-14.273196 -8.50565,-15.331516 0,-1.192419 1.3772,-0.678296 6.07554,2.268069 9.6484,6.050577 12.21308,6.92502 19.19284,6.543927 9.43294,-0.515037 17.80498,-4.590019 26.9056,-13.095957 8.27686,-7.736015 12.02177,-14.485764 16.82392,-30.323124 0.82667,-2.7263138 1.788,-5.0662897 2.13631,-5.1999468 1.76602,-0.6776843 2.2786,1.2203049 5.08629,18.8335468 3.43655,21.558178 7.21208,36.84437 18.1524,73.494683 3.35322,11.233376 3.33946,10.835866 0.56532,16.334716 -1.66601,3.30235 -3.72344,5.65121 -5.94096,6.7825 -2.25543,1.15064 -9.54713,1.23747 -13.22187,0.15744 -11.22332,-3.2986 -19.25402,-13.4378 -19.31613,-24.387671 -0.0337,-5.939169 2.08696,-9.866347 6.5401,-12.111444 3.40203,-1.715167 10.24275,-1.304816 16.40084,0.983824 3.61451,1.343326 4.1698,1.349254 4.1698,0.04452 0,-0.98714 -6.35851,-25.920231 -8.26641,-32.414396 -0.49808,-1.695375 -1.05102,-3.081096 -1.22876,-3.07938 -0.35299,0.0034 -1.0379,1.00135 -4.69918,6.84688 -9.48272,15.139915 -24.98626,26.03 -37.0573,26.03 -1.70043,-9e-6 -3.09168,0.120825 -3.09168,0.268511 0,0.147686 0.7398,1.945811 1.644,3.995833 12.87693,29.194918 21.87875,66.411668 22.93189,94.808728 0.694,18.71312 -0.77077,24.90975 -6.42921,27.19838 -2.28069,0.92246 -8.48813,1.29422 -11.01458,0.65967 z m 8.1491,-2.25462 c 2.2315,-0.84841 5.63724,-4.52192 6.71964,-7.24793 0.94321,-2.37549 1.02294,-3.30868 1.01992,-11.93858 -0.002,-7.15423 -0.24215,-11.08455 -1.01634,-16.66833 -2.99478,-21.59955 -8.32753,-44.27442 -15.10763,-64.23765 -2.67025,-7.862235 -6.7081,-18.188975 -7.29129,-18.647355 -0.15978,-0.125583 -0.36242,-0.639333 -0.45031,-1.141666 -0.0879,-0.502334 -0.39615,-1.064312 -0.685,-1.248842 -0.28886,-0.18453 -0.35894,-0.338655 -0.15574,-0.3425 0.2032,-0.0037 0.20914,-0.263867 0.0132,-0.577825 -0.19593,-0.313958 -0.41875,-0.972915 -0.49515,-1.464343 -0.0764,-0.491432 -0.36121,-1.030897 -0.63291,-1.198818 -0.73624,-0.455018 -0.0267,-2.250741 0.76877,-1.94551 0.3639,0.13964 0.66163,0.0549 0.66163,-0.188311 0,-0.243207 0.51375,-0.343989 1.14166,-0.223954 0.62792,0.120035 1.14371,0.04014 1.14619,-0.177492 0.002,-0.217657 1.67626,-0.43614 3.71949,-0.485519 9.03134,-0.218255 17.05812,-5.086641 26.97568,-16.361203 4.30538,-4.89448 5.64824,-6.74482 9.73868,-13.419026 3.16406,-5.162672 4.10305,-6.212365 4.8951,-5.472218 0.30884,0.288598 0.59284,1.038881 0.6311,1.667296 0.0383,0.628415 0.24377,1.269853 0.45667,1.425419 0.2129,0.155565 0.45283,0.899345 0.53317,1.652845 0.0803,0.7535 0.3385,1.438925 0.57368,1.523171 0.23518,0.08425 0.31836,0.329933 0.18484,0.545968 -0.30993,0.501484 6.14322,25.741501 6.62792,25.923592 0.19921,0.07483 0.25729,0.537209 0.12908,1.0275 -0.12822,0.490291 -0.0229,0.891436 0.23406,0.891436 0.25694,0 0.35969,0.411 0.22833,0.913334 -0.13136,0.502333 -0.0608,0.914256 0.15692,0.915379 0.21767,9.13e-4 0.4335,0.734261 0.47961,1.629186 0.0461,0.89492 0.29288,1.878987 0.54835,2.186812 0.25547,0.307825 0.54258,1.320917 0.63803,2.251316 0.0954,0.930399 0.31107,1.82916 0.47916,1.99725 0.16809,0.168086 0.30561,0.873517 0.30561,1.567623 0,1.192704 -0.0773,1.239832 -1.40815,0.858159 -0.77449,-0.222123 -2.71062,-1.119779 -4.30252,-1.994798 -4.03046,-2.215413 -7.01351,-3.015795 -12.43052,-3.335233 -4.45216,-0.262542 -4.75014,-0.222018 -6.40108,0.870525 -2.10602,1.393692 -4.17861,4.282844 -4.68588,6.53201 -0.55051,2.440911 0.2025,6.709422 1.77728,10.074642 5.03035,10.74961 16.9003,18.09907 25.39165,15.72165 2.72857,-0.76396 6.02923,-3.7213 7.37227,-6.60546 1.58445,-3.40258 1.44544,-6.6884 -0.56339,-13.31703 -0.90402,-2.983034 -1.77739,-5.526448 -1.94083,-5.652031 -0.16344,-0.125583 -0.3629,-0.844833 -0.44324,-1.598334 -0.0803,-0.7535 -0.3385,-1.438924 -0.57368,-1.52317 -0.23518,-0.08425 -0.3221,-0.323873 -0.19316,-0.53251 0.12895,-0.208637 -0.007,-0.961713 -0.30138,-1.673496 -0.29471,-0.711788 -0.55306,-1.431157 -0.57411,-1.598603 -0.0211,-0.167441 -0.17822,-0.44441 -0.34929,-0.615477 -0.17107,-0.171072 -0.20844,-0.578409 -0.083,-0.9052 0.1254,-0.326786 0.0175,-0.724278 -0.23985,-0.883308 -0.25732,-0.159034 -0.3521,-0.590821 -0.21061,-0.959529 0.14149,-0.368704 0.0811,-0.67078 -0.13411,-0.671282 -0.21525,-4.57e-4 -0.43728,-0.652874 -0.4934,-1.44972 -0.0561,-0.796843 -0.26162,-1.567061 -0.45666,-1.711592 -0.19505,-0.14453 -0.42143,-0.876685 -0.50308,-1.627012 -0.0816,-0.75033 -0.28714,-1.46958 -0.45666,-1.598333 -0.16953,-0.128757 -0.31516,-0.439601 -0.32363,-0.690768 -0.0478,-1.416228 -0.80462,-4.338333 -1.12365,-4.338333 -0.20557,0 -0.2663,-0.411 -0.13493,-0.913333 0.13136,-0.502334 0.0286,-0.913334 -0.22834,-0.913334 -0.25694,0 -0.35969,-0.411 -0.22833,-0.913333 0.13137,-0.502333 0.0158,-0.913333 -0.25675,-0.913333 -0.27258,0 -0.38529,-0.287463 -0.25046,-0.638809 0.13482,-0.351345 0.0346,-0.768926 -0.22272,-0.927955 -0.25733,-0.159035 -0.36008,-0.570035 -0.22834,-0.913334 0.13174,-0.343303 0.029,-0.754303 -0.22833,-0.913333 -0.25732,-0.159034 -0.36007,-0.570034 -0.22833,-0.913333 0.13173,-0.343304 0.029,-0.754304 -0.22834,-0.913334 -0.25732,-0.159034 -0.36007,-0.570034 -0.22833,-0.913333 0.13173,-0.343304 0.0167,-0.761921 -0.25573,-0.930267 -0.27239,-0.168341 -0.37702,-0.497378 -0.23251,-0.731191 0.1445,-0.233809 0.10934,-0.673292 -0.0781,-0.976628 -0.18747,-0.303332 -0.39398,-1.04974 -0.4589,-1.658682 -0.25055,-2.34997 -1.72403,-7.836468 -2.1046,-7.836468 -0.22007,0 -0.27235,-0.20673 -0.1162,-0.459399 0.35864,-0.580283 -2.05153,-11.588614 -2.58249,-11.795439 -0.21627,-0.08424 -0.26968,-0.353065 -0.11869,-0.597379 0.37806,-0.611703 -1.25346,-9.067783 -1.74954,-9.067783 -0.21993,0 -0.27792,-0.197316 -0.12888,-0.438479 0.38232,-0.618593 -0.77277,-8.238188 -1.24886,-8.238188 -0.21567,0 -0.26337,-0.208328 -0.10601,-0.462952 0.37745,-0.610719 -0.25301,-7.757048 -0.68434,-7.757048 -0.30734,0 -3.60684,10.306128 -3.80124,11.873333 -0.0467,0.37675 -0.35366,0.968372 -0.68207,1.314716 -0.3284,0.346343 -0.48897,0.911468 -0.35683,1.255833 0.13215,0.344365 0.0661,0.626118 -0.14666,0.626118 -0.42541,0 -1.69345,2.762647 -1.51966,3.310833 0.0597,0.188375 -0.10905,0.3425 -0.37504,0.3425 -0.26599,0 -0.35661,0.2055 -0.20138,0.456667 0.15523,0.251167 0.10506,0.456667 -0.11148,0.456667 -0.39268,0 -4.13117,5.046566 -4.05958,5.48 0.0207,0.125583 -1.03908,1.235541 -2.35515,2.466573 -1.31607,1.231032 -2.29792,2.333175 -2.18189,2.449206 0.11603,0.116031 -0.80801,1.016417 -2.05342,2.000857 -1.24541,0.984441 -2.51686,2.194173 -2.82545,2.688294 -0.30858,0.494122 -0.7444,0.898403 -0.96848,0.898403 -0.22408,0 -0.79114,0.442443 -1.26015,0.983208 -0.469,0.540764 -0.85273,0.831512 -0.85273,0.646106 0,-0.185406 -0.97612,0.374329 -2.16917,1.243856 -1.19304,0.869526 -3.24804,2.12349 -4.56666,2.786588 -1.31863,0.663093 -2.3975,1.419795 -2.3975,1.681552 0,0.261761 -0.1819,0.363511 -0.40421,0.226109 -0.53009,-0.327608 -3.24913,0.626058 -3.24913,1.139589 0,0.218711 -0.30825,0.279375 -0.685,0.134803 -0.37675,-0.144576 -0.685,-0.02324 -0.685,0.269616 0,0.29286 -0.20951,0.402986 -0.46559,0.244723 -0.25608,-0.158267 -1.21125,-0.04165 -2.12261,0.259108 -2.18631,0.721547 -13.29369,0.63727 -13.85756,-0.105147 -0.12876,-0.169524 -0.84801,-0.375024 -1.59834,-0.456667 -0.75032,-0.08164 -1.6476,-0.417137 -1.99395,-0.74554 -0.34634,-0.328403 -0.91146,-0.488976 -1.25583,-0.356835 -0.34436,0.132146 -0.62612,0.05506 -0.62612,-0.171296 0,-0.226356 -0.3905,-0.535496 -0.86777,-0.686981 -0.47728,-0.151481 -2.12128,-1.085598 -3.65333,-2.075815 -1.53206,-0.990215 -2.78556,-1.635231 -2.78556,-1.433367 0,0.348918 4.80954,6.895986 5.41877,7.37639 0.15926,0.125583 0.32439,0.435583 0.36697,0.688886 0.13726,0.816689 6.5372,11.354181 7.12125,11.725146 0.31057,0.197257 0.40797,0.361798 0.21643,0.365643 -0.53689,0.01078 2.80673,6.400325 3.34927,6.400325 0.26283,0 0.35087,0.2055 0.19564,0.456667 -0.15523,0.251167 -0.0525,0.456667 0.22833,0.456667 0.28082,0 0.38357,0.2055 0.22834,0.456666 -0.15523,0.251167 -0.0525,0.456667 0.22833,0.456667 0.28081,0 0.38356,0.2055 0.22833,0.456667 -0.15523,0.251166 -0.0525,0.456666 0.22834,0.456666 0.28081,0 0.38356,0.2055 0.22833,0.456667 -0.15523,0.251167 -0.0525,0.456667 0.22833,0.456667 0.28082,0 0.38357,0.2055 0.22834,0.456666 -0.15523,0.251167 -0.0525,0.456667 0.22833,0.456667 0.28081,0 0.38356,0.2055 0.22833,0.456667 -0.15523,0.251166 -0.0646,0.456666 0.20139,0.456666 0.26599,0 0.4429,0.154125 0.39314,0.3425 -0.16971,0.642412 0.60739,2.3975 1.06153,2.3975 0.24907,0 0.33413,0.192093 0.18902,0.426874 -0.31753,0.513773 1.59618,4.59646 2.15454,4.59646 0.21594,0 0.26561,0.2055 0.11038,0.456666 -0.15523,0.251167 -0.0525,0.456667 0.22834,0.456667 0.28081,0 0.39736,0.183165 0.259,0.407036 -0.29258,0.473404 1.50574,4.770888 2.09137,4.997801 0.21742,0.08425 0.29375,0.317512 0.16961,0.518376 -0.29688,0.480359 0.66172,3.210125 1.12728,3.210125 0.19869,0 0.33289,0.25687 0.29822,0.57083 -0.0932,0.84443 4.34175,14.24667 4.76997,14.4145 0.20162,0.079 0.25338,0.43865 0.11503,0.79917 -0.13834,0.36052 -0.0119,0.6555 0.28094,0.6555 0.29286,0 0.40809,0.20127 0.25605,0.44727 -0.36033,0.58302 0.69997,4.11939 1.2351,4.11939 0.22623,0 0.29209,0.19293 0.14636,0.42873 -0.35576,0.57563 1.16472,5.96461 1.68289,5.96461 0.22481,0 0.28904,0.19368 0.14273,0.43041 -0.3081,0.49852 1.55203,8.24508 1.98069,8.24862 0.15753,0.001 0.33592,0.86139 0.39642,1.9113 0.0605,1.04992 0.266,2.02498 0.45667,2.1668 0.19067,0.14183 0.41299,1.07698 0.49404,2.0781 0.0811,1.00113 0.28656,1.92588 0.45667,2.055 0.17011,0.12913 0.36942,1.1528 0.44291,2.27483 0.0735,1.12204 0.27898,2.14954 0.45666,2.28334 0.17768,0.1338 0.38985,1.26816 0.47148,2.52082 0.0816,1.25266 0.28714,2.38291 0.45667,2.51167 0.16953,0.12876 0.35398,1.05611 0.4099,2.06077 0.17347,3.11716 2.21188,16.25756 2.48032,15.98913 0.3963,-0.39629 -0.13266,4.51222 -0.53314,4.9473 -0.64415,0.69981 -3.66758,-1.16062 -6.19886,-3.8144 -1.52859,-1.60257 -3.66508,-3.20613 -5.53872,-4.15715 -2.62362,-1.33167 -3.50066,-1.54653 -6.27075,-1.53616 -4.66376,0.0174 -7.71036,2.01891 -9.92881,6.52271 -0.95004,1.92874 -1.05504,2.77818 -1.05504,8.53524 0,6.26387 0.03,6.4567 1.48206,9.5226 2.21634,4.67964 7.34752,10.75994 11.22363,13.29967 3.83704,2.51412 9.43104,3.6557 12.39385,2.52924 l 0,0 z"
     id="path3073"
     inkscape:connector-curvature="0" />
  <path
     style="fill:#333333;fill-opacity:1;stroke:none"
     d="m 186.55863,234.32301 c -1.82346,-0.595 -2.59664,-1.35077 -2.59664,-2.53819 0,-1.38739 1.35056,-1.86152 7.76334,-2.72543 23.86252,-3.21471 43.89814,-15.63191 54.78136,-33.95108 3.91742,-6.59401 5.77715,-13.50639 6.22735,-23.14631 0.44232,-9.47157 -1.54485,-19.54926 -4.83148,-24.50225 -3.46908,-5.22792 -8.08156,-8.95517 -12.34892,-9.97889 -3.40983,-0.81801 -3.70757,-0.23862 -1.65131,3.21326 2.30007,3.86112 2.72972,5.94633 2.46947,11.98492 -0.28616,6.63969 -1.2559,9.26149 -4.81123,13.00765 -4.19378,4.41888 -8.78036,6.06105 -14.17201,5.07411 -8.22529,-1.50564 -13.31282,-8.50479 -13.32781,-18.33571 -0.014,-9.14691 5.94472,-17.99512 15.06692,-22.37333 14.04724,-6.74197 29.87151,-4.57734 42.15156,5.76599 5.44773,4.58854 10.69953,13.09682 12.72638,20.61758 0.80212,2.97632 0.98858,4.96504 1.00621,10.73167 0.0232,7.59663 -0.31594,9.83507 -2.56008,16.89666 -3.14826,9.90659 -9.50988,20.01574 -16.41692,26.08786 -15.39507,13.53415 -28.19295,19.23374 -52.66449,23.45435 -5.00679,0.86352 -15.05014,1.29194 -16.8117,0.71714 z m 17.95336,-3.29597 c 24.48789,-4.60472 39.35961,-11.8883 52.30918,-25.61896 8.97112,-9.51223 14.40473,-20.42243 15.79257,-31.71003 1.09426,-8.89986 -0.82838,-18.83991 -5.06283,-26.17464 -3.83664,-6.64569 -12.49369,-13.87949 -20.63526,-17.24275 -2.58287,-1.06698 -3.65284,-1.21964 -9.73008,-1.38826 -8.21389,-0.2279 -10.4355,0.17901 -16.10002,2.94888 -10.37346,5.07248 -16.04582,14.50284 -14.33227,23.82754 1.08037,5.87911 3.25306,9.14752 7.57705,11.39826 1.92179,1.00034 2.90263,1.19273 6.19454,1.21506 3.52831,0.0239 4.09799,-0.0968 5.81919,-1.2336 2.51531,-1.66123 5.8083,-5.89862 6.95563,-8.95045 2.17083,-5.77426 1.62774,-10.60505 -1.8581,-16.52777 -1.24828,-2.12092 -2.2696,-4.19404 -2.2696,-4.60693 0,-0.94198 1.26445,-1.26522 5.02953,-1.28574 3.86954,-0.0211 4.42532,0.0844 6.72964,1.27685 1.06746,0.55242 1.94083,0.90265 1.94083,0.7783 0,-0.58323 5.5924,5.87556 7.1482,8.25561 0.96482,1.47597 1.9603,2.83456 2.21218,3.01909 0.25188,0.18453 0.27867,0.33866 0.0595,0.3425 -0.21913,0.004 -0.14259,0.31525 0.17008,0.692 0.31268,0.37675 0.41543,0.685 0.22834,0.685 -0.18709,0 -0.0843,0.30825 0.22833,0.685 0.31268,0.37675 0.41543,0.685 0.22833,0.685 -0.18709,0 -0.11128,0.27578 0.16846,0.61285 0.27974,0.33706 0.38227,0.7392 0.22784,0.89364 -0.15444,0.15443 -0.1206,0.64927 0.0752,1.09964 0.51184,1.17732 0.56185,2.29802 0.66827,14.97553 0.055,6.54837 -0.10706,12.40306 -0.37999,13.72986 -0.66163,3.21648 -2.53554,8.0466 -4.62471,11.92049 -0.97102,1.80052 -1.64602,3.39315 -1.5,3.53917 0.14602,0.14601 0.0606,0.26548 -0.18987,0.26548 -0.25045,0 -1.11947,0.92475 -1.93116,2.055 -0.81168,1.13025 -1.3445,2.055 -1.18404,2.055 0.16046,0 -0.34107,0.53249 -1.11452,1.1833 -0.77344,0.6508 -1.35278,1.31868 -1.28741,1.48416 0.0654,0.16548 -1.47534,1.85841 -3.42378,3.76206 -1.94844,1.90365 -3.54262,3.37224 -3.54262,3.26353 0,-0.10871 -0.76471,0.47376 -1.69936,1.29439 -2.51033,2.20411 -9.42831,6.6576 -13.59897,8.75443 -2.00934,1.01021 -3.75609,1.96493 -3.88167,2.12161 -0.12558,0.15667 -0.43383,0.28856 -0.685,0.29307 -0.85509,0.0154 -3.88167,1.31557 -3.88167,1.66753 0,0.19282 -0.30825,0.23231 -0.685,0.0877 -0.37675,-0.14457 -0.685,-0.0418 -0.685,0.22834 0,0.27015 -0.30825,0.3729 -0.685,0.22833 -0.37675,-0.14457 -0.68514,-0.0868 -0.68532,0.1285 -1.8e-4,0.21525 -0.54077,0.42267 -1.20132,0.46093 -0.66055,0.0383 -1.32828,0.24376 -1.48384,0.45667 -0.15557,0.2129 -0.89935,0.45283 -1.65285,0.53317 -0.7535,0.0803 -1.43893,0.3385 -1.52317,0.57368 -0.0842,0.23518 -0.32931,0.31874 -0.54458,0.18569 -0.58527,-0.36172 -8.20725,1.64778 -8.20725,2.16379 0,0.55118 3.98052,0.13903 10.50333,-1.08753 z"
     id="path3075"
     inkscape:connector-curvature="0" />
  <path
     style="fill:#333333;fill-opacity:1;stroke:none"
     d=""
     id="path3077"
     inkscape:connector-curvature="0" />
  <path
     style="fill:#333333;fill-opacity:1;stroke:none"
     d=""
     id="path3079"
     inkscape:connector-curvature="0" />
  <path
     style="fill:#333333;fill-opacity:1;stroke:none"
     d="m 281.75651,185.19234 c -1.94057,-1.63288 -2.96445,-4.59135 -2.72667,-7.87862 0.24425,-3.37661 1.50019,-5.23644 4.24377,-6.28422 6.00548,-2.29351 11.9283,3.08024 10.33932,9.38083 -1.25365,4.97095 -8.26916,7.80049 -11.85642,4.78201 z m 5.86789,-1.35653 c 1.92881,-0.99742 3.65426,-3.47218 3.65426,-5.24117 0,-1.16356 -0.44864,-1.94979 -1.99491,-3.49606 -1.24334,-1.24335 -2.40465,-1.99378 -3.0825,-1.99191 -2.20154,0.006 -5.19994,2.8629 -5.71671,5.44675 -0.25033,1.25166 -0.0216,1.67497 1.99377,3.69037 2.44885,2.44885 3.09976,2.65022 5.14609,1.59202 l 0,0 z"
     id="path3081"
     inkscape:connector-curvature="0" />
  <path
     style="fill:#333333;fill-opacity:1;stroke:none"
     d="m 276.21298,205.13643 c -0.86887,-0.46599 -2.19535,-1.60782 -2.94774,-2.53741 -1.15545,-1.42761 -1.39519,-2.172 -1.54322,-4.7917 -0.20675,-3.65902 0.51024,-5.42648 2.76307,-6.81123 3.51205,-2.15875 7.31054,-1.47485 10.13485,1.82472 3.01285,3.51985 3.00818,7.1199 -0.0132,10.14664 -3.068,3.07347 -5.52394,3.70809 -8.39378,2.16898 z m 6.66435,-3.56854 c 1.22235,-1.22235 1.55133,-1.92116 1.55133,-3.29525 0,-1.99781 -1.4931,-4.52295 -3.21037,-5.42938 -3.03513,-1.60204 -7.36453,0.90141 -7.45391,4.31018 -0.0826,3.15191 3.60654,6.72184 6.39545,6.18871 0.64139,-0.12261 1.86426,-0.92103 2.7175,-1.77426 z"
     id="path3083"
     inkscape:connector-curvature="0" />
</svg>
