<?xml version="1.0" encoding="UTF-8" standalone="no"?>
<!-- Created with Inkscape (http://www.inkscape.org/) -->

<svg
   xmlns:dc="http://purl.org/dc/elements/1.1/"
   xmlns:cc="http://creativecommons.org/ns#"
   xmlns:rdf="http://www.w3.org/1999/02/22-rdf-syntax-ns#"
   xmlns:svg="http://www.w3.org/2000/svg"
   xmlns="http://www.w3.org/2000/svg"
   xmlns:xlink="http://www.w3.org/1999/xlink"
   xmlns:sodipodi="http://sodipodi.sourceforge.net/DTD/sodipodi-0.dtd"
   xmlns:inkscape="http://www.inkscape.org/namespaces/inkscape"
   id="svg1287"
   sodipodi:docname="Radio.svg"
   viewBox="0 0 375 417"
   sodipodi:version="0.32"
   version="1.0"
   inkscape:output_extension="org.inkscape.output.svg.inkscape"
   y="0"
   x="0"
   inkscape:version="0.91 r13725"
   width="375"
   height="417"
   inkscape:export-filename="Radio.png"
   inkscape:export-xdpi="12.086331"
   inkscape:export-ydpi="12.086331">
  <defs
     id="defs53" />
  <sodipodi:namedview
     id="base"
     bordercolor="#666666"
     inkscape:pageshadow="2"
     guidetolerance="10.0"
     pagecolor="#ffffff"
     gridtolerance="10.0"
     inkscape:zoom="0.51777778"
     objecttolerance="10.0"
     borderopacity="1.0"
     inkscape:current-layer="layer1"
     inkscape:cx="-245.34451"
     inkscape:cy="309.89152"
     inkscape:window-y="0"
     inkscape:window-x="0"
     inkscape:window-height="713"
     showgrid="false"
     inkscape:pageopacity="0.0"
     inkscape:window-width="1366"
     inkscape:window-maximized="1" />
  <g
     id="layer1"
     transform="translate(0,-33)">
    <path
       id="rect1921"
       style="fill:#9b9b9b;fill-opacity:1"
       d="m 118.08,290.55 c -6.52,0 -11.77,5.44 -11.77,12.21 l 0,51.44 c 0,6.76 5.25,12.21 11.77,12.21 l 2.87,0 0,-64.96 307.33,0 0,64.96 2.86,0 c 6.52,0 11.77,-5.45 11.77,-12.21 l 0,-51.44 c 0,-6.77 -5.25,-12.21 -11.77,-12.21 l -313.06,0 z"
       transform="translate(-87.106,-161.11)"
       inkscape:connector-curvature="0" />
    <rect
       id="rect1297"
       style="fill:#9b9b9b;fill-opacity:1"
       transform="translate(-87.106,-161.11)"
       height="265.75"
       width="372.04999"
       y="343.70001"
       x="88.583" />
    <rect
       id="rect1920"
       style="fill:#3e3e3e;stroke:#353535;stroke-width:3.75;stroke-linecap:round;stroke-linejoin:round;stroke-opacity:1;fill-opacity:1"
       transform="translate(-87.106,-161.11)"
       height="160.02"
       width="334.70999"
       y="432.28"
       x="108.21" />
    <path
       id="path1924"
       style="fill:#ffffff"
       d="m 159.45,387.99 a 26.575,26.575 0 1 1 -53.15,0 26.575,26.575 0 1 1 53.15,0 z"
       transform="translate(194.48,-162.98)"
       inkscape:connector-curvature="0" />
    <path
       id="path1925"
       style="fill:#ffffff"
       d="m 159.45,387.99 a 26.575,26.575 0 1 1 -53.15,0 26.575,26.575 0 1 1 53.15,0 z"
       transform="translate(-85.231,-162.98)"
       inkscape:connector-curvature="0" />
    <rect
       id="rect1926"
       style="fill:#969696;stroke:#ffffff;stroke-width:3.75;stroke-linecap:round;stroke-linejoin:round"
       transform="translate(-87.106,-161.11)"
       height="33.737999"
       width="194.88"
       y="363.20001"
       x="177.17" />
    <path
       id="path2564"
       style="fill:none;stroke:#aaaaaa;stroke-width:7.5;stroke-linecap:round;stroke-linejoin:round;fill-opacity:1;stroke-opacity:1"
       d="m 70.866,343.7 0,-106.0413"
       transform="translate(-3.54e-7,-161.11)"
       inkscape:connector-curvature="0"
       sodipodi:nodetypes="cc" />
    <path
       id="path2567"
       style="fill:#9b9b9b;fill-opacity:1"
       d="m 81.611,71.123245 a 10.745,10.745 0 1 1 -21.49,0 10.745,10.745 0 1 1 21.49,0 z"
       inkscape:connector-curvature="0" />
    <path
       id="path2569"
       style="fill:none;stroke:#000000;stroke-width:1.21110001pt"
       d="m 106.3,371.08 0,17.99"
       transform="translate(6.2008,-161.11)"
       inkscape:connector-curvature="0" />
    <path
       id="path2577"
       style="fill:none;stroke:#000000;stroke-width:1.21110001pt"
       d="m 131.3,371.08 0,17.99"
       transform="translate(6.2008,-161.11)"
       inkscape:connector-curvature="0" />
    <path
       id="path2578"
       style="fill:none;stroke:#000000;stroke-width:1.21110001pt"
       d="m 156.3,371.08 0,17.99"
       transform="translate(6.2008,-161.11)"
       inkscape:connector-curvature="0" />
    <path
       id="path2579"
       style="fill:none;stroke:#000000;stroke-width:1.21110001pt"
       d="m 181.3,371.08 0,17.99"
       transform="translate(6.2008,-161.11)"
       inkscape:connector-curvature="0" />
    <path
       id="path2580"
       style="fill:none;stroke:#000000;stroke-width:1.21110001pt"
       d="m 206.3,371.08 0,17.99"
       transform="translate(6.2008,-161.11)"
       inkscape:connector-curvature="0" />
    <path
       id="path2581"
       style="fill:none;stroke:#000000;stroke-width:1.21110001pt"
       d="m 231.3,371.08 0,17.99"
       transform="translate(6.2008,-161.11)"
       inkscape:connector-curvature="0" />
    <path
       id="path2582"
       style="fill:none;stroke:#000000;stroke-width:1.21110001pt"
       d="m 256.3,371.08 0,17.99"
       transform="translate(6.2008,-161.11)"
       inkscape:connector-curvature="0" />
    <path
       id="path2606"
       style="fill:none;stroke:#000000;stroke-width:1.21110001pt"
       d="m 117.5,374.4 0,11.35"
       transform="translate(-3.54e-7,-161.11)"
       inkscape:connector-curvature="0" />
    <path
       id="path2607"
       style="fill:none;stroke:#000000;stroke-width:1.21110001pt"
       d="m 142.5,374.4 0,11.35"
       transform="translate(-3.54e-7,-161.11)"
       inkscape:connector-curvature="0" />
    <path
       id="path2608"
       style="fill:none;stroke:#000000;stroke-width:1.21110001pt"
       d="m 167.5,374.4 0,11.35"
       transform="translate(-3.54e-7,-161.11)"
       inkscape:connector-curvature="0" />
    <path
       id="path2609"
       style="fill:none;stroke:#000000;stroke-width:1.21110001pt"
       d="m 192.5,374.4 0,11.35"
       transform="translate(-3.54e-7,-161.11)"
       inkscape:connector-curvature="0" />
    <path
       id="path2610"
       style="fill:none;stroke:#000000;stroke-width:1.21110001pt"
       d="m 217.5,374.4 0,11.35"
       transform="translate(-3.54e-7,-161.11)"
       inkscape:connector-curvature="0" />
    <path
       id="path2611"
       style="fill:none;stroke:#000000;stroke-width:1.21110001pt"
       d="m 242.5,374.4 0,11.35"
       transform="translate(-3.54e-7,-161.11)"
       inkscape:connector-curvature="0" />
    <path
       id="path2612"
       style="fill:none;stroke:#000000;stroke-width:1.21110001pt"
       d="m 267.5,374.4 0,11.35"
       transform="translate(-3.54e-7,-161.11)"
       inkscape:connector-curvature="0" />
    <path
       id="path2613"
       style="fill:none;stroke:#000000;stroke-width:1.21110001pt"
       d="m 122.5,374.4 0,11.35"
       transform="translate(-3.54e-7,-161.11)"
       inkscape:connector-curvature="0" />
    <path
       id="path2614"
       style="fill:none;stroke:#000000;stroke-width:1.21110001pt"
       d="m 147.5,374.4 0,11.35"
       transform="translate(-3.54e-7,-161.11)"
       inkscape:connector-curvature="0" />
    <path
       id="path2615"
       style="fill:none;stroke:#000000;stroke-width:1.21110001pt"
       d="m 172.5,374.4 0,11.35"
       transform="translate(-3.54e-7,-161.11)"
       inkscape:connector-curvature="0" />
    <path
       id="path2616"
       style="fill:none;stroke:#000000;stroke-width:1.21110001pt"
       d="m 197.5,374.4 0,11.35"
       transform="translate(-3.54e-7,-161.11)"
       inkscape:connector-curvature="0" />
    <path
       id="path2617"
       style="fill:none;stroke:#000000;stroke-width:1.21110001pt"
       d="m 222.5,374.4 0,11.35"
       transform="translate(-3.54e-7,-161.11)"
       inkscape:connector-curvature="0" />
    <path
       id="path2618"
       style="fill:none;stroke:#000000;stroke-width:1.21110001pt"
       d="m 247.5,374.4 0,11.35"
       transform="translate(-3.54e-7,-161.11)"
       inkscape:connector-curvature="0" />
    <path
       id="path2619"
       style="fill:none;stroke:#000000;stroke-width:1.21110001pt"
       d="m 272.5,374.4 0,11.35"
       transform="translate(-3.54e-7,-161.11)"
       inkscape:connector-curvature="0" />
    <path
       id="path2620"
       style="fill:none;stroke:#000000;stroke-width:1.21110001pt"
       d="m 127.5,374.4 0,11.35"
       transform="translate(-3.54e-7,-161.11)"
       inkscape:connector-curvature="0" />
    <path
       id="path2621"
       style="fill:none;stroke:#000000;stroke-width:1.21110001pt"
       d="m 152.5,374.4 0,11.35"
       transform="translate(-3.54e-7,-161.11)"
       inkscape:connector-curvature="0" />
    <path
       id="path2622"
       style="fill:none;stroke:#000000;stroke-width:1.21110001pt"
       d="m 177.5,374.4 0,11.35"
       transform="translate(-3.54e-7,-161.11)"
       inkscape:connector-curvature="0" />
    <path
       id="path2623"
       style="fill:none;stroke:#000000;stroke-width:1.21110001pt"
       d="m 202.5,374.4 0,11.35"
       transform="translate(-3.54e-7,-161.11)"
       inkscape:connector-curvature="0" />
    <path
       id="path2624"
       style="fill:none;stroke:#000000;stroke-width:1.21110001pt"
       d="m 227.5,374.4 0,11.35"
       transform="translate(-3.54e-7,-161.11)"
       inkscape:connector-curvature="0" />
    <path
       id="path2625"
       style="fill:none;stroke:#000000;stroke-width:1.21110001pt"
       d="m 252.5,374.4 0,11.35"
       transform="translate(-3.54e-7,-161.11)"
       inkscape:connector-curvature="0" />
    <path
       id="path2626"
       style="fill:none;stroke:#000000;stroke-width:1.21110001pt"
       d="m 277.5,374.4 0,11.35"
       transform="translate(-3.54e-7,-161.11)"
       inkscape:connector-curvature="0" />
    <path
       id="path2627"
       style="fill:none;stroke:#000000;stroke-width:1.21110001pt"
       d="m 132.5,374.4 0,11.35"
       transform="translate(-3.54e-7,-161.11)"
       inkscape:connector-curvature="0" />
    <path
       id="path2628"
       style="fill:none;stroke:#000000;stroke-width:1.21110001pt"
       d="m 157.5,374.4 0,11.35"
       transform="translate(-3.54e-7,-161.11)"
       inkscape:connector-curvature="0" />
    <path
       id="path2629"
       style="fill:none;stroke:#000000;stroke-width:1.21110001pt"
       d="m 182.5,374.4 0,11.35"
       transform="translate(-3.54e-7,-161.11)"
       inkscape:connector-curvature="0" />
    <path
       id="path2630"
       style="fill:none;stroke:#000000;stroke-width:1.21110001pt"
       d="m 207.5,374.4 0,11.35"
       transform="translate(-3.54e-7,-161.11)"
       inkscape:connector-curvature="0" />
    <path
       id="path2631"
       style="fill:none;stroke:#000000;stroke-width:1.21110001pt"
       d="m 232.5,374.4 0,11.35"
       transform="translate(-3.54e-7,-161.11)"
       inkscape:connector-curvature="0" />
    <path
       id="path2632"
       style="fill:none;stroke:#000000;stroke-width:1.21110001pt"
       d="m 257.5,374.4 0,11.35"
       transform="translate(-3.54e-7,-161.11)"
       inkscape:connector-curvature="0" />
    <path
       id="path2634"
       style="fill:none;stroke:#000000;stroke-width:1.21110001pt"
       d="m 97.5,374.4 0,11.35"
       transform="translate(-3.54e-7,-161.11)"
       inkscape:connector-curvature="0" />
    <path
       id="path2635"
       style="fill:none;stroke:#000000;stroke-width:1.21110001pt"
       d="m 102.5,374.4 0,11.35"
       transform="translate(-3.54e-7,-161.11)"
       inkscape:connector-curvature="0" />
    <path
       id="path2636"
       style="fill:none;stroke:#000000;stroke-width:1.21110001pt"
       d="m 107.5,374.4 0,11.35"
       transform="translate(-3.54e-7,-161.11)"
       inkscape:connector-curvature="0" />
    <rect
       id="rect1927"
       style="fill:#ffffff"
       transform="translate(-3.54e-7,-161.11)"
       height="27.563"
       width="7.7247"
       y="369.29001"
       x="220.67999" />
  </g>
  <metadata
     id="metadata51">
    <rdf:RDF>
      <cc:Work>
        <dc:format>image/svg+xml</dc:format>
        <dc:type
           rdf:resource="http://purl.org/dc/dcmitype/StillImage" />
        <cc:license
           rdf:resource="http://creativecommons.org/publicdomain/zero/1.0/" />
        <dc:publisher>
          <cc:Agent
             rdf:about="http://openclipart.org/">
            <dc:title>Openclipart</dc:title>
          </cc:Agent>
        </dc:publisher>
        <dc:title>simple radio</dc:title>
        <dc:date>2008-09-02T21:40:21</dc:date>
        <dc:description />
        <dc:source>https://openclipart.org/detail/18993/simple-radio-by-aj</dc:source>
        <dc:creator>
          <cc:Agent>
            <dc:title>AJ</dc:title>
          </cc:Agent>
        </dc:creator>
        <dc:subject>
          <rdf:Bag>
            <rdf:li>broadcast</rdf:li>
            <rdf:li>editorial pick</rdf:li>
            <rdf:li>electronic</rdf:li>
            <rdf:li>music</rdf:li>
            <rdf:li>radio</rdf:li>
          </rdf:Bag>
        </dc:subject>
      </cc:Work>
      <cc:License
         rdf:about="http://creativecommons.org/publicdomain/zero/1.0/">
        <cc:permits
           rdf:resource="http://creativecommons.org/ns#Reproduction" />
        <cc:permits
           rdf:resource="http://creativecommons.org/ns#Distribution" />
        <cc:permits
           rdf:resource="http://creativecommons.org/ns#DerivativeWorks" />
      </cc:License>
    </rdf:RDF>
  </metadata>
  <path
     style="fill:none;fill-opacity:1;stroke:#bcbcbc;stroke-width:1;stroke-linejoin:round;stroke-miterlimit:4;stroke-dasharray:none;stroke-opacity:1"
     id="path4191"
     sodipodi:type="arc"
     sodipodi:cx="35.59182"
     sodipodi:cy="-73.951973"
     sodipodi:rx="25.947481"
     sodipodi:ry="25.947481"
     sodipodi:start="0.36029524"
     sodipodi:end="2.801611"
     d="M 59.873285,-64.804175 A 25.947481,25.947481 0 0 1 35.328281,-48.00583 25.947481,25.947481 0 0 1 11.129552,-65.299272"
     transform="matrix(-0.04942777,0.9987777,-0.9987777,-0.04942777,0,0)"
     inkscape:transform-center-x="1.127976"
     inkscape:transform-center-y="11.607434"
     sodipodi:open="true"
     inkscape:tile-cx="56.540187"
     inkscape:tile-cy="60.066011"
     inkscape:tile-w="19.157968"
     inkscape:tile-h="49.597339"
     inkscape:tile-x0="45.65471"
     inkscape:tile-y0="46.864558" />
  <use
     x="0"
     y="0"
     inkscape:tiled-clone-of="#path4191"
     xlink:href="#path4191"
     transform="matrix(1.2,0,0,1.2,-26.780708,-7.893069)"
     id="use4235"
     inkscape:transform-center-x="1.3535715"
     inkscape:transform-center-y="13.928921"
     width="100%"
     height="100%"
     style="stroke:#bcbcbc;stroke-opacity:1" />
  <use
     x="0"
     y="0"
     inkscape:tiled-clone-of="#path4191"
     xlink:href="#path4191"
     transform="matrix(1.4,0,0,1.4,-55.492746,-15.786138)"
     id="use4237"
     inkscape:transform-center-x="1.579166"
     inkscape:transform-center-y="16.250408"
     width="100%"
     height="100%"
     style="stroke:#bcbcbc;stroke-opacity:1" />
  <use
     x="0"
     y="0"
     xlink:href="#path4191"
     inkscape:transform-center-x="-1.1150699"
     inkscape:transform-center-y="11.608478"
     id="use4239"
     transform="matrix(-0.98856258,0,0,1.0000898,143.89988,-0.0034416)"
     width="100%"
     height="100%"
     style="stroke:#bcbcbc;stroke-opacity:1" />
  <use
     x="0"
     y="0"
     xlink:href="#use4235"
     inkscape:transform-center-x="-1.3380853"
     inkscape:transform-center-y="13.930173"
     id="use4241"
     transform="matrix(-0.98856258,0,0,1.0000898,145.09393,-0.0034416)"
     width="100%"
     height="100%"
     style="stroke:#bcbcbc;stroke-opacity:1" />
  <use
     x="0"
     y="0"
     xlink:href="#use4237"
     inkscape:transform-center-x="-1.5610997"
     inkscape:transform-center-y="16.251869"
     id="use4243"
     transform="matrix(-0.98856258,0,0,1.0000898,145.79294,-0.0034416)"
     width="100%"
     height="100%"
     style="stroke:#bcbcbc;stroke-opacity:1" />
</svg>
